<?xml version="1.0" encoding="utf-8"?>
<!-- Generator: Adobe Illustrator 22.0.1, SVG Export Plug-In . SVG Version: 6.00 Build 0)  -->
<svg version="1.0" xmlns="http://www.w3.org/2000/svg" xmlns:xlink="http://www.w3.org/1999/xlink" x="0px" y="0px" width="63px"
	 height="63px" viewBox="0 0 63 63" enable-background="new 0 0 63 63" xml:space="preserve">
<g id="Apiary_Site">
</g>
<g id="Hoarder_x2F_High_Level_Fuel_Load_1_">
</g>
<g id="Fire_Station_-_Scale_Dependent">
</g>
<g id="Fire_Station_-_Secondary">
</g>
<g id="Fire_Station_-_Main">
</g>
<g id="Police_Facility_-_Scale_Dependent">
</g>
<g id="Police_Facility_-_Secondary">
</g>
<g id="Police_Facility_-_Main">
</g>
<g id="Life_Saving_Facility_-_Scale_Dependent_1_">
</g>
<g id="Life_Saving_Facility_-_Secondary">
</g>
<g id="Life_Saving_Facility_-_Main">
</g>
<g id="SES_Facility_-_Scale_Dependent">
</g>
<g id="SES_Facility_-_Secondary">
</g>
<g id="SES_Facility_-_Main">
</g>
<g id="Ambulance_Facility_-_Scale_Dependent_1_">
</g>
<g id="Ambulance_Facility_-_Secondary">
	<rect fill="#FFFFFF" width="63" height="63"/>
	<path fill="#009345" d="M30.1,37.5c3.3-0.5,5.7-1,7.3-1.7v1.6c0,2-0.2,3.5-0.7,4.5c-0.6,1.3-1.6,2.3-3,3.1
		c-1.3,0.8-2.9,1.1-4.6,1.1c-1.7,0-3.1-0.4-4-1.2c-0.9-0.8-1.4-1.8-1.4-3c0-0.8,0.2-1.5,0.6-2.1c0.4-0.6,1-1.1,1.8-1.5
		C27,38,28.3,37.7,30.1,37.5z M63,0v63H0V0H63z M43.4,49.1c-0.6-1-0.9-2.1-1.1-3.2C42.1,44.8,42,42.1,42,38v-6c0-2-0.1-3.4-0.2-4.1
		c-0.3-1.2-0.7-2.2-1.4-3.1s-1.7-1.5-3.1-2C35.8,22.3,34,22,31.7,22c-2.3,0-4.3,0.3-6,0.9c-1.7,0.6-3,1.5-4,2.7s-1.6,2.7-2,4.5
		l4.4,0.6c0.5-1.9,1.2-3.2,2.2-3.9c1-0.7,2.6-1.1,4.7-1.1c2.3,0,4,0.5,5.1,1.5c0.8,0.7,1.3,2,1.3,3.9c0,0.2,0,0.6,0,1.2
		c-1.7,0.6-4.4,1.1-8,1.5c-1.8,0.2-3.1,0.4-4,0.7c-1.2,0.3-2.3,0.8-3.2,1.5c-1,0.6-1.7,1.5-2.3,2.6c-0.6,1.1-0.9,2.3-0.9,3.5
		c0,2.2,0.8,4,2.3,5.4c1.6,1.4,3.8,2.1,6.7,2.1c1.8,0,3.4-0.3,4.9-0.9c1.5-0.6,3.1-1.6,4.8-3c0.1,1.2,0.4,2.3,0.9,3.3H43.4z"/>
</g>
<g id="Ambulance_Facility_-_Main">
</g>
<g id="General_Observation">
</g>
</svg>
