<?xml version="1.0" encoding="utf-8"?>
<!-- Generator: Adobe Illustrator 22.0.1, SVG Export Plug-In . SVG Version: 6.00 Build 0)  -->
<svg version="1.0" xmlns="http://www.w3.org/2000/svg" xmlns:xlink="http://www.w3.org/1999/xlink" x="0px" y="0px" width="63px"
	 height="63px" viewBox="0 0 63 63" enable-background="new 0 0 63 63" xml:space="preserve">
<g id="Apiary_Site">
</g>
<g id="Hoarder_x2F_High_Level_Fuel_Load_1_">
</g>
<g id="Fire_Station_-_Scale_Dependent">
</g>
<g id="Fire_Station_-_Secondary">
	<rect fill="#FFFFFF" width="63" height="63"/>
	<path fill="#E51E26" d="M0,0v63h63V0H0z M39.7,15c-1.1-0.2-2.1-0.3-3.1-0.3c-1.6,0-2.7,0.3-3.3,1c-0.7,0.7-1,1.9-1,3.8v2.8h6v4h-6
		V53h-5.2V26.4h-4.6v-4h4.6v-3.3c0-2.1,0.2-3.6,0.5-4.6c0.5-1.3,1.4-2.4,2.6-3.3c1.3-0.8,3-1.3,5.3-1.3c1.5,0,3.1,0.2,4.8,0.5
		L39.7,15z"/>
</g>
<g id="Fire_Station_-_Main">
</g>
<g id="Police_Facility_-_Scale_Dependent">
</g>
<g id="Police_Facility_-_Secondary">
</g>
<g id="Police_Facility_-_Main">
</g>
<g id="Life_Saving_Facility_-_Scale_Dependent_1_">
</g>
<g id="Life_Saving_Facility_-_Secondary">
</g>
<g id="Life_Saving_Facility_-_Main">
</g>
<g id="SES_Facility_-_Scale_Dependent">
</g>
<g id="SES_Facility_-_Secondary">
</g>
<g id="SES_Facility_-_Main">
</g>
<g id="Ambulance_Facility_-_Scale_Dependent_1_">
</g>
<g id="Ambulance_Facility_-_Secondary">
</g>
<g id="Ambulance_Facility_-_Main">
</g>
<g id="General_Observation">
</g>
</svg>
