<?xml version="1.0" encoding="UTF-8" standalone="no"?>
<!-- Created with Inkscape (http://www.inkscape.org/) -->
<svg id="svg2986" xmlns:rdf="http://www.w3.org/1999/02/22-rdf-syntax-ns#" xmlns="http://www.w3.org/2000/svg" height="64px" width="64px" version="1.1" xmlns:cc="http://creativecommons.org/ns#" xmlns:dc="http://purl.org/dc/elements/1.1/">
 <metadata id="metadata2991">
  <rdf:RDF>
   <cc:Work rdf:about="">
    <dc:format>image/svg+xml</dc:format>
    <dc:type rdf:resource="http://purl.org/dc/dcmitype/StillImage"/>
    <dc:title/>
   </cc:Work>
  </rdf:RDF>
 </metadata>
 <g id="layer2">
  <path id="path2422-1" d="m-16.3,6.64a14.3,15.2,0,1,1,-28.7,0,14.3,15.2,0,1,1,28.7,0z" fill-rule="nonzero" transform="matrix(2.0232788,0,0,1.9102133,93.884732,19.320234)" fill="#FFF"/>
 </g>
 <g id="layer1">
  <path id="path2394" d="M26.3,60.6c-7.6-1.5-14.5-6.2-18.8-12.8-3.48-5.4-4.71-10.2-4.42-17.2,0.22-5.2,0.76-7.4,2.82-11.6,2.8-5.7,7.64-10.5,13.2-13.3,4.7-2.3,6.6-2.71,12.8-2.73,5.76-0.0156,7.47,0.297,12,2.2,5.37,2.24,11.6,8.22,14.3,13.8,2.16,4.39,2.75,7.2,2.75,13,0,4.3-0.123,5.54-0.774,7.81-2.8,9.8-10.5,17.5-20.2,20.3-3.2,0.9-10.3,1.2-13.7,0.5zm13.3-5.46c3.78-1.27,7.1-3.45,10.1-6.62,10.5-10.9,8.4-28.5-4.4-37-12.1-8.04-28.9-3.33-35.2,9.9-2.66,5.5-3.12,12.2-1.24,18.1,2.64,8.2,9.44,14.3,18.1,16.4,3.31,0.766,9.26,0.442,12.6-0.687zm-22.7-8.1-1.5-1.6,6.4-6.4c3.51-3.51,6.38-6.54,6.38-6.73,0-0.188-2.69-3.02-5.98-6.3s-6.13-6.23-6.31-6.55c-0.254-0.457-0.051-0.892,0.913-1.96,0.681-0.755,1.49-1.37,1.8-1.37,0.308,0,3.32,2.76,6.68,6.14,3.37,3.37,6.36,6.14,6.64,6.14,0.285,0,3.27-2.76,6.64-6.14,3.37-3.37,6.36-6.14,6.65-6.14,0.571,0,3.05,2.37,3.05,2.92,0,0.181-2.84,3.16-6.3,6.63-3.47,3.46-6.3,6.45-6.3,6.64,0,0.188,2.87,3.22,6.38,6.73l6.38,6.39-1.51,1.54c-0.83,0.847-1.66,1.54-1.84,1.54-0.184,0-3.22-2.87-6.75-6.38l-6.41-6.38-6.39,6.38c-3.51,3.51-6.54,6.38-6.74,6.38-0.193,0-1.03-0.693-1.86-1.54z" fill="#F00"/>
 </g>
</svg>
