<?xml version="1.0" encoding="utf-8"?>
<!-- Generator: Adobe Illustrator 22.0.1, SVG Export Plug-In . SVG Version: 6.00 Build 0)  -->
<svg version="1.0" xmlns="http://www.w3.org/2000/svg" xmlns:xlink="http://www.w3.org/1999/xlink" x="0px" y="0px" width="63px"
	 height="63px" viewBox="0 0 63 63" enable-background="new 0 0 63 63" xml:space="preserve">
<g id="Apiary_Site">
</g>
<g id="Hoarder_x2F_High_Level_Fuel_Load_1_">
</g>
<g id="Fire_Station_-_Scale_Dependent">
</g>
<g id="Fire_Station_-_Secondary">
</g>
<g id="Fire_Station_-_Main">
</g>
<g id="Police_Facility_-_Scale_Dependent">
</g>
<g id="Police_Facility_-_Secondary">
</g>
<g id="Police_Facility_-_Main">
</g>
<g id="Life_Saving_Facility_-_Scale_Dependent_1_">
</g>
<g id="Life_Saving_Facility_-_Secondary">
</g>
<g id="Life_Saving_Facility_-_Main">
</g>
<g id="SES_Facility_-_Scale_Dependent">
</g>
<g id="SES_Facility_-_Secondary">
</g>
<g id="SES_Facility_-_Main">
</g>
<g id="Ambulance_Facility_-_Scale_Dependent_1_">
</g>
<g id="Ambulance_Facility_-_Secondary">
</g>
<g id="Ambulance_Facility_-_Main">
</g>
<g id="General_Observation">
	<polygon fill="#FFFFFF" points="31.4,3 1.5,24.8 12.9,59.9 49.9,59.9 61.3,24.8 	"/>
	<polygon fill="#FFFFFF" points="50,60 12.9,60 1.4,24.8 31.4,3 61.4,24.7 	"/>
	<g>
		<polygon fill="none" points="60.3,25.2 31.5,4.3 2.7,25.2 13.8,59.1 49.2,59.1 		"/>
		<path fill="#231F20" d="M62.3,24.6L62.3,24.6L31.5,2.2l0,0l0,0L0.7,24.6l0,0l11.8,36.2l0,0v0h37.9v0L62.3,24.6z M2.7,25.2
			L31.5,4.3l28.8,20.9l-11,33.8H13.8L2.7,25.2z"/>
	</g>
</g>
</svg>
