<?xml version="1.0" encoding="utf-8"?>
<!-- Generator: Adobe Illustrator 22.0.1, SVG Export Plug-In . SVG Version: 6.00 Build 0)  -->
<svg version="1.0" xmlns="http://www.w3.org/2000/svg" xmlns:xlink="http://www.w3.org/1999/xlink" x="0px" y="0px" width="63px"
	 height="63px" viewBox="0 0 63 63" enable-background="new 0 0 63 63" xml:space="preserve">
<g id="Apiary_Site">
</g>
<g id="Hoarder_x2F_High_Level_Fuel_Load_1_">
</g>
<g id="Fire_Station_-_Scale_Dependent">
</g>
<g id="Fire_Station_-_Secondary">
</g>
<g id="Fire_Station_-_Main">
</g>
<g id="Police_Facility_-_Scale_Dependent">
</g>
<g id="Police_Facility_-_Secondary">
</g>
<g id="Police_Facility_-_Main">
</g>
<g id="Life_Saving_Facility_-_Scale_Dependent_1_">
</g>
<g id="Life_Saving_Facility_-_Secondary">
</g>
<g id="Life_Saving_Facility_-_Main">
	<rect x="0" y="0" fill="#E51E26" width="63" height="63"/>
	<path fill="#FFF100" d="M0,0v63h63V0H0z M29,43.7H11.9V19.5h4.9v20H29V43.7z M49.9,40.5c-0.8,1.2-1.9,2.1-3.3,2.7
		c-1.4,0.6-3.2,0.9-5.3,0.9c-3.1,0-5.4-0.7-7.1-2.1c-1.6-1.4-2.6-3.5-3-6.2l4.8-0.5c0.3,1.6,0.9,2.8,1.8,3.5
		c0.9,0.8,2.1,1.1,3.6,1.1c1.6,0,2.8-0.3,3.6-1c0.8-0.7,1.2-1.5,1.2-2.3c0-0.6-0.2-1.1-0.5-1.5c-0.3-0.4-0.9-0.8-1.8-1.1
		C43.3,33.9,42,33.5,40,33c-2.6-0.7-4.5-1.5-5.5-2.4c-1.5-1.3-2.2-3-2.2-4.9c0-1.2,0.4-2.4,1.1-3.5c0.7-1.1,1.7-1.9,3-2.5
		c1.3-0.6,2.9-0.8,4.8-0.8c3.1,0,5.4,0.7,6.9,2c1.5,1.3,2.4,3.1,2.4,5.4l-4.9,0.2c-0.2-1.3-0.7-2.2-1.4-2.7C43.4,23.2,42.4,23,41,23
		c-1.4,0-2.5,0.3-3.4,0.9c-0.5,0.4-0.8,0.9-0.8,1.5c0,0.6,0.2,1.1,0.7,1.5c0.6,0.5,2.1,1.1,4.5,1.6s4.2,1.1,5.3,1.8
		c1.1,0.6,2,1.4,2.7,2.5c0.6,1,1,2.3,1,3.9C51.1,38,50.7,39.3,49.9,40.5z"/>
	<rect y="59.6" fill="#E51E26" width="63" height="3.4"/>
	<rect x="-29.8" y="29.8" transform="matrix(4.488327e-11 -1 1 4.488327e-11 -29.8 33.2)" fill="#E51E26" width="63" height="3.4"/>
	<rect x="29.8" y="29.8" transform="matrix(4.488327e-11 -1 1 4.488327e-11 29.8 92.8)" fill="#E51E26" width="63" height="3.4"/>
	<rect x="0" fill="#E51E26" width="63" height="3.4"/>
</g>
<g id="SES_Facility_-_Scale_Dependent">
</g>
<g id="SES_Facility_-_Secondary">
</g>
<g id="SES_Facility_-_Main">
</g>
<g id="Ambulance_Facility_-_Scale_Dependent_1_">
</g>
<g id="Ambulance_Facility_-_Secondary">
</g>
<g id="Ambulance_Facility_-_Main">
</g>
<g id="General_Observation">
</g>
</svg>
