<?xml version="1.0" encoding="utf-8"?>
<!-- Generator: Adobe Illustrator 22.0.1, SVG Export Plug-In . SVG Version: 6.00 Build 0)  -->
<svg version="1.0" xmlns="http://www.w3.org/2000/svg" xmlns:xlink="http://www.w3.org/1999/xlink" x="0px" y="0px" width="63px"
	 height="63px" viewBox="0 0 63 63" enable-background="new 0 0 63 63" xml:space="preserve">
<g id="Apiary_Site">
</g>
<g id="Hoarder_x2F_High_Level_Fuel_Load_1_">
</g>
<g id="Fire_Station_-_Scale_Dependent">
</g>
<g id="Fire_Station_-_Secondary">
</g>
<g id="Fire_Station_-_Main">
</g>
<g id="Police_Facility_-_Scale_Dependent">
</g>
<g id="Police_Facility_-_Secondary">
</g>
<g id="Police_Facility_-_Main">
</g>
<g id="Life_Saving_Facility_-_Scale_Dependent_1_">
	<g>
		<rect y="0" fill="#FFFFFF" width="63" height="63"/>
		
			<rect x="0.1" y="0.1" transform="matrix(4.493834e-11 -1 1 4.493834e-11 2.656444e-02 31.6349)" fill="#FFF100" width="31.4" height="31.4"/>
		
			<rect x="31.5" y="31.5" transform="matrix(4.488038e-11 -1 1 4.488038e-11 -4.887956e-03 94.3434)" fill="#FFF100" width="31.4" height="31.4"/>
		<rect x="31.5" y="0.1" fill="#E51E26" width="31.4" height="31.4"/>
		<rect x="0.1" y="31.5" fill="#E51E26" width="31.4" height="31.4"/>
	</g>
	<rect x="0" y="59.6" fill="#E51E26" width="63" height="3.4"/>
	<rect x="-29.8" y="29.8" transform="matrix(4.488327e-11 -1 1 4.488327e-11 -29.8 33.2)" fill="#E51E26" width="63" height="3.4"/>
	
		<rect x="29.8" y="29.8" transform="matrix(4.488327e-11 -1 1 4.488327e-11 29.7899 92.8101)" fill="#E51E26" width="63" height="3.4"/>
	<rect x="0" fill="#E51E26" width="63" height="3.4"/>
</g>
<g id="Life_Saving_Facility_-_Secondary">
</g>
<g id="Life_Saving_Facility_-_Main">
</g>
<g id="SES_Facility_-_Scale_Dependent">
</g>
<g id="SES_Facility_-_Secondary">
</g>
<g id="SES_Facility_-_Main">
</g>
<g id="Ambulance_Facility_-_Scale_Dependent_1_">
</g>
<g id="Ambulance_Facility_-_Secondary">
</g>
<g id="Ambulance_Facility_-_Main">
</g>
<g id="General_Observation">
</g>
</svg>
