<?xml version="1.0" encoding="utf-8"?>
<!-- Generator: Adobe Illustrator 22.0.1, SVG Export Plug-In . SVG Version: 6.00 Build 0)  -->
<svg version="1.0" xmlns="http://www.w3.org/2000/svg" xmlns:xlink="http://www.w3.org/1999/xlink" x="0px" y="0px" width="63px"
	 height="63px" viewBox="0 0 63 63" enable-background="new 0 0 63 63" xml:space="preserve">
<g id="Apiary_Site">
</g>
<g id="Hoarder_x2F_High_Level_Fuel_Load_1_">
</g>
<g id="Fire_Station_-_Scale_Dependent">
</g>
<g id="Fire_Station_-_Secondary">
</g>
<g id="Fire_Station_-_Main">
</g>
<g id="Police_Facility_-_Scale_Dependent">
</g>
<g id="Police_Facility_-_Secondary">
</g>
<g id="Police_Facility_-_Main">
</g>
<g id="Life_Saving_Facility_-_Scale_Dependent_1_">
</g>
<g id="Life_Saving_Facility_-_Secondary">
	<rect fill="#E51E26" width="63" height="63"/>
	<path fill="#FFF100" d="M0,0v63h63V0H0z M22.6,45.6h-3.5V16.9h3.5V45.6z M42.9,42.8c-0.7,1-1.7,1.8-3,2.4s-2.7,0.8-4.4,0.8
		c-2.7,0-4.7-0.6-6.2-1.7s-2.3-2.8-2.7-5l3.5-0.5c0.2,1.4,0.7,2.5,1.6,3.2c0.9,0.7,2.1,1.1,3.7,1.1c1.6,0,2.8-0.3,3.6-1
		s1.2-1.4,1.2-2.3c0-0.8-0.3-1.4-1-1.9c-0.5-0.3-1.7-0.7-3.6-1.2c-2.6-0.7-4.4-1.2-5.4-1.7s-1.8-1.1-2.3-2s-0.8-1.8-0.8-2.8
		c0-0.9,0.2-1.8,0.6-2.6s1-1.4,1.7-2c0.5-0.4,1.3-0.7,2.2-1c0.9-0.3,2-0.4,3-0.4c1.6,0,3.1,0.2,4.3,0.7s2.1,1.1,2.7,1.9
		s1,1.9,1.2,3.2l-3.4,0.5c-0.2-1.1-0.6-1.9-1.4-2.5s-1.8-0.9-3.2-0.9c-1.6,0-2.8,0.3-3.5,0.8c-0.7,0.5-1,1.2-1,1.9
		c0,0.5,0.1,0.9,0.4,1.2c0.3,0.4,0.7,0.7,1.3,0.9c0.4,0.1,1.4,0.4,3.1,0.9c2.5,0.7,4.2,1.2,5.2,1.6s1.8,1,2.3,1.8s0.8,1.8,0.8,3
		C43.9,40.7,43.6,41.8,42.9,42.8z"/>
	<rect x="0" y="59.6" fill="#E51E26" width="63" height="3.4"/>
	
		<rect x="-29.8" y="29.8" transform="matrix(4.488327e-11 -1 1 4.488327e-11 -29.7899 33.1899)" fill="#E51E26" width="63" height="3.4"/>
	<rect x="29.8" y="29.8" transform="matrix(4.488327e-11 -1 1 4.488327e-11 29.8 92.8)" fill="#E51E26" width="63" height="3.4"/>
	<rect x="0" fill="#E51E26" width="63" height="3.4"/>
</g>
<g id="Life_Saving_Facility_-_Main">
</g>
<g id="SES_Facility_-_Scale_Dependent">
</g>
<g id="SES_Facility_-_Secondary">
</g>
<g id="SES_Facility_-_Main">
</g>
<g id="Ambulance_Facility_-_Scale_Dependent_1_">
</g>
<g id="Ambulance_Facility_-_Secondary">
</g>
<g id="Ambulance_Facility_-_Main">
</g>
<g id="General_Observation">
</g>
</svg>
