<?xml version="1.0" encoding="UTF-8" standalone="no"?>
<!-- Created with Inkscape (http://www.inkscape.org/) -->
<svg id="svg3024" xmlns:rdf="http://www.w3.org/1999/02/22-rdf-syntax-ns#" xmlns="http://www.w3.org/2000/svg" height="64px" width="64px" version="1.1" xmlns:cc="http://creativecommons.org/ns#" xmlns:dc="http://purl.org/dc/elements/1.1/">
 <metadata id="metadata3029">
  <rdf:RDF>
   <cc:Work rdf:about="">
    <dc:format>image/svg+xml</dc:format>
    <dc:type rdf:resource="http://purl.org/dc/dcmitype/StillImage"/>
    <dc:title/>
   </cc:Work>
  </rdf:RDF>
 </metadata>
 <g id="layer1">
  <path id="path2999" d="M24,61.9c-15.6-4.3-25.6-20.4-22.4-35.9,3.45-16.6,20.1-27.8,36.3-24.4,16.6,3.43,27.8,20.1,24.5,36.2-3.7,17.6-21.5,28.8-38.4,24.1zm19.5-7c9.1-4.6,13.9-12.6,13.9-22.9,0-14.9-10.5-25.4-25.4-25.4-10.4,0-18.2,4.74-23.1,14-3.02,5.7-3.18,16.8-0.33,22.2,7.04,13.4,22.2,18.7,34.9,12.1zm-32.1-14.3c-1.82-3.4-0.895-6.94,1.91-7.34,2.31-0.329,2.36-0.508,0.906-3.98-1.74-4.17-1.36-4.9,2.56-4.9,1.88,0,3.17-0.811,3.89-2.44,1.84-4.2,12.5-3.95,12.5,0.292,0,1.65,0.733,2.15,3.18,2.15,2.23,0,3.39,0.65,3.87,2.17,0.509,1.6,1.64,2.17,4.34,2.17s3.83-0.566,4.34-2.17c1.18-3.72,2.25-2.38,1.8,2.28-0.322,3.37,0.169,5.25,2.03,7.77,2.02,2.73,2.12,3.2,0.578,2.6-1.03-0.397-2.07-0.722-2.31-0.722-0.234,0-1.18-1.46-2.11-3.25-1.13-2.19-2.47-3.23-4.09-3.18l-2.41,0.0688,2.44,0.981c1.73,0.694,2.44,1.88,2.44,4.05,0,5.28-1.29,5.67-18.6,5.67-15,0-16.1-0.136-17.2-2.23zm8.54-1.53c0.475-2.45-2.01-4.1-3.87-2.56-1.77,1.47-1.79,3.8-0.0364,4.5,2.13,0.851,3.49,0.17,3.9-1.95zm6.04,2.01c0.944-0.362,1.72-1.24,1.72-1.95,0-1.98-2.26-3.8-3.93-3.15-1.55,0.595-2.04,3.78-0.772,5.04,0.88,0.88,0.86,0.88,2.98,0.0647zm8.18-0.921c1.64-1.98,0.575-3.84-2.19-3.84-1.32,0-2.11,0.743-2.11,1.99,0,3.55,2.13,4.47,4.3,1.86zm7.44-1.49c0.258-1.75-0.213-2.36-1.83-2.36-2.85,0-3.92,1.85-2.24,3.88,1.76,2.12,3.64,1.42,4.07-1.52zm-26.9-3c0-0.263-0.761-0.478-1.69-0.478-0.93,0-1.38,0.496-1.01,1.1,0.619,1,2.7,0.521,2.7-0.624zm31.5,0c0-0.263-0.488-0.478-1.08-0.478-0.597,0-1.08,0.517-1.08,1.15,0,0.632,0.488,0.847,1.08,0.478,0.597-0.369,1.08-0.886,1.08-1.15z" fill="#000"/>
 </g>
</svg>
