<?xml version="1.0" encoding="utf-8"?>
<!-- Generator: Adobe Illustrator 22.0.1, SVG Export Plug-In . SVG Version: 6.00 Build 0)  -->
<svg version="1.0" xmlns="http://www.w3.org/2000/svg" xmlns:xlink="http://www.w3.org/1999/xlink" x="0px" y="0px" width="63px"
	 height="63px" viewBox="0 0 63 63" enable-background="new 0 0 63 63" xml:space="preserve">
<g id="Apiary_Site">
</g>
<g id="Hoarder_x2F_High_Level_Fuel_Load_1_">
</g>
<g id="Fire_Station_-_Scale_Dependent">
</g>
<g id="Fire_Station_-_Secondary">
</g>
<g id="Fire_Station_-_Main">
</g>
<g id="Police_Facility_-_Scale_Dependent">
</g>
<g id="Police_Facility_-_Secondary">
	<rect fill="#FFFFFF" width="63" height="63"/>
	<g>
		<path fill="#224099" d="M0,0v63h63V0H0z M42,43.4c-1,2.2-2.4,3.8-4.2,5C36,49.5,34,50.1,32,50.1c-1.5,0-2.8-0.3-4-0.9
			c-1.2-0.6-2.2-1.4-2.9-2.4v12.9h-4.5V23h4.1v3.4c1-1.3,2.1-2.4,3.3-3c1.2-0.7,2.7-1,4.4-1c2.3,0,4.3,0.6,6,1.7s3,2.8,3.9,4.9
			c0.9,2.1,1.3,4.4,1.3,7C43.5,38.8,43,41.2,42,43.4z"/>
		<path fill="#224099" d="M31.9,25.9c-1.9,0-3.6,0.9-5.1,2.7c-1.5,1.8-2.2,4.4-2.2,7.8c0,3.4,0.7,5.9,2.1,7.5c1.4,1.6,3,2.4,5,2.4
			c2,0,3.7-0.8,5.1-2.5c1.4-1.7,2.1-4.3,2.1-7.8c0-3.4-0.7-5.9-2.1-7.6S33.8,25.9,31.9,25.9z"/>
	</g>
</g>
<g id="Police_Facility_-_Main">
</g>
<g id="Life_Saving_Facility_-_Scale_Dependent_1_">
</g>
<g id="Life_Saving_Facility_-_Secondary">
</g>
<g id="Life_Saving_Facility_-_Main">
</g>
<g id="SES_Facility_-_Scale_Dependent">
</g>
<g id="SES_Facility_-_Secondary">
</g>
<g id="SES_Facility_-_Main">
</g>
<g id="Ambulance_Facility_-_Scale_Dependent_1_">
</g>
<g id="Ambulance_Facility_-_Secondary">
</g>
<g id="Ambulance_Facility_-_Main">
</g>
<g id="General_Observation">
</g>
</svg>
