<?xml version="1.0" encoding="utf-8"?>
<!-- Generator: Adobe Illustrator 22.0.1, SVG Export Plug-In . SVG Version: 6.00 Build 0)  -->
<svg version="1.0" xmlns="http://www.w3.org/2000/svg" xmlns:xlink="http://www.w3.org/1999/xlink" x="0px" y="0px" width="63px"
	 height="63px" viewBox="0 0 63 63" enable-background="new 0 0 63 63" xml:space="preserve">
<g id="Apiary_Site">
</g>
<g id="Hoarder_x2F_High_Level_Fuel_Load_1_">
</g>
<g id="Fire_Station_-_Scale_Dependent">
</g>
<g id="Fire_Station_-_Secondary">
</g>
<g id="Fire_Station_-_Main">
</g>
<g id="Police_Facility_-_Scale_Dependent">
</g>
<g id="Police_Facility_-_Secondary">
</g>
<g id="Police_Facility_-_Main">
	<rect x="0" y="0" fill="#FFFFFF" width="63" height="63"/>
	<g>
		<path fill="#224099" d="M0,0v63h63V0H0z M44.3,30.1c-0.8,1.5-1.8,2.7-3.1,3.6c-1.3,0.9-2.5,1.4-3.8,1.7C35.6,35.8,33,36,29.7,36
			h-4.8v13.8h-7.4V13.2h11.8c4.5,0,7.4,0.2,8.8,0.5c2.1,0.5,3.8,1.7,5.3,3.6c1.4,1.8,2.1,4.2,2.1,7.1C45.5,26.7,45.1,28.6,44.3,30.1
			z"/>
		<path fill="#224099" d="M33.8,19.7c-0.9-0.2-2.6-0.2-5.3-0.2h-3.6v10.4h4c2.9,0,4.8-0.2,5.8-0.6c1-0.4,1.7-1,2.3-1.8
			c0.6-0.8,0.8-1.8,0.8-2.8c0-1.3-0.4-2.4-1.2-3.3S34.9,19.9,33.8,19.7z"/>
	</g>
</g>
<g id="Life_Saving_Facility_-_Scale_Dependent_1_">
</g>
<g id="Life_Saving_Facility_-_Secondary">
</g>
<g id="Life_Saving_Facility_-_Main">
</g>
<g id="SES_Facility_-_Scale_Dependent">
</g>
<g id="SES_Facility_-_Secondary">
</g>
<g id="SES_Facility_-_Main">
</g>
<g id="Ambulance_Facility_-_Scale_Dependent_1_">
</g>
<g id="Ambulance_Facility_-_Secondary">
</g>
<g id="Ambulance_Facility_-_Main">
</g>
<g id="General_Observation">
</g>
</svg>
