<?xml version="1.0" encoding="UTF-8" standalone="no"?>
<!-- Created with Inkscape (http://www.inkscape.org/) -->
<svg id="svg2986" xmlns:rdf="http://www.w3.org/1999/02/22-rdf-syntax-ns#" xmlns="http://www.w3.org/2000/svg" height="64px" width="64px" version="1.1" xmlns:cc="http://creativecommons.org/ns#" xmlns:dc="http://purl.org/dc/elements/1.1/">
 <metadata id="metadata2991">
  <rdf:RDF>
   <cc:Work rdf:about="">
    <dc:format>image/svg+xml</dc:format>
    <dc:type rdf:resource="http://purl.org/dc/dcmitype/StillImage"/>
    <dc:title/>
   </cc:Work>
  </rdf:RDF>
 </metadata>
 <g id="layer2">
  <path id="path2424-7" d="m24.7,20.1a25.8,17.6,0,1,1,-51.6,0,25.8,17.6,0,1,1,51.6,0z" fill-rule="nonzero" transform="matrix(1.0849082,0,0,1.5915657,32.16263,0.97345048)" fill="#FFF"/>
 </g>
 <g id="layer1" fill="#000">
  <path id="path2991" d="M23.1,62c-14.3-4.1-22.9-16.4-21.8-31.4,0.63-8.7,3.43-14.4,9.91-20.1,15.5-13.6,39.8-7.99,47.8,11.2,2.6,6.1,2.4,16.7-0.5,23.1-6.1,13.6-21.5,21.1-35.4,17.2zm18.3-5.7c20.7-8.5,19.5-40-1.9-47.6-9.5-3.41-18.7-1.18-26.3,6.43-8.53,8.5-10.3,18.8-4.99,29.2,6.49,12.6,19.9,17.5,33.2,12z"/>
  <path id="path2396" d="m23.2,50.9c0.551-3.22,2.43-13.3,2.74-14.7,0.193-0.869,0.994-4.82,1.78-8.78,0.785-3.96,1.64-7.53,1.91-7.94,0.265-0.408,0.532-1.36,0.594-2.11l0.112-1.37h1.59,1.59l0.112,1.56c0.0634,0.884,0.346,1.73,0.652,1.95,0.545,0.396,0.741,1.29,4.13,18.8,2.6,13.3,2.7,13.6,2,13.6-0.213,0-2.1-1.58-4.18-3.51-2.09-1.93-3.96-3.51-4.17-3.51-0.205,0-2.12,1.58-4.25,3.51-2.1,1.9-4.1,3.5-4.3,3.5-0.297,0-0.374-0.364-0.241-1.14zm16-3.34c-0.252-1.11-0.725-3.24-1.05-4.74-0.326-1.5-0.685-2.72-0.796-2.72-0.424,0-3.98,3.23-3.98,3.62,0,0.537,5.7,6.22,6.03,6.02,0.142-0.0875,0.0526-1.07-0.199-2.18zm-11.1-0.777,3-2.77-1.93-1.96c-1.06-1.08-2.12-1.96-2.34-1.96-0.462,0-0.574,0.369-1.56,5.16-0.759,3.67-0.824,4.33-0.427,4.31,0.146-0.0067,1.61-1.26,3.26-2.79zm6.38-6.21c1.15-1.09,2.09-2.17,2.09-2.4,0-0.226-1.03-1.32-2.29-2.43l-2.3-2.1-2.3,2c-1.26,1.12-2.29,2.28-2.29,2.56-0.000232,0.611,3.84,4.18,4.53,4.21,0.257,0.009,1.41-0.877,2.56-1.97zm-4.97-6.27,1.56-1.58-1.19-1.22c-0.652-0.67-1.29-1.15-1.42-1.07-0.13,0.0802-0.434,1.06-0.675,2.18s-0.517,2.31-0.613,2.65c-0.313,1.1,0.733,0.667,2.34-0.964zm7.29,0.964c-0.1-0.4-0.3-1.5-0.4-2.5-0.2-1-0.4-2-0.6-2.1s-0.9,0.3-1.5,0.9l-1.1,1.09,1.56,1.58c1.65,1.68,2.28,1.98,1.99,0.97zm-2.94-5.29,1.67-1.69-0.736-3.65c-0.405-2.01-0.814-3.78-0.909-3.93-0.294-0.474-4.02-0.33-4.15,0.16-0.0648,0.241-0.369,2.02-0.676,3.95l-0.558,3.51,1.64,1.67c0.904,0.918,1.74,1.67,1.85,1.67,0.112,0,0.954-0.759,1.87-1.69zm-12.5-8.6c-0.874-1.43-1.24-3.43-0.941-5.18,0.293-1.73,1.63-4.08,2.41-4.23,0.801-0.154,0.77,0.444-0.0854,1.62-1.39,1.9-1.53,5.29-0.321,7.53,0.255,0.475,0.259,0.809,0.0115,1.06-0.248,0.246-0.586-0.0063-1.07-0.799zm20.1,0.581c0-0.266,0.256-1.09,0.57-1.84,0.739-1.76,0.471-4.51-0.624-6.4-0.899-1.56-0.691-2.27,0.379-1.31,1.85,1.66,2.37,5.74,1.1,8.54-0.661,1.45-1.42,1.99-1.42,1.01zm-16.4-1.8c-0.3-0.6-0.5-1.8-0.5-2.4,0-1.33,1.19-4.04,1.77-4.04,0.501,0,0.426,0.582-0.238,1.86-0.658,1.27-0.735,3.67-0.153,4.75,0.261,0.485,0.269,0.791,0.0251,0.941-0.199,0.122-0.596-0.337-0.883-1.02zm13.2,0.661c-0.126-0.126-0.0047-0.764,0.27-1.42,0.676-1.61,0.629-2.57-0.206-4.2s-0.827-1.58-0.253-1.58c1.5,0,2.3,5.12,1.04,6.66-0.343,0.421-0.726,0.663-0.852,0.537zm-9.75-2.35c-0.932-0.928-0.288-3.09,0.92-3.09,0.342,0,0.411,0.192,0.224,0.615-0.15,0.338-0.247,1.13-0.214,1.76,0.0616,1.2-0.224,1.42-0.929,0.72zm6.25,0.334c-0.0168-0.0483-0.076-0.839-0.132-1.76-0.0753-1.24,0.0247-1.67,0.392-1.67,0.858,0,1.28,1.73,0.654,2.68-0.484,0.736-0.821,1.01-0.914,0.743z"/>
 </g>
</svg>
