<?xml version="1.0" encoding="UTF-8" standalone="no"?>
<!-- Created with Inkscape (http://www.inkscape.org/) -->
<svg id="svg2986" xmlns:rdf="http://www.w3.org/1999/02/22-rdf-syntax-ns#" xmlns="http://www.w3.org/2000/svg" height="64px" width="64px" version="1.1" xmlns:cc="http://creativecommons.org/ns#" xmlns:dc="http://purl.org/dc/elements/1.1/">
 <metadata id="metadata2991">
  <rdf:RDF>
   <cc:Work rdf:about="">
    <dc:format>image/svg+xml</dc:format>
    <dc:type rdf:resource="http://purl.org/dc/dcmitype/StillImage"/>
    <dc:title/>
   </cc:Work>
  </rdf:RDF>
 </metadata>
 <g id="layer2">
  <path id="path2422-1" d="m-10.8,12a17.3,13.4,0,1,1,-34.6,0,17.3,13.4,0,1,1,34.6,0z" fill-rule="nonzero" transform="matrix(1.6738982,0,0,2.1721488,79.087627,6.0397315)" fill="#FFF"/>
 </g>
 <g id="layer1">
  <path id="path2386" d="M26.3,60.6c-5.8-1.2-10.3-3.7-14.7-8.1-5.71-5.7-8.57-12.5-8.6-20.4-0.03-8.2,2.76-14.7,8.9-20.8,5.9-5.88,11.9-8.3,20.2-8.3,5.33,0,9.01,0.856,13.3,3.1,5.38,2.8,10.3,7.67,12.8,12.8,2.13,4.27,2.76,7.21,2.75,13-0.0038,3.93-0.186,6.01-0.686,7.84-1.53,5.58-5.26,11.2-10,15-2.68,2.16-7.46,4.6-10.7,5.46-3.19,0.843-10.1,1.04-13.3,0.376zm12.3-4.2c4.18-0.984,7.49-2.98,11.3-6.84,2.67-2.67,3.79-4.13,4.89-6.38,3.5-7.3,3.4-15.8-0.4-23.1-1.9-3.7-6.6-8.3-10.3-10.3-9.2-4.77-20.3-3.68-28,2.78-6.31,5.2-9.73,13.1-9.16,21,0.471,6.58,2.62,11.2,7.52,16.1,3.51,3.53,7.17,5.7,11.2,6.68,2.84,0.686,9.92,0.668,12.9-0.0337zm-9.65-3.86c-0.149-0.148-0.271-2.9-0.271-6.11,0-3.86-0.144-5.93-0.424-6.1-0.244-0.151-2.27,1.58-4.78,4.08l-4.36,4.34-1.92-1.89c-1.06-1.04-1.92-2.15-1.92-2.47s1.83-2.41,4.07-4.66c2.34-2.34,3.96-4.25,3.81-4.5-0.173-0.28-2.26-0.423-6.18-0.423h-5.91v-3.06-3.06h5.91c3.91,0,6-0.143,6.18-0.423,0.151-0.243-1.47-2.16-3.81-4.5-2.24-2.24-4.07-4.32-4.07-4.63,0-0.741,3.07-3.83,3.81-3.83,0.321,0,2.44,1.84,4.7,4.1,2.71,2.7,4.25,3.97,4.5,3.72,0.208-0.208,0.427-3.04,0.485-6.29l0.106-5.92h2.87,2.87l0.106,5.92c0.0584,3.25,0.277,6.09,0.485,6.29,0.25,0.249,1.78-1.02,4.5-3.72,2.26-2.25,4.38-4.1,4.7-4.1s1.43,0.862,2.47,1.92l1.89,1.92-4.38,4.38c-2.89,2.89-4.25,4.51-4,4.76,0.208,0.208,3.05,0.426,6.31,0.484l5.93,0.106v2.87,2.87l-5.93,0.106c-3.26,0.0583-6.1,0.276-6.31,0.484-0.25,0.25,1.11,1.87,4.01,4.77l4.39,4.39-2.2,2.19-2.2,2.19-4.4-4.38c-2.9-2.89-4.53-4.25-4.78-4-0.208,0.208-0.427,3.04-0.485,6.29l-0.106,5.92-2.7,0.111c-1.48,0.0609-2.82-0.0107-2.97-0.159z" fill="#fd0404"/>
 </g>
</svg>
