<?xml version="1.0" encoding="UTF-8" standalone="no"?>
<!-- Created with Inkscape (http://www.inkscape.org/) -->
<svg id="svg3021" xmlns:rdf="http://www.w3.org/1999/02/22-rdf-syntax-ns#" xmlns="http://www.w3.org/2000/svg" height="64px" width="64px" version="1.1" xmlns:cc="http://creativecommons.org/ns#" xmlns:dc="http://purl.org/dc/elements/1.1/">
 <metadata id="metadata3026">
  <rdf:RDF>
   <cc:Work rdf:about="">
    <dc:format>image/svg+xml</dc:format>
    <dc:type rdf:resource="http://purl.org/dc/dcmitype/StillImage"/>
    <dc:title/>
   </cc:Work>
  </rdf:RDF>
 </metadata>
 <g id="layer2">
  <path id="path3754" d="m-0.545,21.1a27.6,26,0,1,1,-55.3,0,27.6,26,0,1,1,55.3,0z" fill-rule="nonzero" transform="translate(59.454545,10.909091)" fill="#FFF"/>
 </g>
 <g id="layer1">
  <path id="path3003" d="M25.5,60.1c-8.4-2.2-15.5-8-19.6-16.1-3.26-6.36-3.26-17.6,0-24,3.14-6.13,7.62-10.7,13.6-13.8,7.14-3.72,17.9-3.72,25,0,5.97,3.11,10.5,7.66,13.6,13.8,3.4,6.65,3.27,17.6-0.305,24.5-4.9,9.4-13.4,15.2-23.5,16-3.17,0.243-7.11,0.0856-8.76-0.35zm17.5-7.49c21.5-10.7,13.2-43.9-11-43.9-22.3,0-32,28.6-14.3,42,7.21,5.5,16.7,6.22,25.3,1.93zm-22.9-9.38c-1.63-6.11-5.08-21.3-5.08-22.3,0-0.529,1.28-0.961,2.84-0.961,2.77,0,2.89,0.235,4.67,8.68l1.82,8.68,1.26-4.43c0.693-2.44,1.76-6.34,2.37-8.68,1.04-3.96,1.35-4.25,4.54-4.25s3.5,0.292,4.52,4.25c0.604,2.34,1.65,6.28,2.33,8.75l1.23,4.5,1.84-8.75c1.8-8.54,1.91-8.75,4.71-8.75,1.58,0,2.87,0.324,2.87,0.72s-1.39,6.47-3.09,13.5l-3.09,12.8h-3.22-3.22l-2.36-9.17-2.36-9.17-1.22,3.51c-0.669,1.93-1.79,6.06-2.48,9.17-1.23,5.48-1.37,5.66-4.57,5.66-2.97,0-3.4-0.375-4.3-3.75z" fill="#000"/>
 </g>
</svg>
