<?xml version="1.0" encoding="utf-8"?>
<!-- Generator: Adobe Illustrator 25.0.0, SVG Export Plug-In . SVG Version: 6.00 Build 0)  -->
<svg version="1.0" id="PNG__x28_All_x29_" xmlns="http://www.w3.org/2000/svg" xmlns:xlink="http://www.w3.org/1999/xlink" x="0px"
	 y="0px" width="63px" height="63px" viewBox="0 0 63 63" enable-background="new 0 0 63 63" xml:space="preserve">
<g id="Containers_Overboard_Incident_-_Confirmed">
	<path fill="#FFFFFF" d="M2,26.6L26.6,2c1.3-1.3,3-2,4.9-2c1.9,0,3.6,0.7,4.9,2L61,26.6c1.3,1.3,2,3,2,4.9c0,1.9-0.7,3.5-2,4.9
		L36.4,61c-1.3,1.3-3,2-4.9,2c-1.9,0-3.5-0.7-4.9-2L2,36.4c-1.3-1.4-2-3-2-4.9C0,29.6,0.7,27.9,2,26.6L2,26.6z"/>
	<path d="M2,26.6L26.6,2c1.3-1.3,3-2,4.9-2c1.9,0,3.6,0.7,4.9,2L61,26.6c1.3,1.3,2,3,2,4.9c0,1.9-0.7,3.5-2,4.9L36.4,61
		c-1.3,1.3-3,2-4.9,2c-1.9,0-3.5-0.7-4.9-2L2,36.4c-1.3-1.4-2-3-2-4.9C0,29.6,0.7,27.9,2,26.6L2,26.6z M29.1,4.5L4.5,29.1
		c-0.6,0.6-1,1.4-1,2.3c0,0.9,0.3,1.7,1,2.4l24.6,24.6c0.6,0.6,1.4,1,2.3,1c0.9,0,1.7-0.3,2.4-1l24.6-24.6c0.6-0.6,1-1.5,1-2.4
		c0-0.9-0.3-1.7-1-2.3L33.9,4.5c-0.6-0.6-1.5-1-2.4-1C30.6,3.6,29.8,3.9,29.1,4.5z"/>
	<path d="M45.7,18.4C45.7,18.3,45.7,18.3,45.7,18.4c0-0.1,0-0.1,0-0.1c0,0,0,0,0-0.1c0,0,0,0,0,0c0,0,0,0,0-0.1c0,0,0,0,0,0
		c0,0,0,0,0-0.1c0,0,0,0,0,0c0,0,0,0,0,0c0,0,0,0,0,0c0,0,0,0,0,0c0,0,0,0,0,0c0,0,0,0,0,0c0,0,0,0,0-0.1c0,0,0,0,0,0c0,0,0,0,0,0
		c0,0,0,0,0,0c0,0,0,0,0,0c0,0,0,0,0,0c0,0,0,0-0.1,0c0,0,0,0,0,0c0,0,0,0-0.1,0c0,0,0,0,0,0c0,0,0,0,0,0c0,0,0,0,0,0c0,0,0,0-0.1,0
		c0,0,0,0,0,0c0,0,0,0-0.1,0c0,0,0,0,0,0c0,0,0,0-0.1,0c0,0,0,0,0,0c0,0-0.1,0-0.1,0h-16c0,0-0.1,0-0.1,0c0,0,0,0,0,0c0,0,0,0,0,0
		c0,0,0,0-0.1,0c0,0,0,0,0,0c0,0,0,0-0.1,0c0,0,0,0,0,0c0,0,0,0,0,0c0,0,0,0,0,0c0,0,0,0,0,0c0,0,0,0,0,0c0,0,0,0,0,0c0,0,0,0,0,0
		c0,0,0,0,0,0c0,0,0,0,0,0L17.6,28c0,0,0,0,0,0c0,0,0,0,0,0c0,0,0,0,0,0c0,0,0,0,0,0c0,0,0,0,0,0c0,0,0,0,0,0c0,0,0,0,0,0.1
		c0,0,0,0,0,0c0,0,0,0,0,0c0,0,0,0,0,0c0,0,0,0,0,0c0,0,0,0,0,0c0,0,0,0,0,0.1c0,0,0,0,0,0c0,0,0,0,0,0.1c0,0,0,0,0,0c0,0,0,0,0,0.1
		c0,0,0,0,0,0v16c0,0,0,0,0,0c0,0,0,0.1,0,0.1c0,0,0,0,0,0c0,0,0,0,0,0.1c0,0,0,0,0,0c0,0,0,0,0,0.1c0,0,0,0,0,0c0,0,0,0,0,0.1
		c0,0,0,0,0,0c0,0,0,0,0,0c0,0,0,0,0,0c0,0,0,0,0,0c0,0,0,0,0,0c0,0,0,0,0,0.1c0,0,0,0,0,0c0,0,0,0,0,0c0,0,0,0,0,0c0,0,0,0,0,0
		c0,0,0,0,0,0c0,0,0,0,0.1,0c0,0,0,0,0,0c0,0,0,0,0.1,0c0,0,0,0,0,0c0,0,0,0,0,0c0,0,0,0,0,0c0,0,0,0,0.1,0c0,0,0,0,0,0
		c0,0,0,0,0.1,0c0,0,0,0,0,0c0,0,0,0,0.1,0c0,0,0,0,0,0c0,0,0.1,0,0.1,0h16c0,0,0.1,0,0.1,0c0,0,0,0,0,0c0,0,0,0,0,0c0,0,0,0,0.1,0
		c0,0,0,0,0,0c0,0,0,0,0.1,0c0,0,0,0,0,0c0,0,0,0,0,0c0,0,0,0,0,0c0,0,0,0,0,0c0,0,0,0,0,0c0,0,0,0,0,0c0,0,0,0,0,0c0,0,0,0,0,0
		c0,0,0,0,0,0L45.4,35c0,0,0,0,0,0c0,0,0,0,0,0c0,0,0,0,0,0c0,0,0,0,0,0c0,0,0,0,0,0c0,0,0,0,0,0c0,0,0,0,0-0.1c0,0,0,0,0,0
		c0,0,0,0,0,0c0,0,0,0,0,0c0,0,0,0,0,0c0,0,0,0,0,0c0,0,0,0,0-0.1c0,0,0,0,0,0c0,0,0,0,0-0.1c0,0,0,0,0,0c0,0,0,0,0-0.1c0,0,0,0,0,0
		L45.7,18.4C45.7,18.4,45.7,18.4,45.7,18.4z M33.3,33.5v1.8v8.5H19v-1.2V29.5H28h5.3V33.5z M33.8,27.7H20.3l8.8-8.5h13.5L33.8,27.7z
		"/>
</g>
</svg>
