<?xml version="1.0" encoding="utf-8"?>
<!-- Generator: Adobe Illustrator 25.0.0, SVG Export Plug-In . SVG Version: 6.00 Build 0)  -->
<svg version="1.0" id="PNG__x28_All_x29_" xmlns="http://www.w3.org/2000/svg" xmlns:xlink="http://www.w3.org/1999/xlink" x="0px"
	 y="0px" width="63px" height="63px" viewBox="0 0 63 63" enable-background="new 0 0 63 63" xml:space="preserve">
<g id="Gas_Leak_-_Unconfirmed">
	<path fill="#FFFFFF" d="M2,26.6L26.6,2c1.3-1.3,3-2,4.9-2c1.9,0,3.6,0.7,4.9,2L61,26.6c1.3,1.3,2,3,2,4.9c0,1.9-0.7,3.5-2,4.9
		L36.4,61c-1.3,1.3-3,2-4.9,2c-1.9,0-3.5-0.7-4.9-2L2,36.4c-1.3-1.4-2-3-2-4.9C0,29.6,0.7,27.9,2,26.6L2,26.6z"/>
	<path d="M7.1,21.5l2.5,2.5l-5.1,5.1L2,26.6L7.1,21.5z M0.1,30.4L3.6,31c-0.1,0.9,0,1.5,0.3,2.1c0.1,0.3,0.3,0.6,0.6,0.8l1.6,1.6
		L3.6,38L2,36.4C0.4,34.7-0.2,32.7,0.1,30.4L0.1,30.4z M6.2,40.6L8.7,38l5.1,5.1l-2.5,2.5L6.2,40.6z M13.8,48.1l2.5-2.5l5.1,5.1
		l-2.5,2.5L13.8,48.1z M21.4,55.7l2.5-2.5l5.1,5.1l-2.5,2.5L21.4,55.7z M30.6,62.9l0.5-3.5c1.1,0.2,2-0.1,2.8-0.9l1.7-1.7l2.5,2.5
		L36.4,61C34.8,62.6,32.8,63.2,30.6,62.9L30.6,62.9z M40.6,56.7l-2.5-2.5l5.1-5.1l2.5,2.5L40.6,56.7z M48.2,49.2l-2.5-2.5l5.1-5.1
		l2.5,2.5L48.2,49.2z M55.8,41.6L53.3,39l5.1-5.1l2.5,2.5L55.8,41.6z M63,32.3l-3.6-0.4c0.1-0.8,0-1.4-0.3-1.9
		c-0.2-0.3-0.4-0.6-0.6-0.8l-1.8-1.8l2.5-2.5l1.8,1.8C62.5,28.1,63.2,30.1,63,32.3L63,32.3z M56.7,22.3l-2.5,2.5l-5.1-5l2.5-2.5
		L56.7,22.3z M49.1,14.7l-2.5,2.5l-5.1-5.1L44,9.7L49.1,14.7z M41.5,7.1L39,9.7l-5-5.1l2.5-2.5L41.5,7.1z M32.2,0l-0.4,3.5
		c-1.3-0.1-2.2,0.2-2.7,1l-1.8,1.8l-2.5-2.5L26.6,2C28.4,0.7,29.8-0.2,32.2,0L32.2,0z M22.3,6.4l2.5,2.5l-5.1,5.1l-2.5-2.5L22.3,6.4
		z M14.7,13.9l2.5,2.5l-5.1,5.1L9.6,19L14.7,13.9z"/>
	<path d="M21.5,21.2c0,0,0.2-1.6,1-3.2c0.8-1.4,2.2-2.8,4.6-3c0,0,4.6,0.6,4.7,3.1c0,0,6.6-3.4,10.3,1.4c0,0,1.8,1.6,2.3,6.3
		c0,0,6.5,2.4,3.6,9.2c0,0-1.3,4.2-5.8,3.8c0,0-4.3-2.3-5.8-0.7c0,0-1.1,0.9-1.1,2.7c0,1.3,0.8,3.1,0.2,3.7c-1.2,1.2-1,4.7-0.9,6.4
		c0,0-3.1,1.3-4.1-3.7c0,0-2.1,0.5-3.1-1.4c-0.5-0.9-1.1-1.9-1.3-3.4c0,0-0.5-1.5-0.5-4.4c0,0-3.2,0.5-4.9-3.4c0,0-1.7,0.3-3.3-0.6
		c-1.2-0.6-2.3-1.9-2.8-4.4c0,0-0.3-1.5-0.2-3.1c0.1-1.5,0.5-3.1,1.8-3.7C16.2,22.9,17.7,20.6,21.5,21.2z"/>
</g>
</svg>
