<?xml version="1.0" encoding="utf-8"?>
<!-- Generator: Adobe Illustrator 25.0.0, SVG Export Plug-In . SVG Version: 6.00 Build 0)  -->
<svg version="1.0" id="PNG__x28_All_x29_" xmlns="http://www.w3.org/2000/svg" xmlns:xlink="http://www.w3.org/1999/xlink" x="0px"
	 y="0px" width="63px" height="63px" viewBox="0 0 63 63" enable-background="new 0 0 63 63" xml:space="preserve">
<g id="Gas_Leak_-_Confirmed">
	<path fill="#FFFFFF" d="M2,26.6L26.6,2c1.3-1.3,3-2,4.9-2c1.9,0,3.6,0.7,4.9,2L61,26.6c1.3,1.3,2,3,2,4.9c0,1.9-0.7,3.5-2,4.9
		L36.4,61c-1.3,1.3-3,2-4.9,2c-1.9,0-3.5-0.7-4.9-2L2,36.4c-1.3-1.4-2-3-2-4.9C0,29.6,0.7,27.9,2,26.6L2,26.6z"/>
	<path d="M2,26.6L26.6,2c1.3-1.3,3-2,4.9-2c1.9,0,3.6,0.7,4.9,2L61,26.6c1.3,1.3,2,3,2,4.9c0,1.9-0.7,3.5-2,4.9L36.4,61
		c-1.3,1.3-3,2-4.9,2c-1.9,0-3.5-0.7-4.9-2L2,36.4c-1.3-1.4-2-3-2-4.9C0,29.6,0.7,27.9,2,26.6L2,26.6z M29.1,4.5L4.5,29.1
		c-0.6,0.6-1,1.4-1,2.3c0,0.9,0.3,1.7,1,2.4l24.6,24.6c0.6,0.6,1.4,1,2.3,1c0.9,0,1.7-0.3,2.4-1l24.6-24.6c0.6-0.6,1-1.5,1-2.4
		c0-0.9-0.3-1.7-1-2.3L33.9,4.5c-0.6-0.6-1.5-1-2.4-1C30.6,3.6,29.8,3.9,29.1,4.5z"/>
	<path d="M21.5,21.2c0,0,0.2-1.6,1-3.2c0.8-1.4,2.2-2.8,4.6-3c0,0,4.6,0.6,4.7,3.1c0,0,6.6-3.4,10.3,1.4c0,0,1.8,1.6,2.3,6.3
		c0,0,6.5,2.4,3.6,9.2c0,0-1.3,4.2-5.8,3.8c0,0-4.3-2.3-5.8-0.7c0,0-1.1,0.9-1.1,2.7c0,1.3,0.8,3.1,0.2,3.7c-1.2,1.2-1,4.7-0.9,6.4
		c0,0-3.1,1.3-4.1-3.7c0,0-2.1,0.5-3.1-1.4c-0.5-0.9-1.1-1.9-1.3-3.4c0,0-0.5-1.5-0.5-4.4c0,0-3.2,0.5-4.9-3.4c0,0-1.7,0.3-3.3-0.6
		c-1.2-0.6-2.3-1.9-2.8-4.4c0,0-0.3-1.5-0.2-3.1c0.1-1.5,0.5-3.1,1.8-3.7C16.2,22.9,17.7,20.6,21.5,21.2z"/>
</g>
</svg>
