<?xml version="1.0" encoding="utf-8"?>
<!-- Generator: Adobe Illustrator 25.0.0, SVG Export Plug-In . SVG Version: 6.00 Build 0)  -->
<svg version="1.0" id="PNG__x28_All_x29_" xmlns="http://www.w3.org/2000/svg" xmlns:xlink="http://www.w3.org/1999/xlink" x="0px"
	 y="0px" width="63px" height="63px" viewBox="0 0 63 63" enable-background="new 0 0 63 63" xml:space="preserve">
<g id="Oil_Spill_Incident_-_Confirmed">
	<path fill="#FFFFFF" d="M2,26.6L26.6,2c1.3-1.3,3-2,4.9-2c1.9,0,3.6,0.7,4.9,2L61,26.6c1.3,1.3,2,3,2,4.9c0,1.9-0.7,3.5-2,4.9
		L36.4,61c-1.3,1.3-3,2-4.9,2c-1.9,0-3.5-0.7-4.9-2L2,36.4c-1.3-1.4-2-3-2-4.9C0,29.6,0.7,27.9,2,26.6L2,26.6z"/>
	<path d="M2,26.6L26.6,2c1.3-1.3,3-2,4.9-2c1.9,0,3.6,0.7,4.9,2L61,26.6c1.3,1.3,2,3,2,4.9c0,1.9-0.7,3.5-2,4.9L36.4,61
		c-1.3,1.3-3,2-4.9,2c-1.9,0-3.5-0.7-4.9-2L2,36.4c-1.3-1.4-2-3-2-4.9C0,29.6,0.7,27.9,2,26.6L2,26.6z M29.1,4.5L4.5,29.1
		c-0.6,0.6-1,1.4-1,2.3c0,0.9,0.3,1.7,1,2.4l24.6,24.6c0.6,0.6,1.4,1,2.3,1c0.9,0,1.7-0.3,2.4-1l24.6-24.6c0.6-0.6,1-1.5,1-2.4
		c0-0.9-0.3-1.7-1-2.3L33.9,4.5c-0.6-0.6-1.5-1-2.4-1C30.6,3.6,29.8,3.9,29.1,4.5z"/>
	<path d="M42.2,39.8c0,1.4-0.3,2.7-0.8,4C40.8,45,40,46.1,39,47c-1,0.9-2.1,1.7-3.4,2.2C34.3,49.7,33,50,31.5,50
		c-1.5,0-2.9-0.3-4.2-0.8c-1.3-0.5-2.4-1.3-3.4-2.2c-1-0.9-1.7-2-2.3-3.3c-0.6-1.2-0.8-2.6-0.8-4c0-0.4,0-0.8,0.1-1.1
		c0-0.4,0.1-0.7,0.1-1v-0.1c0.2-0.7,0.2-1.5,0.7-2.5c0.5-1,1.1-2.1,1.8-3.3c0.7-1.2,1.5-2.5,2.4-4c0.9-1.4,1.7-3,2.4-4.5
		c0.8-1.6,1.4-3.2,2-5c0.6-1.7,0.9-3.5,1.1-5.2l0,0.3c0.2,1.9,0.7,3.7,1.3,5.4c0.6,1.7,1.3,3.4,2.1,5c0.8,1.6,1.6,3,2.4,4.4
		c0.8,1.4,1.6,2.7,2.3,3.8c0.7,1.2,1.3,2.2,1.7,3.1c0.4,0.9,0.4,1.5,0.7,2.4l0.2,0.5l0.1,0.7V39.8z"/>
</g>
</svg>
