<?xml version="1.0" encoding="UTF-8" standalone="no"?>
<!-- Created with Inkscape (http://www.inkscape.org/) -->
<svg id="svg3013" xmlns:rdf="http://www.w3.org/1999/02/22-rdf-syntax-ns#" xmlns="http://www.w3.org/2000/svg" height="64px" width="64px" version="1.1" xmlns:cc="http://creativecommons.org/ns#" xmlns:dc="http://purl.org/dc/elements/1.1/">
 <metadata id="metadata3018">
  <rdf:RDF>
   <cc:Work rdf:about="">
    <dc:format>image/svg+xml</dc:format>
    <dc:type rdf:resource="http://purl.org/dc/dcmitype/StillImage"/>
    <dc:title/>
   </cc:Work>
  </rdf:RDF>
 </metadata>
 <g id="layer2">
  <path id="path3058" d="m-44.909,13a28,27.545,0,1,1,-56,0,28,27.545,0,1,1,56,0z" transform="matrix(1.0386522,2.6454353e-4,-0.05964873,1.058469,108.50262,18.259191)" fill="#FFF"/>
 </g>
 <g id="layer1">
  <path id="path2995" d="M26.154,62.563c-14.722-2.273-25.09-14.973-25.09-30.731,0-17.8,13.125-30.832,31.053-30.832,17.53,0,30.818,13.367,30.818,31,0,19.833-16.655,33.672-36.782,30.564zm17.493-6.8314c4.329-2.238,9.771-7.671,11.997-11.974,2.725-5.27,3.215-15.276,1.028-21.002-2.382-6.237-9.255-13.11-15.493-15.492-5.725-2.1867-15.732-1.6968-21.001,1.0282-16.07,8.3102-19.323,29.572-6.457,42.199,2.6163,2.5677,6.6756,5.3826,9.0207,6.2553,5.2627,1.9585,16.181,1.4288,20.905-1.0143zm-21.791-9.708c1.8909-1.8909,1.6598-8.1791-0.32869-8.9421-0.9039-0.34686-1.6598-1.2624-1.6799-2.0346-0.06793-2.6172-4.13-6.3343-6.9222-6.3343-3.9084,0-4.6319-1.9228-1.8411-4.8934,1.7943-1.9099,2.0266-2.6905,0.93651-3.1468-0.79731-0.33376,0.38476-0.53358,2.6268-0.44405,2.2421,0.08952,4.2871,0.71162,4.5445,1.3824,0.30887,0.80491,5.5919,1.2641,15.536,1.3503,16.622,0.14407,16.884,0.25325,16.912,7.0565,0.0087,2.2242,0.51785,4.3536,1.1303,4.7321,0.61243,0.3785,0.7648,1.2524,0.33861,1.942-0.48257,0.78081-1.2472,0.09828-2.0269-1.8093-1.1103-2.7164-1.2417-2.2282-1.1603,4.3146,0.05993,4.8202-0.36324,7.5351-1.2207,7.8318-0.92526,0.32017-1.132-0.65723-0.70096-3.3135,0.8327-5.1314-1.3319-6.11-2.9137-1.3173-0.69789,2.1146-1.9982,3.8448-2.8895,3.8448-1.4049,0-1.3936-0.32411,0.08503-2.435,2.3075-3.2945,2.1581-5.1476-0.36204-4.4885-1.1372,0.29738-2.3989,0.0047-2.8037-0.65039-0.40487-0.65509-2.9257-1.1911-5.6018-1.1911h-4.8657v4.3825c0,2.9667-0.48183,4.3825-1.4915,4.3825-1.0135,0-1.3371-0.96573-1.0099-3.013,0.37648-2.3551,0.22734-2.6541-0.68297-1.3695-0.64055,0.9039-1.1722,2.5063-1.1814,3.5608-0.0087,1.0676-0.84229,1.9174-1.8794,1.9174-1.4487,0-1.5704-0.29217-0.54782-1.3148zm28.272-19.206c-0.36407-0.36407-0.62302,0.28304-0.57545,1.438,0.05259,1.2763,0.31219,1.536,0.66195,0.66194,0.31649-0.79091,0.27757-1.7359-0.08656-2.1z" fill="#000"/>
 </g>
</svg>
