<?xml version="1.0" encoding="UTF-8" standalone="no"?>
<!-- Created with Inkscape (http://www.inkscape.org/) -->
<svg id="svg3024" xmlns:rdf="http://www.w3.org/1999/02/22-rdf-syntax-ns#" xmlns="http://www.w3.org/2000/svg" height="64px" width="64px" version="1.1" xmlns:cc="http://creativecommons.org/ns#" xmlns:dc="http://purl.org/dc/elements/1.1/">
 <metadata id="metadata3029">
  <rdf:RDF>
   <cc:Work rdf:about="">
    <dc:format>image/svg+xml</dc:format>
    <dc:type rdf:resource="http://purl.org/dc/dcmitype/StillImage"/>
    <dc:title/>
   </cc:Work>
  </rdf:RDF>
 </metadata>
 <g id="layer2">
  <path id="path3058" d="m-23.6-6.18a33.4,28.5,0,1,1,-66.7,0,33.4,28.5,0,1,1,66.7,0z" transform="matrix(0.91825612,0,0,1.0891721,84.158782,38.914883)" fill="#FFF"/>
 </g>
 <g id="layer1">
  <path id="path2991" d="m8.72,41.5c0-0.438,1.18-0.572,2.61-0.297,1.44,0.275,2.93-0.0218,3.33-0.659,0.498-0.807,1.55-0.78,3.45,0.0863,1.98,0.902,3.06,0.914,3.93,0.0434,0.843-0.843,1.94-0.863,3.69-0.0681,1.67,0.763,3.13,0.773,4.45,0.0324,1.35-0.756,2.59-0.711,3.96,0.142,1.45,0.906,2.51,0.917,3.91,0.0411,1.4-0.872,2.45-0.871,3.83,0.0024,1.39,0.879,2.45,0.868,3.9-0.0411,1.32-0.823,2.63-0.89,3.86-0.199,1.03,0.575,2.91,0.716,4.18,0.314,1.37-0.434,2.04-0.304,1.66,0.319-0.756,1.22-46.8,1.5-46.8,0.284zm0.548-5.49c-0.383-0.619,0.515-1.1,2.06-1.1,1.51,0,3.06-0.517,3.45-1.15,0.443-0.716,1.19-0.768,1.98-0.137,1.67,1.33,21.4,1.34,22.2,0.0144,0.388-0.627,1.15-0.598,1.96,0.0748,0.73,0.606,4.37,0.998,8.09,0.871,5.98-0.204,6.58-0.0422,5.14,1.4-1.33,1.33-2.03,1.38-3.8,0.269-1.65-1.03-2.66-1.06-4.19-0.0993-1.42,0.885-2.62,0.923-4.04,0.126-1.42-0.794-2.62-0.761-4.01,0.11-1.48,0.926-2.5,0.926-3.98,0-1.4-0.872-2.59-0.905-4.01-0.11-1.43,0.802-2.64,0.75-4.13-0.18-1.63-1.02-2.46-1.02-3.69,0.0078-1.19,0.989-2.26,1.02-4.26,0.104-1.68-0.764-2.91-0.824-3.32-0.161-0.856,1.39-4.59,1.36-5.46-0.0413zm9.5-4.57c-0.101-1.61-0.782-3.12-1.51-3.37-0.795-0.265,0.829-2.94,4.05-6.67,5.26-6.09,5.5-6.23,11.1-6.23,5.48,0,5.93,0.227,10.2,5.21,4.36,5.09,5.58,7.95,3.38,7.95-0.603,0-1.17,1.36-1.26,3.01l-0.2,3.2-0.5-3.1c-0.408-2.69-0.913-3.01-4.7-3.01-3.8,0-4.28,0.312-4.63,3.01-0.306,2.39-0.495,2.07-0.917-1.57-0.425-3.66-0.247-4.35,0.887-3.41,0.78,0.648,1.7,0.892,2.05,0.543,0.726-0.726-7.28-10.6-8.59-10.6-1.56,0-0.91,1.47,2.15,4.87l3.01,3.35-3.35-3.01-3.35-3.01-3.43,3.56c-2.38,2.47-3.57,4.91-3.87,7.95-0.262,2.64-0.509,3.22-0.62,1.46z" fill="#000"/>
 </g>
 <g id="layer3">
  <path id="path3058-7" d="m-23.6-6.18a33.4,28.5,0,1,1,-66.7,0,33.4,28.5,0,1,1,66.7,0z" transform="matrix(0.85960489,0,0,1.0087779,80.997479,38.236081)" stroke-dashoffset="11.14730271" stroke="#000" stroke-dasharray="10.61647877, 5.30823939" stroke-miterlimit="4" stroke-width="5.30823946" fill="none"/>
 </g>
</svg>
