<?xml version="1.0" encoding="UTF-8" standalone="no"?>
<!-- Created with Inkscape (http://www.inkscape.org/) -->
<svg id="svg3013" xmlns:rdf="http://www.w3.org/1999/02/22-rdf-syntax-ns#" xmlns="http://www.w3.org/2000/svg" height="64px" width="64px" version="1.1" xmlns:cc="http://creativecommons.org/ns#" xmlns:dc="http://purl.org/dc/elements/1.1/">
 <metadata id="metadata3018">
  <rdf:RDF>
   <cc:Work rdf:about="">
    <dc:format>image/svg+xml</dc:format>
    <dc:type rdf:resource="http://purl.org/dc/dcmitype/StillImage"/>
    <dc:title/>
   </cc:Work>
  </rdf:RDF>
 </metadata>
 <g id="layer2">
  <path id="path3040" d="m76,39.273a32.273,27.091,0,1,1,-64.545,0,32.273,27.091,0,1,1,64.545,0z" transform="matrix(0.88732395,0,0,1.0268456,-6.8002557,-8.3270279)" fill="#FFF"/>
 </g>
 <g id="layer1">
  <path id="path2989" d="M20.415,61.288c-11.044-3.917-19.162-15.893-19.162-28.266,0-27.764,34.441-40.688,52.812-19.819,10.159,11.541,10.159,28.096,0,39.637-6.1251,6.9584-13.244,10.181-22.277,10.085-3.8302-0.04076-8.9478-0.77767-11.372-1.6376zm22.86-5.284c19.283-9.609,18.547-37.684-1.223-46.663-5.413-2.4582-15.317-2.6356-20.745-0.3714-9.557,3.9854-15.69,13.387-15.69,24.052,0,7.9642,2.3347,13.409,8.1301,18.961,7.6694,7.3467,19.595,8.9712,29.527,4.0219zm4.5831-16.554c0-4.9998-0.35714-6.4283-1.6071-6.4283-0.99997,0-1.6071,1.0119-1.6071,2.6785v2.6785h-13.705-13.705l-4.7765-4.9472-4.7765-4.9472,18.481,0.54229c17.595,0.51628,18.481,0.44526,18.481-1.4812,0-1.6464,0.7985-2.0234,4.2856-2.0234,4.1835,0,4.2855,0.08928,4.2855,3.7499,0,2.6189-0.48468,3.7499-1.6071,3.7499-1.2142,0-1.6071,1.3095-1.6071,5.3569,0,2.9463,0.48212,5.3569,1.0714,5.3569,0.58926,0,1.0714,0.48212,1.0714,1.0714,0,0.58926-0.96425,1.0714-2.1428,1.0714-1.9047,0-2.1428-0.71426-2.1428-6.4283zm-4.821-5.893c0-2.0151-0.81421-2.1606-13.66-2.4426-7.5131-0.16492-13.66,0.03818-13.66,0.45133s0.81145,1.6478,1.8032,2.7437c1.5862,1.7527,3.2303,1.9563,13.66,1.6914,11.042-0.28041,11.857-0.44832,11.857-2.4439z" fill="#000"/>
 </g>
</svg>
