<?xml version="1.0" encoding="UTF-8" standalone="no"?>
<!-- Created with Inkscape (http://www.inkscape.org/) -->
<svg id="svg3013" xmlns:rdf="http://www.w3.org/1999/02/22-rdf-syntax-ns#" xmlns="http://www.w3.org/2000/svg" height="64px" width="64px" version="1.1" xmlns:cc="http://creativecommons.org/ns#" xmlns:dc="http://purl.org/dc/elements/1.1/">
 <metadata id="metadata3018">
  <rdf:RDF>
   <cc:Work rdf:about="">
    <dc:format>image/svg+xml</dc:format>
    <dc:type rdf:resource="http://purl.org/dc/dcmitype/StillImage"/>
    <dc:title/>
   </cc:Work>
  </rdf:RDF>
 </metadata>
 <g id="layer2">
  <path id="path3040" d="m76,39.273a32.273,27.091,0,1,1,-64.545,0,32.273,27.091,0,1,1,64.545,0z" transform="matrix(0.88732395,0,0,1.0268456,-6.8002557,-8.3270279)" fill="#FFF"/>
 </g>
 <g id="layer1">
  <path id="path2989" d="m47.312,39.632c0-4.9998-0.35714-6.4283-1.6071-6.4283-0.99997,0-1.6071,1.0119-1.6071,2.6785v2.6785h-13.705-13.705l-4.7765-4.9472-4.7765-4.9472,18.481,0.54229c17.595,0.51628,18.481,0.44526,18.481-1.4812,0-1.6464,0.7985-2.0234,4.2856-2.0234,4.1835,0,4.2855,0.08928,4.2855,3.7499,0,2.6189-0.48468,3.7499-1.6071,3.7499-1.2142,0-1.6071,1.3095-1.6071,5.3569,0,2.9463,0.48212,5.3569,1.0714,5.3569,0.58926,0,1.0714,0.48212,1.0714,1.0714,0,0.58926-0.96425,1.0714-2.1428,1.0714-1.9047,0-2.1428-0.71426-2.1428-6.4283zm-4.8212-5.8926c0-2.0151-0.81421-2.1606-13.66-2.4426-7.5131-0.16492-13.66,0.03818-13.66,0.45133s0.81145,1.6478,1.8032,2.7437c1.5862,1.7527,3.2303,1.9563,13.66,1.6914,11.042-0.28041,11.857-0.44832,11.857-2.4439z" fill="#000"/>
 </g>
 <g id="layer3">
  <path id="path3022" d="m-45.818,33.909a21.545,31.545,0,1,1,-43.091,0,21.545,31.545,0,1,1,43.091,0z" transform="matrix(1.3157888,0,0.00517971,0.88715118,120.46068,1.9175091)" stroke-dashoffset="19.251804" stroke="#000" stroke-dasharray="11.847264, 2.961816" stroke-miterlimit="4" stroke-width="2.96181607" fill="none"/>
 </g>
</svg>
