<?xml version="1.0" encoding="UTF-8" standalone="no"?>
<!-- Created with Inkscape (http://www.inkscape.org/) -->

<svg
   xmlns:dc="http://purl.org/dc/elements/1.1/"
   xmlns:cc="http://creativecommons.org/ns#"
   xmlns:rdf="http://www.w3.org/1999/02/22-rdf-syntax-ns#"
   xmlns:svg="http://www.w3.org/2000/svg"
   xmlns="http://www.w3.org/2000/svg"
   xmlns:sodipodi="http://sodipodi.sourceforge.net/DTD/sodipodi-0.dtd"
   xmlns:inkscape="http://www.inkscape.org/namespaces/inkscape"
   id="svg3944"
   height="64px"
   width="64px"
   version="1.1"
   inkscape:version="0.48.2 r9819"
   sodipodi:docname="Flood.svg">
  <defs
     id="defs12" />
  <sodipodi:namedview
     pagecolor="#ffffff"
     bordercolor="#666666"
     borderopacity="1"
     objecttolerance="10"
     gridtolerance="10"
     guidetolerance="10"
     inkscape:pageopacity="0"
     inkscape:pageshadow="2"
     inkscape:window-width="640"
     inkscape:window-height="480"
     id="namedview10"
     showgrid="false"
     inkscape:zoom="3.6875"
     inkscape:cx="32"
     inkscape:cy="32"
     inkscape:window-x="0"
     inkscape:window-y="0"
     inkscape:window-maximized="0"
     inkscape:current-layer="svg3944" />
  <metadata
     id="metadata3949">
    <rdf:RDF>
      <cc:Work
         rdf:about="">
        <dc:format>image/svg+xml</dc:format>
        <dc:type
           rdf:resource="http://purl.org/dc/dcmitype/StillImage" />
        <dc:title />
      </cc:Work>
    </rdf:RDF>
  </metadata>
  <g
     id="layer9"
     fill="#0F0"
     transform="translate(1.3559319,-0.27118641)"
     style="fill:#ffffff">
    <g
       id="layer1-8-1"
       fill="#0F0"
       transform="matrix(1.0337687,0,0,1.0337687,-87.426568,-14.670276)"
       style="fill:#ffffff">
      <path
         id="path2993-8-7"
         fill="#0F0"
         d="M101,59.8c-10.1-10-12.1-12.4-12.1-14.7,0-2.34,1.94-4.73,11.9-14.7,10-9.92,12.4-11.9,14.7-11.9,2.34,0,4.73,1.94,14.7,11.9,9.8,9.89,11.9,12.4,11.9,14.7,0,2.28-2.05,4.8-11.9,14.7-9.99,9.99-12.4,11.9-14.7,11.9-2.31,0-4.76-1.99-14.7-11.9zm26.4-29.5,4.61,4.56c2.12,1.53-8.73,11.7-8.34,11.7,0.397,0,2.48-8.39,4-9.67,7.68-6.89,8.75,1.41,11.5,5.19,6.2,3.66,0.584,1.54-10.7-9.71-6.63-6.91-11.5-11-12.7-11-2.39,0-5.95,6.21-5.39,7.99,0.279,0.836-10.7,6.48-9.55,4.78,3.26-4.76,12.9-16.7,16.6-12.1,7.95,5.92,0.26-0.682,9.94,8.35z"
         style="fill:#ffffff" />
    </g>
  </g>
  <g
     id="layer1">
    <g
       id="layer1-2"
       transform="matrix(1.0175439,0,0,1.0175439,82.497772,0.13535421)">
      <path
         id="path2993-4"
         d="m-65.4,47c-10.6-10.7-12.7-13.3-12.7-15.8,0-2.51,2.08-5.07,12.8-15.7s13.3-12.7,15.8-12.7c2.51,0,5.07,2.08,15.7,12.8,10.5,10.6,12.7,13.3,12.7,15.7,0,2.44-2.2,5.14-12.8,15.7-10.7,10.7-13.3,12.8-15.8,12.8-2.48,0-5.1-2.13-15.7-12.8zm11.9-17.2,3.4-2.99,4.13,2.99c2.27,1.64,4.48,2.99,4.9,2.99,0.425,0,2.11-1.12,3.74-2.5,3.62-3.04,5.04-3.1,9.63-0.401,6.64,3.92,3.88-0.249-8.18-12.3-7.1-7.4-12.3-11.8-13.6-11.8-2.56,0-25.9,23.2-25.3,25.1,0.299,0.896,1.04,0.434,2.24-1.39,2.24-3.42,3.12-3.39,7.99,0.298,4.93,3.73,6.94,3.73,11.2-0.0174z"
         fill="#000" />
    </g>
  </g>
</svg>
