<?xml version="1.0" encoding="UTF-8" standalone="no"?>
<!-- Created with Inkscape (http://www.inkscape.org/) -->
<svg id="svg3024" xmlns:rdf="http://www.w3.org/1999/02/22-rdf-syntax-ns#" xmlns="http://www.w3.org/2000/svg" height="64px" width="64px" version="1.1" xmlns:cc="http://creativecommons.org/ns#" xmlns:dc="http://purl.org/dc/elements/1.1/">
 <metadata id="metadata3029">
  <rdf:RDF>
   <cc:Work rdf:about="">
    <dc:format>image/svg+xml</dc:format>
    <dc:type rdf:resource="http://purl.org/dc/dcmitype/StillImage"/>
    <dc:title/>
   </cc:Work>
  </rdf:RDF>
 </metadata>
 <g id="layer2">
  <path id="path3058" d="m-23.636-6.1818a33.364,28.545,0,1,1,-66.727,0,33.364,28.545,0,1,1,66.727,0z" transform="matrix(0.79291552,0,0,0.93630573,77.196185,37.788072)" fill="#FFF"/>
 </g>
 <g id="layer1">
  <path id="path2991" d="M23.853,61.93c-14.775-4.152-23.671-16.926-22.56-32.394,0.646-8.999,3.5429-14.889,10.209-20.757,16.032-14.112,41.112-8.2817,49.456,11.496,2.664,6.317,2.406,17.295-0.563,23.942-6.27,14.039-22.179,21.75-36.542,17.713zm18.853-5.831c21.444-8.815,20.178-41.353-1.916-49.238-9.872-3.5228-19.336-1.2167-27.174,6.6216-8.8273,8.827-10.652,19.487-5.1705,30.209,6.6555,13.019,20.54,18.047,34.26,12.407zm-33.986-14.618c0-0.43807,1.1756-0.57176,2.6124-0.2971s2.9345-0.02182,3.3282-0.65886c0.49847-0.80655,1.5452-0.78035,3.4473,0.08628,1.9798,0.90205,3.062,0.914,3.9325,0.04344,0.84308-0.84307,1.9423-0.86336,3.6878-0.06809,1.6736,0.76253,3.1298,0.77312,4.4534,0.03239,1.3509-0.75603,2.5898-0.71148,3.9569,0.14227,1.4507,0.906,2.5118,0.91713,3.9146,0.04107,1.396-0.87179,2.4486-0.87114,3.8334,0.0024,1.3937,0.8791,2.4473,0.86801,3.903-0.04108,1.3171-0.82257,2.6284-0.8902,3.8631-0.19923,1.028,0.57532,2.9077,0.71641,4.177,0.31354,1.3674-0.434,2.0431-0.30406,1.6581,0.31889-0.75605,1.2233-46.768,1.5028-46.768,0.28405zm0.54817-5.4859c-0.3827-0.61923,0.51522-1.0963,2.0633-1.0963,1.5075,0,3.0606-0.51731,3.4513-1.1496,0.44266-0.71625,1.1903-0.76806,1.9833-0.13746,1.6719,1.3295,21.392,1.3423,22.212,0.01444,0.38778-0.62744,1.1504-0.59836,1.9615,0.0748,0.72988,0.60575,4.3706,0.99764,8.0904,0.87087,5.9809-0.20382,6.5751-0.04216,5.1357,1.3972-1.3279,1.3279-2.0283,1.3775-3.8027,0.26942-1.6546-1.0333-2.6573-1.0571-4.191-0.09928-1.4173,0.88511-2.617,0.92267-4.0397,0.12647-1.4192-0.79422-2.6182-0.76126-4.0139,0.11035-1.4832,0.92629-2.4971,0.92629-3.9804,0-1.3957-0.87161-2.5947-0.90458-4.0139-0.11035-1.4339,0.80244-2.6364,0.74994-4.1256-0.18012-1.6337-1.0202-2.4563-1.0185-3.693,0.0078-1.1918,0.98909-2.2609,1.0153-4.2603,0.10428-1.6765-0.76382-2.9118-0.82377-3.3213-0.16115-0.85628,1.3855-4.5918,1.3572-5.4562-0.04134zm9.5032-4.5681c-0.10141-1.608-0.78242-3.123-1.5134-3.3666-0.79542-0.26514,0.82942-2.9433,4.0463-6.6694,5.2599-6.0925,5.4988-6.2264,11.111-6.2264,5.485,0,5.9305,0.22746,10.199,5.2076,4.3642,5.0916,5.5795,7.9485,3.3814,7.9485-0.60299,0-1.1703,1.3567-1.2606,3.015l-0.164,3.013-0.456-3.015c-0.40759-2.6905-0.91292-3.015-4.6965-3.015-3.8009,0-4.2796,0.3121-4.6251,3.015-0.30592,2.3937-0.49485,2.0704-0.91688-1.5694-0.42492-3.6647-0.24695-4.3481,0.88717-3.4069,0.7803,0.64759,1.7043,0.89188,2.0533,0.54285,0.72641-0.7264-7.2811-10.641-8.5942-10.641-1.5605,0-0.91028,1.4733,2.1508,4.8736l3.015,3.349-3.3485-3.0145-3.3485-3.0145-3.432,3.5626c-2.3804,2.471-3.5654,4.9064-3.8675,7.948-0.26234,2.6417-0.50878,3.2229-0.61981,1.4618z" fill="#000"/>
 </g>
</svg>
