<?xml version="1.0" encoding="utf-8"?>
<!-- Generator: Adobe Illustrator 22.0.1, SVG Export Plug-In . SVG Version: 6.00 Build 0)  -->
<svg version="1.0" xmlns="http://www.w3.org/2000/svg" xmlns:xlink="http://www.w3.org/1999/xlink" x="0px" y="0px" width="63px"
	 height="63px" viewBox="0 0 63 63" enable-background="new 0 0 63 63" xml:space="preserve">
<g id="Apiary_Site">
</g>
<g id="Hoarder_x2F_High_Level_Fuel_Load_1_">
</g>
<g id="Fire_Station_-_Scale_Dependent">
</g>
<g id="Fire_Station_-_Secondary">
</g>
<g id="Fire_Station_-_Main">
</g>
<g id="Police_Facility_-_Scale_Dependent">
</g>
<g id="Police_Facility_-_Secondary">
</g>
<g id="Police_Facility_-_Main">
</g>
<g id="Life_Saving_Facility_-_Scale_Dependent_1_">
</g>
<g id="Life_Saving_Facility_-_Secondary">
</g>
<g id="Life_Saving_Facility_-_Main">
</g>
<g id="SES_Facility_-_Scale_Dependent">
</g>
<g id="SES_Facility_-_Secondary">
	<rect fill="#FFFFFF" width="63" height="63"/>
	<path fill="#FBCB19" d="M0,0v63h63V0H0z M41.3,46.3c-0.9,1.3-2.1,2.3-3.8,3.1c-1.6,0.7-3.5,1.1-5.6,1.1c-3.4,0-6.1-0.7-7.9-2.1
		s-3-3.5-3.4-6.4l4.4-0.7c0.2,1.8,0.9,3.1,2.1,4.1c1.1,0.9,2.7,1.4,4.8,1.4c2.1,0,3.6-0.4,4.6-1.3c1-0.8,1.5-1.8,1.5-3
		c0-1-0.4-1.8-1.3-2.4c-0.6-0.4-2.1-0.9-4.6-1.5c-3.3-0.8-5.6-1.5-6.8-2.2C24,35.9,23,35.1,22.4,34c-0.7-1.1-1-2.3-1-3.5
		c0-1.2,0.3-2.3,0.8-3.3s1.3-1.8,2.2-2.5c0.7-0.5,1.6-1,2.9-1.3c1.2-0.4,2.5-0.5,3.9-0.5c2.1,0,3.9,0.3,5.5,0.9
		c1.6,0.6,2.7,1.4,3.5,2.4c0.7,1,1.3,2.4,1.5,4.1l-4.4,0.6c-0.2-1.4-0.8-2.4-1.7-3.2c-1-0.8-2.3-1.1-4-1.1c-2.1,0-3.5,0.3-4.4,1
		c-0.9,0.7-1.3,1.5-1.3,2.4c0,0.6,0.2,1.1,0.5,1.6c0.4,0.5,0.9,0.9,1.7,1.2c0.4,0.2,1.8,0.5,4,1.1c3.2,0.8,5.4,1.5,6.6,2.1
		c1.3,0.5,2.2,1.3,3,2.4s1.1,2.3,1.1,3.8C42.6,43.6,42.2,45,41.3,46.3z"/>
</g>
<g id="SES_Facility_-_Main">
</g>
<g id="Ambulance_Facility_-_Scale_Dependent_1_">
</g>
<g id="Ambulance_Facility_-_Secondary">
</g>
<g id="Ambulance_Facility_-_Main">
</g>
<g id="General_Observation">
</g>
</svg>
