<?xml version="1.0" encoding="utf-8"?>
<!-- Generator: Adobe Illustrator 22.0.1, SVG Export Plug-In . SVG Version: 6.00 Build 0)  -->
<svg version="1.0" xmlns="http://www.w3.org/2000/svg" xmlns:xlink="http://www.w3.org/1999/xlink" x="0px" y="0px" width="63px"
	 height="63px" viewBox="0 0 63 63" enable-background="new 0 0 63 63" xml:space="preserve">
<g id="Apiary_Site">
</g>
<g id="Hoarder_x2F_High_Level_Fuel_Load_1_">
</g>
<g id="Fire_Station_-_Scale_Dependent">
</g>
<g id="Fire_Station_-_Secondary">
</g>
<g id="Fire_Station_-_Main">
</g>
<g id="Police_Facility_-_Scale_Dependent">
</g>
<g id="Police_Facility_-_Secondary">
</g>
<g id="Police_Facility_-_Main">
</g>
<g id="Life_Saving_Facility_-_Scale_Dependent_1_">
</g>
<g id="Life_Saving_Facility_-_Secondary">
</g>
<g id="Life_Saving_Facility_-_Main">
</g>
<g id="SES_Facility_-_Scale_Dependent">
</g>
<g id="SES_Facility_-_Secondary">
</g>
<g id="SES_Facility_-_Main">
	<rect x="0" y="0" fill="#FFFFFF" width="63" height="63"/>
	<path fill="#FBCB19" d="M0,0v63h63V0H0z M44.6,45c-1.2,1.8-2.8,3.2-4.9,4.1s-4.8,1.3-7.9,1.3c-4.6,0-8.2-1.1-10.6-3.2
		c-2.5-2.1-4-5.2-4.4-9.3l7.2-0.7c0.4,2.4,1.3,4.2,2.6,5.3c1.3,1.1,3.1,1.7,5.3,1.7c2.4,0,4.2-0.5,5.4-1.5c1.2-1,1.8-2.2,1.8-3.5
		c0-0.9-0.3-1.6-0.8-2.2c-0.5-0.6-1.4-1.1-2.7-1.6c-0.9-0.3-2.8-0.8-5.9-1.6c-4-1-6.7-2.2-8.3-3.6c-2.2-2-3.4-4.5-3.4-7.3
		c0-1.9,0.5-3.6,1.6-5.2c1.1-1.6,2.6-2.9,4.6-3.7s4.4-1.3,7.2-1.3c4.6,0,8,1,10.3,3c2.3,2,3.5,4.7,3.6,8L37.9,24c-0.3-1.9-1-3.2-2-4
		c-1-0.8-2.6-1.2-4.7-1.2c-2.1,0-3.8,0.4-5,1.3c-0.8,0.6-1.2,1.3-1.2,2.3c0,0.9,0.4,1.6,1.1,2.2c0.9,0.8,3.2,1.6,6.8,2.4
		c3.6,0.8,6.2,1.7,8,2.6c1.7,0.9,3.1,2.1,4,3.7c1,1.6,1.5,3.5,1.5,5.8C46.3,41.2,45.8,43.2,44.6,45z"/>
</g>
<g id="Ambulance_Facility_-_Scale_Dependent_1_">
</g>
<g id="Ambulance_Facility_-_Secondary">
</g>
<g id="Ambulance_Facility_-_Main">
</g>
<g id="General_Observation">
</g>
</svg>
