<?xml version="1.0" encoding="UTF-8" standalone="no"?>
<!-- Created with Inkscape (http://www.inkscape.org/) -->
<svg id="svg3795" xmlns:rdf="http://www.w3.org/1999/02/22-rdf-syntax-ns#" xmlns="http://www.w3.org/2000/svg" height="64px" width="64px" version="1.1" xmlns:cc="http://creativecommons.org/ns#" xmlns:dc="http://purl.org/dc/elements/1.1/">
 <metadata id="metadata3800">
  <rdf:RDF>
   <cc:Work rdf:about="">
    <dc:format>image/svg+xml</dc:format>
    <dc:type rdf:resource="http://purl.org/dc/dcmitype/StillImage"/>
    <dc:title/>
   </cc:Work>
  </rdf:RDF>
 </metadata>
 <g id="layer1">
  <path id="path3774-7" d="M-18,1a29.727,29.364,0,1,1,-59.455,0,29.727,29.364,0,1,1,59.455,0z" transform="matrix(0.8912749,0,0,0.90320347,74.53812,31.096797)" stroke-dashoffset="27.62604215" stroke="#000" stroke-miterlimit="4" stroke-dasharray="11.05041685, 5.52520843" stroke-width="5.52520847" fill="#FFF"/>
  <path id="path2999-1" d="m26.692,47.992c0.5911-1.1045,2.7257-2.5531,4.7436-3.219,4.188-1.3821,4.1919-1.3952,2.1556-7.1666l-1.5133-4.2891,3.1317-1.8499c2.5873-1.5284,3.0108-2.3057,2.4359-4.4716-1.1716-4.4147-1.0418-5.4249,0.85464-6.6531,1.5438-0.99984,2.7569-0.25287,7.8334,4.8236,5.7823,5.7823,5.8996,6.0066,3.1416,6.0066h-2.865v9.4137,9.4137h-10.496c-10.029-0.001-10.451-0.091-9.424-2.009zm-9.369-8.452c0-8.9679-0.10769-9.4137-2.2743-9.4137h-2.2743l2.2743-2.4208c1.2508-1.3315,2.2743-3.6464,2.2743-5.1443s0.2857-3.468,0.63489-4.3779c0.94765-2.4695,3.549-1.9985,3.549,0.64262,0,2.1255,0.27446,2.0311,3.6747-1.2646l3.674-3.561,2.2736,2.2736c2.1013,2.1013,2.1462,2.4151,0.59253,4.141-1.4629,1.625-1.498,2.3009-0.27078,5.2078,1.3788,3.2658,1.3302,3.3878-2.1753,5.456-4.0664,2.3992-4.2449,3.107-1.918,7.6067,1.6913,3.2706,0.91993,4.9777-2.2697,5.0231-0.61882,0.0083-2.2306,1.1927-3.5817,2.6309s-2.8452,2.6149-3.3202,2.6149-0.86364-4.2362-0.86364-9.4137z" fill="#000"/>
 </g>
</svg>
