<?xml version="1.0" encoding="UTF-8" standalone="no"?>
<!-- Created with Inkscape (http://www.inkscape.org/) -->
<svg id="svg3803" xmlns:rdf="http://www.w3.org/1999/02/22-rdf-syntax-ns#" xmlns="http://www.w3.org/2000/svg" height="64px" width="64px" version="1.1" xmlns:cc="http://creativecommons.org/ns#" xmlns:dc="http://purl.org/dc/elements/1.1/">
 <metadata id="metadata3808">
  <rdf:RDF>
   <cc:Work rdf:about="">
    <dc:format>image/svg+xml</dc:format>
    <dc:type rdf:resource="http://purl.org/dc/dcmitype/StillImage"/>
    <dc:title/>
   </cc:Work>
  </rdf:RDF>
 </metadata>
 <g id="layer1">
  <path id="path3014" d="m71.542,37.106a29.097,24.025,0,1,1,-58.195,0,29.097,24.025,0,1,1,58.195,0z" transform="matrix(1.0360473,0,0,1.2486773,-11.97494,-14.333333)" fill="#FFF"/>
  <path id="path2999-1" d="M22.322,60.796c-2.716-0.871-7.222-3.666-10.133-6.283-20.76-18.665-8.02-52.513,19.765-52.513,11.754,0,21.751,6.0959,27.142,16.551,3.791,7.3517,4.0156,18.899,0.50619,26.022-3.1191,6.3301-9.0979,12.306-14.937,14.93-6.0831,2.7336-16.056,3.3107-22.345,1.2929zm22.905-7.424c13.046-8.066,15.887-25.788,5.987-37.353-6.899-8.0607-16.175-10.846-26.309-7.9001-18.33,5.3291-23.873,28.215-10.183,42.047,7.7423,7.8224,20.816,9.1964,30.505,3.2061zm-18.588-6.712c0.59561-1.1129,2.7465-2.5725,4.7798-3.2436,4.2199-1.3927,4.2239-1.4059,2.1721-7.2213l-1.5248-4.3218,3.1556-1.864c2.607-1.54,3.0337-2.3233,2.4545-4.5057-1.1805-4.4484-1.0498-5.4663,0.86116-6.7039,1.5556-1.0075,2.7779-0.2548,7.8931,4.8604,5.8264,5.8264,5.9446,6.0524,3.1656,6.0524h-2.8869v9.4855,9.4855h-10.577c-10.103,0-10.528-0.09064-9.4936-2.0235zm-9.4403-8.516c0-9.0363-0.10851-9.4855-2.2916-9.4855h-2.2916l2.2916-2.4393c1.2604-1.3416,2.2916-3.6742,2.2916-5.1835s0.28788-3.4944,0.63973-4.4113c0.95488-2.4884,3.576-2.0138,3.576,0.64752,0,2.1418,0.27655,2.0466,3.7027-1.2742l3.7027-3.5888,2.291,2.291c2.1173,2.1173,2.1626,2.4336,0.59705,4.1726-1.4741,1.6374-1.5095,2.3184-0.27285,5.2476,1.3893,3.2907,1.3403,3.4136-2.1919,5.4977-4.0974,2.4175-4.2773,3.1307-1.9327,7.6647,1.7042,3.2955,0.92694,5.0156-2.287,5.0614-0.62354,0.0084-2.2476,1.2018-3.609,2.651s-2.8669,2.6349-3.3455,2.6349c-0.47862,0-0.87023-4.2685-0.87023-9.4855z" fill="#000"/>
 </g>
</svg>
