<?xml version="1.0" encoding="UTF-8" standalone="no"?>
<!-- Created with Inkscape (http://www.inkscape.org/) -->
<svg id="svg3013" xmlns:rdf="http://www.w3.org/1999/02/22-rdf-syntax-ns#" xmlns="http://www.w3.org/2000/svg" height="64px" width="64px" version="1.1" xmlns:cc="http://creativecommons.org/ns#" xmlns:dc="http://purl.org/dc/elements/1.1/">
 <metadata id="metadata3018">
  <rdf:RDF>
   <cc:Work rdf:about="">
    <dc:format>image/svg+xml</dc:format>
    <dc:type rdf:resource="http://purl.org/dc/dcmitype/StillImage"/>
    <dc:title/>
   </cc:Work>
  </rdf:RDF>
 </metadata>
 <g id="layer2">
  <path id="path3828" d="m127.09,2.8182a28.455,31.364,0,1,1,-56.909,0,28.455,31.364,0,1,1,56.909,0z" transform="matrix(1.0613873,0,0,0.9768116,-72.69138,29.247167)" fill="#FFF"/>
 </g>
 <g id="layer1">
  <path id="path2995" d="m16.782,47.867c0-0.70968-0.82046-2.1969-1.8232-3.305-1.7202-1.9008-1.6673-2.0146,0.93636-2.0146,2.5451,0,10.805-5.0435,12.348-7.5394,1.1055-1.7887-0.58627-4.6873-3.3488-5.7376-2.7301-1.038-3.693-5.7496-1.4574-7.1313,0.63056-0.3897,0.85097-1.6396,0.4898-2.7775-1.2143-3.8258,1.0836-6.0542,6.4856-6.2893,2.75-0.11969,5.2992,0.26645,5.6649,0.85807,0.36565,0.59163,1.5376,1.0757,2.6044,1.0757,2.3818,0,6.7436,4.8219,6.7436,7.4549,0,1.0615,1.0253,2.5702,2.2785,3.3529,1.7166,1.072,2.1246,2.1562,1.6544,4.3962-0.34322,1.6353-0.16377,3.6902,0.39879,4.5664,1.3799,2.1493-0.54423,5.5676-3.1339,5.5676-1.1163,0-2.6468,0.74362-3.4011,1.6525-2.0244,2.4392-3.5349,2.0565-7.9898-2.0239l-4.014-3.678-10.03,9.017c-1.6514,7.4609-0.56352,6.6531-4.4065,2.5538z" fill="#000"/>
 </g>
 <g id="layer3">
  <path id="path3833" d="m63.455,30.364a28.455,13.818,0,1,1,-56.909,0,28.455,13.818,0,1,1,56.909,0z" transform="matrix(0.99542174,0,0,2.0602879,-2.8397609,-30.557832)" stroke-dashoffset="7.58615177" stroke="#000" stroke-dasharray="6.32179314, 3.16089657" stroke-miterlimit="4" stroke-width="3.16089654" fill="none"/>
 </g>
</svg>
