<?xml version="1.0" encoding="utf-8"?>
<!-- Generator: Adobe Illustrator 25.0.0, SVG Export Plug-In . SVG Version: 6.00 Build 0)  -->
<svg version="1.0" id="PNG__x28_All_x29_" xmlns="http://www.w3.org/2000/svg" xmlns:xlink="http://www.w3.org/1999/xlink" x="0px"
	 y="0px" width="63px" height="63px" viewBox="0 0 63 63" enable-background="new 0 0 63 63" xml:space="preserve">
<g id="Forward_Operating_Base">
	<path fill="#FFFFFF" d="M63,31.5c0,8.8-3,16.3-9.1,22.4C47.8,60,40.3,63,31.5,63s-16.3-3-22.4-9.1C3,47.8,0,40.3,0,31.5
		c0-8.8,3-16.3,9.1-22.4C15.2,3,22.7,0,31.5,0s16.3,3,22.4,9.1C60,15.2,63,22.7,63,31.5z"/>
	<path d="M63,31.5c0,8.7-3.1,16.1-9.2,22.3C47.6,59.9,40.2,63,31.5,63c-8.7,0-16.2-3.1-22.3-9.2C3.1,47.6,0,40.2,0,31.5
		c0-8.7,3.1-16.1,9.2-22.3C15.3,3.1,22.8,0,31.5,0c8.7,0,16.1,3.1,22.3,9.2C59.9,15.4,63,22.8,63,31.5L63,31.5z M57.9,31.5
		c0-7.3-2.6-13.5-7.7-18.6S38.8,5.1,31.5,5.1c-7.3,0-13.5,2.6-18.7,7.7C7.7,18,5.1,24.2,5.1,31.5c0,7.3,2.6,13.5,7.7,18.7
		c5.2,5.2,11.4,7.7,18.7,7.7c7.3,0,13.5-2.6,18.7-7.7S57.9,38.8,57.9,31.5L57.9,31.5z"/>
	<path d="M11.4,39.4V23.6H22v1.9h-8.5v4.9h7.4v1.9h-7.4v7.1H11.4z"/>
	<path d="M23.8,31.7c0-2.6,0.7-4.7,2.1-6.1s3.2-2.2,5.4-2.2c1.5,0,2.8,0.3,3.9,1c1.2,0.7,2.1,1.7,2.7,2.9c0.6,1.2,0.9,2.6,0.9,4.2
		c0,1.6-0.3,3-1,4.3c-0.6,1.3-1.6,2.2-2.7,2.9c-1.2,0.6-2.5,1-3.8,1c-1.5,0-2.8-0.4-4-1.1c-1.2-0.7-2-1.7-2.7-2.9
		C24.1,34.4,23.8,33.1,23.8,31.7z M25.9,31.7c0,1.9,0.5,3.4,1.5,4.5c1,1.1,2.3,1.6,3.8,1.6c1.6,0,2.9-0.6,3.9-1.7
		c1-1.1,1.5-2.7,1.5-4.7c0-1.3-0.2-2.4-0.6-3.4s-1.1-1.7-1.9-2.2c-0.8-0.5-1.8-0.8-2.8-0.8c-1.5,0-2.7,0.5-3.8,1.5
		C26.5,27.7,25.9,29.4,25.9,31.7z"/>
	<path d="M41.4,39.4V23.6h5.9c1.2,0,2.2,0.2,2.9,0.5c0.7,0.3,1.3,0.8,1.7,1.5c0.4,0.7,0.6,1.4,0.6,2.1c0,0.7-0.2,1.3-0.5,1.9
		c-0.4,0.6-0.9,1.1-1.7,1.4c1,0.3,1.7,0.8,2.2,1.4c0.5,0.7,0.8,1.5,0.8,2.4c0,0.7-0.2,1.4-0.5,2.1s-0.7,1.1-1.2,1.5
		c-0.5,0.3-1,0.6-1.7,0.8c-0.7,0.2-1.5,0.3-2.5,0.3H41.4z M43.5,30.3h3.4c0.9,0,1.6-0.1,2-0.2c0.5-0.2,0.9-0.4,1.2-0.8
		c0.3-0.4,0.4-0.8,0.4-1.4c0-0.5-0.1-1-0.4-1.4c-0.2-0.4-0.6-0.7-1.1-0.8c-0.5-0.1-1.3-0.2-2.4-0.2h-3.1V30.3z M43.5,37.5h3.9
		c0.7,0,1.1,0,1.4-0.1c0.5-0.1,0.9-0.2,1.2-0.4c0.3-0.2,0.6-0.5,0.8-0.9c0.2-0.4,0.3-0.8,0.3-1.3c0-0.6-0.2-1.1-0.5-1.5
		c-0.3-0.4-0.7-0.7-1.2-0.9c-0.5-0.2-1.3-0.3-2.3-0.3h-3.6V37.5z"/>
</g>
</svg>
