<?xml version="1.0" encoding="utf-8"?>
<!-- Generator: Adobe Illustrator 25.0.0, SVG Export Plug-In . SVG Version: 6.00 Build 0)  -->
<svg version="1.0" id="PNG__x28_All_x29_" xmlns="http://www.w3.org/2000/svg" xmlns:xlink="http://www.w3.org/1999/xlink" x="0px"
	 y="0px" width="63px" height="63px" viewBox="0 0 63 63" enable-background="new 0 0 63 63" xml:space="preserve">
<g id="Skimmer_-_Deployed">
	<path fill="#FFFFFF" d="M63,31.5c0,8.8-3,16.3-9.1,22.4C47.8,60,40.3,63,31.5,63s-16.3-3-22.4-9.1C3,47.8,0,40.3,0,31.5
		c0-8.8,3-16.3,9.1-22.4C15.2,3,22.7,0,31.5,0s16.3,3,22.4,9.1C60,15.2,63,22.7,63,31.5z"/>
	<path d="M63,31.5c0,8.7-3.1,16.1-9.2,22.3C47.6,59.9,40.2,63,31.5,63c-8.7,0-16.2-3.1-22.3-9.2C3.1,47.6,0,40.2,0,31.5
		c0-8.7,3.1-16.1,9.2-22.3C15.3,3.1,22.8,0,31.5,0c8.7,0,16.1,3.1,22.3,9.2C59.9,15.4,63,22.8,63,31.5L63,31.5z M57.9,31.5
		c0-7.3-2.6-13.5-7.7-18.6S38.8,5.1,31.5,5.1c-7.3,0-13.5,2.6-18.7,7.7C7.7,18,5.1,24.2,5.1,31.5c0,7.3,2.6,13.5,7.7,18.7
		c5.2,5.2,11.4,7.7,18.7,7.7c7.3,0,13.5-2.6,18.7-7.7S57.9,38.8,57.9,31.5L57.9,31.5z"/>
	<path d="M16.4,23.1h21c0.1,0,0.4-0.2,0.7-0.6l6.9-6.9c0.4-0.4,0.7-0.6,0.9-0.6c0.6,0,1,0.3,1,1c0,0.3-0.2,0.7-0.6,1l-6.9,6.8
		c-0.4,0.4-0.6,0.6-0.6,0.7v14.3c0.1,0.2,0.3,0.4,0.6,0.7l6.9,6.8c0.4,0.4,0.6,0.7,0.6,1c0,0.6-0.3,1-1,1c-0.3,0-0.6-0.2-1-0.6
		l-6.9-7c-0.4-0.4-0.7-0.6-0.8-0.7H16.3L16.4,23.1z"/>
</g>
</svg>
