<?xml version="1.0" encoding="utf-8"?>
<!-- Generator: Adobe Illustrator 25.0.0, SVG Export Plug-In . SVG Version: 6.00 Build 0)  -->
<svg version="1.0" id="PNG__x28_All_x29_" xmlns="http://www.w3.org/2000/svg" xmlns:xlink="http://www.w3.org/1999/xlink" x="0px"
	 y="0px" width="63px" height="63px" viewBox="0 0 63 63" enable-background="new 0 0 63 63" xml:space="preserve">
<g id="Temporary_Waste_Disposal_Site_-_Confirmed">
	<path fill="#FFFFFF" d="M63,31.5c0,8.8-3,16.3-9.1,22.4C47.8,60,40.3,63,31.5,63s-16.3-3-22.4-9.1C3,47.8,0,40.3,0,31.5
		c0-8.8,3-16.3,9.1-22.4C15.2,3,22.7,0,31.5,0s16.3,3,22.4,9.1C60,15.2,63,22.7,63,31.5z"/>
	<path d="M63,31.5c0,8.7-3.1,16.1-9.2,22.3C47.6,59.9,40.2,63,31.5,63c-8.7,0-16.2-3.1-22.3-9.2C3.1,47.6,0,40.2,0,31.5
		c0-8.7,3.1-16.1,9.2-22.3C15.3,3.1,22.8,0,31.5,0c8.7,0,16.1,3.1,22.3,9.2C59.9,15.4,63,22.8,63,31.5L63,31.5z M57.9,31.5
		c0-7.3-2.6-13.5-7.7-18.6S38.8,5.1,31.5,5.1c-7.3,0-13.5,2.6-18.7,7.7C7.7,18,5.1,24.2,5.1,31.5c0,7.3,2.6,13.5,7.7,18.7
		c5.2,5.2,11.4,7.7,18.7,7.7c7.3,0,13.5-2.6,18.7-7.7S57.9,38.8,57.9,31.5L57.9,31.5z"/>
	<path d="M19.3,22.7l0.9,1.1v23.3c0,0,0.4,1.4,1.5,1.8h19.2c0,0,2-0.2,2-1.9V23.7l0.9-1.3v-2.6H19.3V22.7z M36.5,25.4H39v18.1h-2.4
		V25.4z M30.8,25.4h2.4v18.1h-2.4V25.4z M25.1,25.4h2.4v18.1h-2.4V25.4z"/>
	<path d="M38.1,17.1c0,0-0.3-2.4-3.3-3.1h-6.4c0,0-2.9,0.2-3.3,3.1c-2.3,0-4.5,0-6.8,0v1.5h26.7c0-0.5,0-1,0-1.5
		C42.6,17.1,40.4,17.1,38.1,17.1z M27.1,17.1c0,0,0.4-1.3,1.6-1.3l5.7,0c0,0,1.2-0.1,1.5,1.4C33,17.1,30.1,17.1,27.1,17.1z"/>
</g>
</svg>
