<?xml version="1.0" encoding="utf-8"?>
<!-- Generator: Adobe Illustrator 25.0.0, SVG Export Plug-In . SVG Version: 6.00 Build 0)  -->
<svg version="1.0" id="PNG__x28_All_x29_" xmlns="http://www.w3.org/2000/svg" xmlns:xlink="http://www.w3.org/1999/xlink" x="0px"
	 y="0px" width="63px" height="63px" viewBox="0 0 63 63" enable-background="new 0 0 63 63" xml:space="preserve">
<g id="Temporary_Waste_Disposal_Site_-_Unconfirmed">
	<path fill="#FFFFFF" d="M63,31.5c0,8.8-3,16.3-9.1,22.4C47.8,60,40.3,63,31.5,63s-16.3-3-22.4-9.1C3,47.8,0,40.3,0,31.5
		c0-8.8,3-16.3,9.1-22.4C15.2,3,22.7,0,31.5,0s16.3,3,22.4,9.1C60,15.2,63,22.7,63,31.5z"/>
	<path d="M55.3,10.6l-3.8,3.2c-2.1-2.4-4.4-4.4-7-5.8L47,3.8C50.4,5.8,53.2,8.1,55.3,10.6L55.3,10.6z M40.6,1.4l-1.5,4.7
		c-3.1-1-6.1-1.4-9-1.2L30,0C33.9-0.1,37.4,0.4,40.6,1.4L40.6,1.4z M23.1,0.8l1.3,4.8c-2.6,0.7-5.4,2-8.2,3.9l-2.9-4.1
		C16.1,3.3,19.4,1.8,23.1,0.8L23.1,0.8z M9.2,8.9l3.5,3.5c-1.1,1.1-2,2.3-2.7,3.7c-0.7,1.4-1.5,2.6-2.5,3.6L3,17.7
		c0.5-1.5,1.4-3.1,2.6-4.7C6.9,11.4,8.1,10.1,9.2,8.9L9.2,8.9z M1.1,22.8L6,24.1l0,0.1l-0.1,0.1l0,0.1l0,0.1l0,0.2l0,0.1l0,0.1
		l0,0.2l0,0.1l0,0.1l0,0.2l0,0.1l0,0.1v0.2l0,0.1l0,0.2l0,0.1v0.1l0,0.2l0,0.1v0.2l0,0.1l0,0.1V28l0,0.1v0.2l0,0.1v0.2l0,0.1V29v0.1
		v0.2l0,0.1v0.2v0.1L5,30v0.2v0.1v0.2v0.1v0.2V31v0.1v0.2v0.2v0.1v0.2V32v0.1v0.2l0,0.1v0.2v0.1l0,0.2v0.1l-5,0.4v-0.1v-0.2L0,33
		v-0.2v-0.2v-0.2v-0.2L0,32v-0.2v-0.2v-0.2v-0.2V31v-0.2v-0.2v-0.2l0-0.2V30v-0.2v-0.2v-0.2l0-0.2V29v-0.2l0-0.2v-0.2l0-0.2l0-0.2
		v-0.2l0-0.2v-0.2l0-0.2l0-0.2v-0.2l0-0.2l0-0.2l0-0.2V26l0-0.2l0-0.2l0-0.2l0-0.2l0-0.2l0-0.2l0-0.2l0-0.2l0.1-0.2l0-0.2l0-0.2
		l0-0.2l0-0.2L1,23.3l0-0.2l0-0.2L1.1,22.8z M0.9,38.8l4.8-1.2c0.6,2.8,1.9,6,3.7,8.3l-4.1,2.8C3.4,45.6,1.8,42.4,0.9,38.8L0.9,38.8
		z M8.7,52.9l3.6-3.4c2.1,2.1,4.5,4.1,7.3,5.4l-2.2,4.5c-1.5-1.1-3-2.1-4.4-3C11.5,55.4,10.1,54.3,8.7,52.9L8.7,52.9z M22.4,61.3
		l1.4-4.8l0.1,0l0.1,0l0.1,0l0.2,0l0.1,0l0.1,0.1l0.1,0l0.2,0l0.1,0l0.1,0l0.1,0l0.2,0l0.1,0l0.1,0l0.2,0l0.1,0h0.1l0.2,0l0.1,0
		l0.2,0l0.1,0h0.1l0.2,0h0.1l0.2,0l0.1,0l0.2,0h0.1l0.1,0h0.2l0.1,0H29h0.2l0.1,0h0.2h0.1l0.2,0H30h0.2h0.1l0.2,0h0.1h0.2H31h0.1
		h0.2h0.1h0.2h0.2H32h0.2h0.2h0.1l0.2,0h0.1l0.2,5h-0.1h-0.2h-0.2h-0.2l-0.2,0h-0.2h-0.2h-0.2h-0.2h-0.2h-0.2l-0.2,0h-0.2h-0.2h-0.2
		h-0.2l-0.2,0h-0.2h-0.2h-0.2l-0.2,0l-0.2,0h-0.2l-0.2,0h-0.2l-0.2,0h-0.2l-0.2,0l-0.2,0h-0.2l-0.2,0l-0.2,0l-0.2,0l-0.2,0h-0.2
		l-0.2,0l-0.2,0l-0.2,0l-0.2,0l-0.2,0L25,62l-0.2,0l-0.2-0.1l-0.1,0l-0.2,0l-0.2,0l-0.2,0l-0.2-0.1l-0.2,0l-0.2,0l-0.2-0.1l-0.2,0
		l-0.2-0.1l-0.2,0L22.4,61.3z M38.4,61.9l-1.1-4.8c1.6-0.3,3-0.9,4.3-1.6c1.3-0.7,2.6-1.3,4.1-1.9l2.6,4.2c-1.1,1-2.7,1.9-4.7,2.6
		C41.6,61.1,39.9,61.6,38.4,61.9L38.4,61.9z M52.7,54.5l-3.3-3.6c2.2-2,4.1-4.4,5.6-7.2l4.4,2.3C57.5,49.4,55.3,52.2,52.7,54.5
		L52.7,54.5z M61.4,41l-4.7-1.5c0.9-2.5,1.5-5.5,1.3-8.3V31v-0.2v-0.2v-0.1l4.9-0.1v0.1l0,0.2V31v0.2C62.8,34.6,62.4,37.7,61.4,41
		L61.4,41z M62.4,25l-4.9,1c-0.3-1.6-0.7-3.1-1.4-4.3c-0.7-1.3-1.3-2.6-1.8-4.1l4.2-2.6c0.9,1.4,1.7,3,2.4,4.8
		C61.6,21.7,62.1,23.4,62.4,25z"/>
	<path d="M19.2,22.4l0.9,1.1v23.3c0,0,0.4,1.4,1.5,1.8h19.2c0,0,2-0.2,2-1.9V23.4l0.9-1.3v-2.6H19.2V22.4z M36.5,25h2.4v18.1h-2.4
		V25z M30.7,25h2.4v18.1h-2.4V25z M25,25h2.4v18.1H25V25z"/>
	<path d="M38,16.8c0,0-0.3-2.4-3.3-3.1h-6.4c0,0-2.9,0.2-3.3,3.1c-2.3,0-4.5,0-6.8,0v1.5h26.7c0-0.5,0-1,0-1.5
		C42.6,16.8,40.3,16.8,38,16.8z M27,16.8c0,0,0.4-1.3,1.6-1.3l5.7,0c0,0,1.2-0.1,1.5,1.4C32.9,16.8,30,16.8,27,16.8z"/>
</g>
</svg>
