<?xml version="1.0" encoding="utf-8"?>
<!-- Generator: Adobe Illustrator 25.0.0, SVG Export Plug-In . SVG Version: 6.00 Build 0)  -->
<svg version="1.0" id="PNG__x28_All_x29_" xmlns="http://www.w3.org/2000/svg" xmlns:xlink="http://www.w3.org/1999/xlink" x="0px"
	 y="0px" width="63px" height="63px" viewBox="0 0 63 63" enable-background="new 0 0 63 63" xml:space="preserve">
<g id="Wildlife_Response_Centre">
	<path fill="#FFFFFF" d="M63,31.5c0,8.8-3,16.3-9.1,22.4C47.8,60,40.3,63,31.5,63s-16.3-3-22.4-9.1C3,47.8,0,40.3,0,31.5
		c0-8.8,3-16.3,9.1-22.4C15.2,3,22.7,0,31.5,0s16.3,3,22.4,9.1C60,15.2,63,22.7,63,31.5z"/>
	<path d="M63,31.5c0,8.7-3.1,16.1-9.2,22.3C47.6,59.9,40.2,63,31.5,63c-8.7,0-16.2-3.1-22.3-9.2C3.1,47.6,0,40.2,0,31.5
		c0-8.7,3.1-16.1,9.2-22.3C15.3,3.1,22.8,0,31.5,0c8.7,0,16.1,3.1,22.3,9.2C59.9,15.4,63,22.8,63,31.5L63,31.5z M57.9,31.5
		c0-7.3-2.6-13.5-7.7-18.6S38.8,5.1,31.5,5.1c-7.3,0-13.5,2.6-18.7,7.7C7.7,18,5.1,24.2,5.1,31.5c0,7.3,2.6,13.5,7.7,18.7
		c5.2,5.2,11.4,7.7,18.7,7.7c7.3,0,13.5-2.6,18.7-7.7S57.9,38.8,57.9,31.5L57.9,31.5z"/>
	<path d="M32.3,22.4h2.4l-5,18.3h-2.3l-3.9-13.9c-0.3-1.2-0.5-1.9-0.6-2.1c-0.2,0.8-0.4,1.6-0.5,2.1l-3.9,13.9h-2.5l-4.9-18.3h2.5
		l2.8,12c0.3,1.3,0.6,2.5,0.8,3.7c0.5-2,0.7-3.1,0.8-3.4l3.5-12.3h2.9l2.6,9.3c0.7,2.3,1.1,4.5,1.4,6.5c0.2-1.2,0.5-2.5,0.9-4
		L32.3,22.4z"/>
	<path d="M49.9,35.7c-0.6-1-1.3-1.8-2-2.4c-0.3-0.3-0.8-0.6-1.5-0.9c1.8-0.2,3.1-0.8,3.9-1.7c0.8-0.9,1.3-2,1.3-3.3
		c0-1-0.3-1.9-0.8-2.8c-0.5-0.8-1.2-1.4-2-1.7c-0.8-0.3-2.1-0.5-3.7-0.5H37v18.3h2.4v-8.1h2.8c0.6,0,1.1,0,1.3,0.1
		c0.4,0.1,0.7,0.3,1.1,0.5c0.4,0.2,0.8,0.6,1.2,1.2c0.5,0.6,1,1.4,1.7,2.5l2.4,3.8h3L49.9,35.7z M44.6,30.4h-5.2v-6h5.8
		c1.4,0,2.3,0.3,3,0.8c0.6,0.6,0.9,1.3,0.9,2.1c0,0.6-0.2,1.1-0.5,1.6c-0.3,0.5-0.8,0.9-1.4,1.1C46.6,30.3,45.7,30.4,44.6,30.4z"/>
</g>
</svg>
