<?xml version="1.0" encoding="utf-8"?>
<!-- Generator: Adobe Illustrator 25.0.0, SVG Export Plug-In . SVG Version: 6.00 Build 0)  -->
<svg version="1.0" id="PNG__x28_All_x29_" xmlns="http://www.w3.org/2000/svg" xmlns:xlink="http://www.w3.org/1999/xlink" x="0px"
	 y="0px" width="63px" height="63px" viewBox="0 0 63 63" enable-background="new 0 0 63 63" xml:space="preserve">
<g id="Oiled_Debris">
	<path fill="#FFFFFF" d="M49.5,60.1h-36c-1,0-1.9-0.7-2.2-1.6L0.1,24.3c-0.3-1,0-2,0.9-2.6L30.1,0.5c0.8-0.6,1.9-0.6,2.8,0L62,21.6
		c0.8,0.6,1.2,1.7,0.9,2.6L51.8,58.5C51.4,59.5,50.5,60.1,49.5,60.1z"/>
	<path d="M49.5,60.1h-36c-1,0-1.9-0.7-2.2-1.6L0.1,24.3c-0.3-1,0-2,0.9-2.6L30.1,0.5c0.8-0.6,1.9-0.6,2.8,0L62,21.6
		c0.8,0.6,1.2,1.7,0.9,2.6L51.8,58.5C51.4,59.5,50.5,60.1,49.5,60.1z M15.2,55.4h32.6l10.1-31L31.5,5.3L5.1,24.4L15.2,55.4z"/>
	<path stroke="#000000" stroke-linecap="round" stroke-linejoin="round" stroke-miterlimit="10" d="M39.5,16.6c0,0,8.7,12.1,0,23.8
		c0,0-3.3,5.7-15.9,6.1c0,0-1,2-1.3,4.8H20c0,0,0.4-3.8,2.8-6.9l4.6-3.9c0,0-0.2-1.9-1.8-0.6c0,0-3.5,1.9-5.2,5.3
		c0,0-6.4-8.2,0.9-17.2c0,0,4.4-5.4,13-7.6C34.4,20.4,37,19.1,39.5,16.6z"/>
</g>
</svg>
