<?xml version="1.0" encoding="utf-8"?>
<!-- Generator: Adobe Illustrator 25.0.0, SVG Export Plug-In . SVG Version: 6.00 Build 0)  -->
<svg version="1.0" id="PNG__x28_All_x29_" xmlns="http://www.w3.org/2000/svg" xmlns:xlink="http://www.w3.org/1999/xlink" x="0px"
	 y="0px" width="63px" height="63px" viewBox="0 0 63 63" enable-background="new 0 0 63 63" xml:space="preserve">
<g id="Oiled_x2F_Contamination_Point__-_Confirmed">
	<path fill="#FFFFFF" d="M49.5,60.1h-36c-1,0-1.9-0.7-2.2-1.6L0.1,24.3c-0.3-1,0-2,0.9-2.6L30.1,0.5c0.8-0.6,1.9-0.6,2.8,0L62,21.6
		c0.8,0.6,1.2,1.7,0.9,2.6L51.8,58.5C51.4,59.5,50.5,60.1,49.5,60.1z"/>
	<path d="M49.5,60.1h-36c-1,0-1.9-0.7-2.2-1.6L0.1,24.3c-0.3-1,0-2,0.9-2.6L30.1,0.5c0.8-0.6,1.9-0.6,2.8,0L62,21.6
		c0.8,0.6,1.2,1.7,0.9,2.6L51.8,58.5C51.4,59.5,50.5,60.1,49.5,60.1z M15.2,55.4h32.6l10.1-31L31.5,5.3L5.1,24.4L15.2,55.4z"/>
	<path d="M42,39.4c0,1.4-0.3,2.7-0.8,3.9c-0.6,1.2-1.3,2.3-2.2,3.2c-0.9,0.9-2,1.6-3.3,2.1c-1.3,0.5-2.6,0.8-4.1,0.8
		c-1.4,0-2.8-0.3-4.1-0.8c-1.3-0.5-2.4-1.2-3.3-2.1s-1.7-2-2.2-3.2c-0.5-1.2-0.8-2.5-0.8-3.9c0-0.4,0-0.7,0.1-1.1
		c0-0.3,0.1-0.7,0.1-1v-0.1c0.1-0.7,0.2-1.5,0.7-2.4c0.5-1,1-2,1.7-3.2c0.7-1.2,1.5-2.5,2.3-3.9c0.8-1.4,1.6-2.9,2.4-4.4
		c0.7-1.5,1.4-3.2,1.9-4.8c0.6-1.7,0.9-3.4,1.1-5.1l0,0.3c0.2,1.8,0.7,3.6,1.3,5.3c0.6,1.7,1.3,3.3,2,4.8c0.8,1.5,1.5,3,2.4,4.3
		c0.8,1.4,1.6,2.6,2.2,3.7c0.7,1.1,1.2,2.2,1.7,3.1c0.4,0.9,0.4,1.5,0.6,2.4l0.2,0.5l0.1,0.7V39.4z"/>
</g>
</svg>
