<?xml version="1.0" encoding="utf-8"?>
<!-- Generator: Adobe Illustrator 25.0.0, SVG Export Plug-In . SVG Version: 6.00 Build 0)  -->
<svg version="1.0" id="PNG__x28_All_x29_" xmlns="http://www.w3.org/2000/svg" xmlns:xlink="http://www.w3.org/1999/xlink" x="0px"
	 y="0px" width="63px" height="63px" viewBox="0 0 63 63" enable-background="new 0 0 63 63" xml:space="preserve">
<g id="Oiled_Wildlife_-_Unconfirmed">
	<path fill="#FFFFFF" d="M49.5,60.1h-36c-1,0-1.9-0.7-2.2-1.6L0.1,24.3c-0.3-1,0-2,0.9-2.6L30.1,0.5c0.8-0.6,1.9-0.6,2.8,0L62,21.6
		c0.8,0.6,1.2,1.7,0.9,2.6L51.8,58.5C51.4,59.5,50.5,60.1,49.5,60.1z"/>
	<path d="M33.9,7l-2.4-1.8L29.1,7l-2.8-3.8l3.8-2.8c0.8-0.6,1.9-0.6,2.8,0l3.8,2.8L33.9,7z M16.8,16L14,12.2l-6.1,4.5l2.8,3.8
		L16.8,16z M26,9.3l-2.8-3.8l-6.1,4.5l2.8,3.8L26,9.3z M6.1,27.3l-0.9-2.9l2.4-1.8l-2.8-3.8L1,21.6c-0.8,0.6-1.2,1.7-0.9,2.6
		l1.5,4.5L6.1,27.3z M13.1,49l-2.3-7.2l-4.5,1.5l2.3,7.2L13.1,49z M9.6,38.1l-2.3-7.2l-4.5,1.5l2.3,7.2L9.6,38.1z M18.2,55.4h-3
		l-0.9-2.9L9.8,54l1.5,4.5c0.3,1,1.2,1.6,2.2,1.6h4.7V55.4z M41,55.4h-7.6v4.7H41V55.4z M29.6,55.4H22v4.7h7.6V55.4z M51.8,58.5
		l1.5-4.5l-4.5-1.5l-0.9,2.9h-3v4.7h4.7C50.5,60.1,51.4,59.5,51.8,58.5z M56.7,43.2l-4.5-1.5L49.9,49l4.5,1.5L56.7,43.2z M60.3,32.4
		l-4.5-1.5l-2.3,7.2l4.5,1.5L60.3,32.4z M62.9,24.3c0.3-1,0-2-0.9-2.6l-3.8-2.8l-2.8,3.8l2.4,1.8l-0.9,2.9l4.5,1.5L62.9,24.3z
		 M55.1,16.6L49,12.2L46.2,16l6.1,4.5L55.1,16.6z M45.9,9.9l-6.1-4.5L37,9.3l6.1,4.5L45.9,9.9z"/>
	<path d="M34.4,16.9c-3-2.7-6.4-1.4-6.4-1.4c-3.9,1.8-7.9,2.9-7.9,2.9c0.6,0.3,3.6,1.4,3.6,1.4c2.4,0.6,0.9,4.3,0.9,4.3
		c-4.5,7.8-4.5,12-4.5,12c-0.4,6.8,6,10.4,6,10.4c0,0,0.1,0,0.1,0c-1,0.4-2.2,1.1-2.5,2v1.4h15.9v-1.5l-2.2-1.6
		c0.4-0.2,0.6-0.4,0.6-0.4c5.6-3,5.5-8.4,5.5-8.4C44.6,26.9,34.4,16.9,34.4,16.9z M26.8,17.2c0.6,0,1.2,0.5,1.2,1.2
		c0,0.6-0.5,1.2-1.2,1.2c-0.6,0-1.2-0.5-1.2-1.2C25.6,17.7,26.2,17.2,26.8,17.2z M38.4,44.4c0,0-2.8,2.5-6.7,2.5l0,0c0,0,0,0,0,0
		c0,0,0,0,0,0l0,0c-3.8,0-6.3-2.5-6.3-2.5c-3.4-4.5-1.6-9.1-1.6-9.1c1-3.2,5.5-7.3,5.5-7.3c0.7-1.1,1.2-2.2,1.2-2.2l0.4-1l0.3-0.7
		c0.2-0.5,0.6-0.7,0.7-0.7l0,0c0,0,0,0,0,0c0,0,0,0,0,0l0,0c0.1,0,0.5,0.2,0.7,0.7l0.3,0.7l0.4,1c0,0,0.5,1.1,1.2,2.2
		c0,0,4.6,4,5.5,7.3C40,35.3,41.8,39.9,38.4,44.4z"/>
</g>
</svg>
