<?xml version="1.0" encoding="utf-8"?>
<!-- Generator: Adobe Illustrator 25.0.0, SVG Export Plug-In . SVG Version: 6.00 Build 0)  -->
<svg version="1.0" id="PNG__x28_All_x29_" xmlns="http://www.w3.org/2000/svg" xmlns:xlink="http://www.w3.org/1999/xlink" x="0px"
	 y="0px" width="63px" height="63px" viewBox="0 0 63 63" enable-background="new 0 0 63 63" xml:space="preserve">
<g id="Oiled_Wildlife_-_Confirmed">
	<path fill="#FFFFFF" d="M49.5,60.1h-36c-1,0-1.9-0.7-2.2-1.6L0.1,24.3c-0.3-1,0-2,0.9-2.6L30.1,0.5c0.8-0.6,1.9-0.6,2.8,0L62,21.6
		c0.8,0.6,1.2,1.7,0.9,2.6L51.8,58.5C51.4,59.5,50.5,60.1,49.5,60.1z"/>
	<path d="M49.5,60.1h-36c-1,0-1.9-0.7-2.2-1.6L0.1,24.3c-0.3-1,0-2,0.9-2.6L30.1,0.5c0.8-0.6,1.9-0.6,2.8,0L62,21.6
		c0.8,0.6,1.2,1.7,0.9,2.6L51.8,58.5C51.4,59.5,50.5,60.1,49.5,60.1z M15.2,55.4h32.6l10.1-31L31.5,5.3L5.1,24.4L15.2,55.4z"/>
	<path d="M34.4,16.9c-3-2.7-6.4-1.4-6.4-1.4c-3.9,1.8-7.9,2.9-7.9,2.9c0.6,0.3,3.6,1.4,3.6,1.4c2.4,0.6,0.9,4.3,0.9,4.3
		c-4.5,7.8-4.5,12-4.5,12c-0.4,6.8,6,10.4,6,10.4c0,0,0.1,0,0.1,0c-1,0.4-2.2,1.1-2.5,2v1.4h15.9v-1.5l-2.2-1.6
		c0.4-0.2,0.6-0.4,0.6-0.4c5.6-3,5.5-8.4,5.5-8.4C44.6,26.9,34.4,16.9,34.4,16.9z M26.8,17.2c0.6,0,1.2,0.5,1.2,1.2
		c0,0.6-0.5,1.2-1.2,1.2s-1.2-0.5-1.2-1.2C25.6,17.7,26.2,17.2,26.8,17.2z M38.4,44.4c0,0-2.8,2.5-6.7,2.5l0,0c0,0,0,0,0,0
		c0,0,0,0,0,0l0,0c-3.8,0-6.3-2.5-6.3-2.5c-3.4-4.5-1.6-9.1-1.6-9.1c1-3.2,5.5-7.3,5.5-7.3c0.7-1.1,1.2-2.2,1.2-2.2l0.4-1l0.3-0.7
		c0.2-0.5,0.6-0.7,0.7-0.7l0,0c0,0,0,0,0,0c0,0,0,0,0,0l0,0c0.1,0,0.5,0.2,0.7,0.7l0.3,0.7l0.4,1c0,0,0.5,1.1,1.2,2.2
		c0,0,4.6,4,5.5,7.3C40,35.3,41.8,39.9,38.4,44.4z"/>
</g>
</svg>
