<?xml version="1.0" encoding="utf-8"?>
<!-- Generator: Adobe Illustrator 25.0.0, SVG Export Plug-In . SVG Version: 6.00 Build 0)  -->
<svg version="1.0" id="PNG__x28_All_x29_" xmlns="http://www.w3.org/2000/svg" xmlns:xlink="http://www.w3.org/1999/xlink" x="0px"
	 y="0px" width="63px" height="63px" viewBox="0 0 63 63" enable-background="new 0 0 63 63" xml:space="preserve">
<g id="Sample_Site">
	<path fill="#FFFFFF" d="M49.5,60.1h-36c-1,0-1.9-0.7-2.2-1.6L0.1,24.3c-0.3-1,0-2,0.9-2.6L30.1,0.5c0.8-0.6,1.9-0.6,2.8,0L62,21.6
		c0.8,0.6,1.2,1.7,0.9,2.6L51.8,58.5C51.4,59.5,50.5,60.1,49.5,60.1z"/>
	<path d="M49.5,60.1h-36c-1,0-1.9-0.7-2.2-1.6L0.1,24.3c-0.3-1,0-2,0.9-2.6L30.1,0.5c0.8-0.6,1.9-0.6,2.8,0L62,21.6
		c0.8,0.6,1.2,1.7,0.9,2.6L51.8,58.5C51.4,59.5,50.5,60.1,49.5,60.1z M15.2,55.4h32.6l10.1-31L31.5,5.3L5.1,24.4L15.2,55.4z"/>
	<path d="M44.9,43.3c0-0.1-0.1-0.2-0.1-0.2L37,29.9l-0.1-10h2.5c0.5,0,1-0.4,1-1c0-0.5-0.4-1-1-1h-3.5h-9.6H23c-0.5,0-1,0.4-1,1
		c0,0.5,0.4,1,1,1h2.4v10l-7.2,12.6c0,0,0,0,0,0c0,0.1-1.2,2.3-0.3,4.3c0.5,1.2,1.7,2,3.4,2.4c0.1,0,0.2,0,0.2,0h19.4
		c0.1,0,2.4,0,3.6-1.7C45.2,46.5,45.3,45,44.9,43.3z M27.2,30.6c0.1-0.1,0.1-0.3,0.1-0.5V19.9H35l0.1,10.2c0,0.2,0,0.3,0.1,0.5
		l2.3,4l-6.4,0c-3.3,0.1-5.7,0.9-7.3,1.7L27.2,30.6z"/>
</g>
</svg>
