<?xml version="1.0" encoding="UTF-8" standalone="no"?>
<!-- Created with Inkscape (http://www.inkscape.org/) -->
<svg id="svg7828" xmlns:rdf="http://www.w3.org/1999/02/22-rdf-syntax-ns#" xmlns="http://www.w3.org/2000/svg" height="64px" width="64px" version="1.1" xmlns:cc="http://creativecommons.org/ns#" xmlns:dc="http://purl.org/dc/elements/1.1/">
 <metadata id="metadata7833">
  <rdf:RDF>
   <cc:Work rdf:about="">
    <dc:format>image/svg+xml</dc:format>
    <dc:type rdf:resource="http://purl.org/dc/dcmitype/StillImage"/>
    <dc:title/>
   </cc:Work>
  </rdf:RDF>
 </metadata>
 <g id="layer1">
  <g id="g7860">
   <g id="g7619" fill-rule="nonzero">
    <path id="path7599" d="m-37.636,27.727c0,17.02-14.042,30.818-31.364,30.818s-31.364-13.798-31.364-30.818,14.042-30.818,31.364-30.818,31.364,13.798,31.364,30.818z" transform="matrix(0.95652175,0,0,0.95652175,98.000001,5.4782612)" fill="#000"/>
    <path id="path7599-5" d="m-37.636,27.727c0,17.02-14.042,30.818-31.364,30.818s-31.364-13.798-31.364-30.818,14.042-30.818,31.364-30.818,31.364,13.798,31.364,30.818z" transform="matrix(0.84492755,0,0,0.84492755,90.300001,8.572464)" fill="#FFF"/>
   </g>
   <g id="flowRoot7847" style="letter-spacing:0px;word-spacing:0px;" font-weight="normal" transform="matrix(0.7734139,0,0,0.7734139,88.395771,53.935733)" font-size="40px" font-style="normal" font-family="Sans" line-height="125%" fill="#000">
    <path id="path7856" d="m-98.777-14.046,10.996-28.633,4.082,0,11.719,28.633-4.3164,0-3.3398-8.6719-11.973,0-3.1445,8.6719zm8.2617-11.758,9.707,0-2.9883-7.9297c-0.91147-2.4088-1.5886-4.388-2.0312-5.9375-0.3646,1.836-0.87892,3.6589-1.543,5.4688z"/>
    <path id="path7858" d="m-68.914-14.046,0-28.633,10.801,0c1.901,0.000028,3.3528,0.09117,4.3555,0.27344,1.4062,0.2344,2.5846,0.68037,3.5352,1.3379,0.9505,0.65758,1.7155,1.5788,2.2949,2.7637s0.86912,2.487,0.86914,3.9062c-0.000025,2.4349-0.77476,4.4955-2.3242,6.1816-1.5495,1.6862-4.349,2.5293-8.3984,2.5293h-7.3438v11.641zm3.7891-15.02,7.4023,0c2.4479,0.000015,4.1862-0.45571,5.2148-1.3672,1.0286-0.91144,1.5429-2.194,1.543-3.8477-0.000021-1.1979-0.30276-2.2233-0.9082-3.0762-0.60549-0.85284-1.403-1.416-2.3926-1.6895-0.63804-0.16925-1.8164-0.25388-3.5352-0.25391h-7.3242z"/>
   </g>
  </g>
 </g>
</svg>
