<?xml version="1.0" encoding="UTF-8" standalone="no"?>
<!-- Created with Inkscape (http://www.inkscape.org/) -->
<svg id="svg3026" xmlns:rdf="http://www.w3.org/1999/02/22-rdf-syntax-ns#" xmlns="http://www.w3.org/2000/svg" height="64px" width="64px" version="1.1" xmlns:cc="http://creativecommons.org/ns#" xmlns:dc="http://purl.org/dc/elements/1.1/">
 <metadata id="metadata3031">
  <rdf:RDF>
   <cc:Work rdf:about="">
    <dc:format>image/svg+xml</dc:format>
    <dc:type rdf:resource="http://purl.org/dc/dcmitype/StillImage"/>
    <dc:title/>
   </cc:Work>
  </rdf:RDF>
 </metadata>
 <g id="layer1">
  <g id="g8542">
   <path id="path7804" d="M-36.727,40.182-70.909,4.1818-34.909-30-0.72727,6z" fill-rule="nonzero" transform="matrix(0.82642484,0,0,0.82642484,61.601037,27.792746)" fill="#FFF"/>
   <path id="path3003" fill="#000" d="M29.426,61.642c-1.133-0.47-7.736-6.617-14.674-13.661-10.404-10.564-12.615-13.342-12.615-15.854,0-2.5434,2.2672-5.2915,13.729-16.641,9.7312-9.6359,14.429-13.595,16.133-13.595,1.7036,0,6.4018,3.9591,16.133,13.595,11.671,11.556,13.729,14.068,13.729,16.748,0,2.6725-2.0014,5.1367-13.129,16.165-7.2211,7.1566-14.056,13.256-15.189,13.554-1.1327,0.29836-2.9863,0.1584-4.119-0.31099zm16.123-15.161c7.6449-7.5507,12.195-12.828,12.195-14.144,0-2.4541-23.315-26.329-25.712-26.329-2.431,0-25.775,23.817-25.775,26.297,0,2.3557,23.431,26.22,25.744,26.22,0.74457,0,6.8415-5.4201,13.549-12.045zm-16.926,4.2054c-0.33945-0.33944,0.58361-3.8567,2.0512-7.8161,3.0013-8.097,2.6192-9.0142-3.7665-9.0426-2.4583-0.01091-4.4314,0.8308-6.4252,2.741-3.2063,3.0719-4.7273,2.7192-2.9109-0.67486,0.87036-1.6263,0.8811-2.5792,0.04047-3.5922-0.84478-1.0179-0.82484-1.4851,0.0762-1.7855,0.93402-0.31134,0.92452-0.95962-0.04047-2.7627-1.879-3.5109-0.42873-3.9438,2.8117-0.83924,2.5627,2.4553,3.3893,2.6714,8.0882,2.1149l5.2338-0.61986-2.9797-7.7382c-1.6388-4.256-2.7164-8.0015-2.3946-8.3234,0.84497-0.84497,8.7415,8.0518,8.7415,9.8488,0,0.83098,0.93421,1.7552,2.076,2.0538s2.0137,1.0661,1.9375,1.7056c-0.37723,3.1653,0.35988,3.6476,6.0265,3.9432,4.4394,0.23155,5.921,0.69534,5.921,1.8534s-1.4816,1.6219-5.921,1.8534c-5.6666,0.29555-6.4037,0.77785-6.0265,3.9431,0.0762,0.63951-0.79565,1.4071-1.9375,1.7056-1.1418,0.2986-2.076,1.2043-2.076,2.0126,0,1.8052-7.6682,10.277-8.5258,9.4192z"/>
   <path id="path2997" fill="#000" d="M15.281,48.296c-10.56-10.638-13.144-13.808-13.144-16.126,0-2.3076,2.5053-5.4192,12.517-15.546,12.597-12.742,16.146-15.189,19.926-13.741,1.129,0.4328,7.73,6.5503,14.668,13.594,10.224,10.381,12.615,13.367,12.615,15.761,0,2.4113-2.4188,5.3725-13.173,16.127-17.507,17.506-15.961,17.509-33.409-0.069zm30.863-2.446c6.9461-6.9294,12.629-13.063,12.629-13.629,0-1.706-25.071-26.289-26.811-26.289-1.6176,0-26.736,24.67-26.736,26.258,0,1.5703,25.109,26.258,26.706,26.258,0.87038,0,7.2657-5.6695,14.212-12.599zm-17.233,3.3547c0-0.55343,1.1585-4.084,2.5744-7.8457s2.5744-7.016,2.5744-7.2317c0-0.21575-2.7085-0.39227-6.0189-0.39227-4.7111,0-6.4238,0.44748-7.8827,2.0595-2.3021,2.5438-4.0169,2.7056-2.7274,0.25744,0.52203-0.99113,0.94914-3.1922,0.94914-4.8913s-0.42711-3.9002-0.94914-4.8913c-1.389-2.6371,0.45109-2.1988,3.2423,0.77231,2.4284,2.5849,6.1606,3.2413,11.021,1.9382l2.2677-0.60804-2.5595-6.7999c-3.1939-8.4854-2.8814-11.478,0.63989-6.1276,1.3931,2.1168,3.1121,3.8545,3.8201,3.8615,0.70795,0.007,1.2872,1.1712,1.2872,2.5871,0,1.8078,0.56091,2.5744,1.8838,2.5744,1.2913,0,1.8581,0.72872,1.8021,2.3169-0.07397,2.0961,0.49941,2.366,6.0165,2.8318,9.8761,0.83382,8.5953,3.6547-1.9793,4.3594-3.3304,0.22192-4.1193,0.66613-4.1208,2.3202-0.001,1.1278-0.80958,2.2013-1.8021,2.3924-1.124,0.21646-1.8002,1.2854-1.8002,2.8455,0,1.3744-0.57923,2.5002-1.2872,2.5018-0.70795,0.0017-2.2139,1.3904-3.3467,3.0863-2.06,3.0841-3.6041,3.9765-3.6041,2.083z"/>
   <path id="path2991" fill="#000" d="M15.478,48.361c-10.662-10.686-13.478-14.105-13.478-16.361,0-4.03,25.643-29.869,29.642-29.869,2.0555,0,5.9301,3.277,16.522,13.973,7.641,7.718,13.836,14.834,13.836,15.896s-6.195,8.178-13.836,15.896c-10.592,10.696-14.467,13.973-16.522,13.973-2.0456,0-5.8959-3.2178-16.164-13.508zm30.524-2.459c7.07-7.052,12.854-13.222,12.854-13.709,0-1.243-21.875-24.493-24.923-26.49-2.466-1.6153-2.708-1.4376-16.039,11.752-7.445,7.367-13.536,13.882-13.536,14.478,0,1.7193,25.471,26.792,27.218,26.792,0.86495,0,7.3568-5.7702,14.426-12.823zm-17.534,4.2003c-0.0032-0.41916,1.1731-3.8945,2.6142-7.723,1.441-3.8285,2.6201-7.3164,2.6201-7.7508,0-0.43445-2.476-1.0393-5.5022-1.344-4.8834-0.49179-5.8263-0.249-8.3843,2.1588-2.8262,2.6603-3.8004,2.2514-1.878-0.7882,0.6162-0.97429,0.56335-2.0293-0.14438-2.8821-0.79934-0.96315-0.77184-1.3452,0.09684-1.3452,0.90508,0,0.91611-0.55519,0.04339-2.1858-1.5988-2.9875-0.70156-3.5237,1.6143-0.9647,1.4912,1.6478,3.2275,2.1025,8.0285,2.1025,3.3692,0,6.1258-0.41546,6.1258-0.92326,0-0.50779-1.1976-4.105-2.6613-7.9937-2.5319-6.7266-2.6732-10.68-0.22539-6.3064,0.63152,1.1285,2.2361,3.1396,3.5657,4.4692s2.4282,2.6426,2.4413,2.9177c0.0131,0.27511,0.02379,0.97182,0.02379,1.5482,0,0.57642,0.73526,1.048,1.6339,1.048,0.89865,0,1.3297,0.49227,0.95781,1.0939-1.3746,2.2242,1.8272,4.1462,6.9071,4.1462,5.1541,0,7.6427,1.6005,5.046,3.2452-0.79438,0.50315-3.3544,0.92203-5.6889,0.93086-4.479,0.01694-6.9308,1.495-6.0946,3.6741,0.27577,0.71863-0.52976,1.5763-1.7901,1.9058-1.2603,0.32958-2.0992,1.2169-1.8643,1.9718,0.23493,0.75491-1.3518,3.259-3.5261,5.5647s-3.9559,3.8492-3.9592,3.43z"/>
  </g>
 </g>
</svg>
