<?xml version="1.0" encoding="UTF-8" standalone="no"?>
<!-- Created with Inkscape (http://www.inkscape.org/) -->
<svg id="svg8072" xmlns:rdf="http://www.w3.org/1999/02/22-rdf-syntax-ns#" xmlns="http://www.w3.org/2000/svg" height="64px" width="64px" version="1.1" xmlns:cc="http://creativecommons.org/ns#" xmlns:dc="http://purl.org/dc/elements/1.1/">
 <metadata id="metadata8077">
  <rdf:RDF>
   <cc:Work rdf:about="">
    <dc:format>image/svg+xml</dc:format>
    <dc:type rdf:resource="http://purl.org/dc/dcmitype/StillImage"/>
    <dc:title/>
   </cc:Work>
  </rdf:RDF>
 </metadata>
 <g id="layer1">
  <g id="g8106">
   <g id="g7619" fill-rule="nonzero">
    <path id="path7599" d="m-37.636,27.727c0,17.02-14.042,30.818-31.364,30.818s-31.364-13.798-31.364-30.818,14.042-30.818,31.364-30.818,31.364,13.798,31.364,30.818z" transform="matrix(0.95652175,0,0,0.95652175,98.000001,5.4782612)" fill="#000"/>
    <path id="path7599-5" d="m-37.636,27.727c0,17.02-14.042,30.818-31.364,30.818s-31.364-13.798-31.364-30.818,14.042-30.818,31.364-30.818,31.364,13.798,31.364,30.818z" transform="matrix(0.84492755,0,0,0.84492755,90.300001,8.572464)" fill="#FFF"/>
   </g>
   <g id="flowRoot8091" style="letter-spacing:0px;word-spacing:0px;" font-weight="normal" transform="matrix(0.60377362,0,0,0.60377362,76.261794,46.803604)" font-size="40px" font-style="normal" font-family="Sans" line-height="125%" fill="#000">
    <path id="path8100" d="m-106.43-10.202,10.996-28.633,4.082,0,11.719,28.633-4.3164,0-3.3398-8.6719-11.973,0-3.1445,8.6719zm8.2617-11.758,9.707,0-2.9883-7.9297c-0.91147-2.4088-1.5886-4.388-2.0312-5.9375-0.3646,1.836-0.87892,3.6589-1.543,5.4688z"/>
    <path id="path8102" d="m-75.926-10.202,0-28.633,3.7891,0,0,28.633z"/>
    <path id="path8104" d="m-65.418-10.202,0-28.633,12.695,0c2.5521,0.000028,4.4922,0.25719,5.8203,0.77148,1.3281,0.51435,2.3893,1.4226,3.1836,2.7246,0.79424,1.3021,1.1914,2.7409,1.1914,4.3164-0.000026,2.0313-0.65758,3.7435-1.9727,5.1367s-3.3464,2.2787-6.0938,2.6562c1.0026,0.48178,1.7643,0.95704,2.2852,1.4258,1.1068,1.0156,2.1549,2.2852,3.1445,3.8086l4.9805,7.793h-4.7656l-3.7891-5.957c-1.1068-1.7187-2.0182-3.0338-2.7344-3.9453-0.71616-0.91145-1.3574-1.5495-1.9238-1.9141-0.56642-0.36457-1.1426-0.61848-1.7285-0.76172-0.4297-0.09113-1.1328-0.13671-2.1094-0.13672h-4.3945v12.715zm3.7891-15.996,8.1445,0c1.7318,0.000016,3.0859-0.17902,4.0625-0.53711,0.97654-0.35806,1.7187-0.93097,2.2266-1.7188,0.50779-0.78774,0.7617-1.6439,0.76172-2.5684-0.000022-1.3541-0.49156-2.4674-1.4746-3.3398-0.98309-0.87237-2.5358-1.3086-4.6582-1.3086h-9.0625z"/>
   </g>
  </g>
 </g>
</svg>
