<?xml version="1.0" encoding="utf-8"?>
<!-- Generator: Adobe Illustrator 22.0.1, SVG Export Plug-In . SVG Version: 6.00 Build 0)  -->
<svg version="1.0" xmlns="http://www.w3.org/2000/svg" xmlns:xlink="http://www.w3.org/1999/xlink" x="0px" y="0px" width="63px"
	 height="63px" viewBox="0 0 63 63" enable-background="new 0 0 63 63" xml:space="preserve">
<g id="Apiary_Site">
	<g>
		<rect x="0" y="0" fill="#FFFFFF" width="63" height="63"/>
		<polygon fill="#FFFFFF" points="52.3,52.3 10.7,52.3 10.7,32.4 11.2,28.3 13.6,24.2 16.5,20.2 20.2,16.1 23.6,13.4 39.8,13.4 
			43.1,16.1 46.6,20.2 49.4,24.2 51.7,28.3 52.3,32.4 		"/>
		<path fill="#ED3B94" d="M49.4,24.2H13.6c-0.3,0.5-0.6,0.9-0.8,1.3h37.4C49.9,25.1,49.6,24.7,49.4,24.2z"/>
		<path fill="#ED3B94" d="M43.1,16.1H20.2c-0.5,0.4-0.9,0.9-1.3,1.3h25.5C43.9,17,43.5,16.5,43.1,16.1z"/>
		<path fill="#ED3B94" d="M37.5,12H26c-0.8,0.4-1.6,0.8-2.3,1.3h16.2C39,12.8,38.2,12.4,37.5,12z"/>
		<polygon fill="#ED3B94" points="43.8,41.9 45.4,41.9 45.4,40.5 35.9,40.5 35.9,41.9 41.7,41.9 		"/>
		<path fill="#ED3B94" d="M26,12h11.5C33.3,10,29.4,10.4,26,12z"/>
		<path fill="#ED3B94" d="M44.2,17.3H19c-0.8,0.9-1.7,1.9-2.5,2.9h30.1C45.8,19.2,45,18.1,44.2,17.3z"/>
		<path fill="#ED3B94" d="M50.1,25.4H12.9c-0.7,1.1-1.3,2.3-1.7,2.9h40.5C51.2,27.4,50.6,26.2,50.1,25.4z"/>
		<rect x="10.7" y="32.4" fill="#ED3B94" width="41.7" height="4.1"/>
		<rect x="10.7" y="40.5" fill="#ED3B94" width="25.4" height="4.1"/>
		<rect x="10.7" y="48.7" fill="#ED3B94" width="25.4" height="3.7"/>
		<rect x="26.2" y="11.9" fill="#ED3B94" width="10.9" height="0.2"/>
		<rect x="45.3" y="40.5" fill="#ED3B94" width="7" height="4.1"/>
		<rect x="45.3" y="48.7" fill="#ED3B94" width="7" height="3.7"/>
	</g>
	<g>
		<rect fill="#231F20" width="63" height="1.7"/>
		<rect y="61.3" fill="#231F20" width="63" height="1.7"/>
		
			<rect x="-30.6" y="30.6" transform="matrix(4.492590e-11 -1 1 4.492590e-11 -30.6101 32.3494)" fill="#231F20" width="63" height="1.7"/>
		
			<rect x="30.7" y="30.6" transform="matrix(4.489748e-11 -1 1 4.489748e-11 30.6303 93.6303)" fill="#231F20" width="63" height="1.7"/>
	</g>
</g>
<g id="Hoarder_x2F_High_Level_Fuel_Load_1_">
</g>
<g id="Fire_Station_-_Scale_Dependent">
</g>
<g id="Fire_Station_-_Secondary">
</g>
<g id="Fire_Station_-_Main">
</g>
<g id="Police_Facility_-_Scale_Dependent">
</g>
<g id="Police_Facility_-_Secondary">
</g>
<g id="Police_Facility_-_Main">
</g>
<g id="Life_Saving_Facility_-_Scale_Dependent_1_">
</g>
<g id="Life_Saving_Facility_-_Secondary">
</g>
<g id="Life_Saving_Facility_-_Main">
</g>
<g id="SES_Facility_-_Scale_Dependent">
</g>
<g id="SES_Facility_-_Secondary">
</g>
<g id="SES_Facility_-_Main">
</g>
<g id="Ambulance_Facility_-_Scale_Dependent_1_">
</g>
<g id="Ambulance_Facility_-_Secondary">
</g>
<g id="Ambulance_Facility_-_Main">
</g>
<g id="General_Observation">
</g>
</svg>
