<?xml version="1.0" encoding="UTF-8" standalone="no"?>
<!-- Created with Inkscape (http://www.inkscape.org/) -->
<svg id="svg8231" xmlns:rdf="http://www.w3.org/1999/02/22-rdf-syntax-ns#" xmlns="http://www.w3.org/2000/svg" height="64px" width="64px" version="1.1" xmlns:cc="http://creativecommons.org/ns#" xmlns:dc="http://purl.org/dc/elements/1.1/">
 <metadata id="metadata8236">
  <rdf:RDF>
   <cc:Work rdf:about="">
    <dc:format>image/svg+xml</dc:format>
    <dc:type rdf:resource="http://purl.org/dc/dcmitype/StillImage"/>
    <dc:title/>
   </cc:Work>
  </rdf:RDF>
 </metadata>
 <g id="layer1">
  <g id="g8263">
   <g id="g7619" fill-rule="nonzero">
    <path id="path7599" d="m-37.636,27.727c0,17.02-14.042,30.818-31.364,30.818s-31.364-13.798-31.364-30.818,14.042-30.818,31.364-30.818,31.364,13.798,31.364,30.818z" transform="matrix(0.95652175,0,0,0.95652175,98.000001,5.4782612)" fill="#000"/>
    <path id="path7599-5" d="m-37.636,27.727c0,17.02-14.042,30.818-31.364,30.818s-31.364-13.798-31.364-30.818,14.042-30.818,31.364-30.818,31.364,13.798,31.364,30.818z" transform="matrix(0.84492755,0,0,0.84492755,90.300001,8.572464)" fill="#FFF"/>
   </g>
   <g id="flowRoot8250" style="letter-spacing:0px;word-spacing:0px;" font-weight="normal" transform="matrix(0.74744531,0,0,0.74744531,93.982485,47.616724)" font-size="40px" font-style="normal" font-family="Sans" line-height="125%" fill="#000">
    <path id="path8259" d="m-109.68-6.5771,10.996-28.633,4.082,0,11.719,28.633-4.3164,0-3.3398-8.6719-11.973,0-3.1445,8.6719zm8.2617-11.758,9.707,0-2.9883-7.9297c-0.91147-2.4088-1.5886-4.388-2.0312-5.9375-0.3646,1.836-0.87892,3.6589-1.543,5.4688z"/>
    <path id="path8261" d="m-82.965-6.5771,10.996-28.633,4.082,0,11.719,28.633-4.3164,0-3.3398-8.6719-11.973,0-3.1445,8.6719zm8.2617-11.758,9.707,0-2.9883-7.9297c-0.91147-2.4088-1.5886-4.388-2.0312-5.9375-0.3646,1.836-0.87892,3.6589-1.543,5.4688z"/>
   </g>
  </g>
 </g>
</svg>
