<?xml version="1.0" encoding="UTF-8" standalone="no"?>
<!-- Created with Inkscape (http://www.inkscape.org/) -->
<svg id="svg8191" xmlns:rdf="http://www.w3.org/1999/02/22-rdf-syntax-ns#" xmlns="http://www.w3.org/2000/svg" height="64px" width="64px" version="1.1" xmlns:cc="http://creativecommons.org/ns#" xmlns:dc="http://purl.org/dc/elements/1.1/">
 <metadata id="metadata8196">
  <rdf:RDF>
   <cc:Work rdf:about="">
    <dc:format>image/svg+xml</dc:format>
    <dc:type rdf:resource="http://purl.org/dc/dcmitype/StillImage"/>
    <dc:title/>
   </cc:Work>
  </rdf:RDF>
 </metadata>
 <g id="layer1">
  <g id="g8223">
   <g id="g7619" fill-rule="nonzero">
    <path id="path7599" d="m-37.636,27.727c0,17.02-14.042,30.818-31.364,30.818s-31.364-13.798-31.364-30.818,14.042-30.818,31.364-30.818,31.364,13.798,31.364,30.818z" transform="matrix(0.95652175,0,0,0.95652175,98.000001,5.4782612)" fill="#000"/>
    <path id="path7599-5" d="m-37.636,27.727c0,17.02-14.042,30.818-31.364,30.818s-31.364-13.798-31.364-30.818,14.042-30.818,31.364-30.818,31.364,13.798,31.364,30.818z" transform="matrix(0.84492755,0,0,0.84492755,90.300001,8.572464)" fill="#FFF"/>
   </g>
   <g id="flowRoot8210" style="letter-spacing:0px;word-spacing:0px;" font-weight="normal" transform="matrix(0.78287462,0,0,0.78287462,89.853211,41.09091)" font-size="40px" font-style="normal" font-family="Sans" line-height="125%" fill="#000">
    <path id="path8219" d="m-99.445,2.7042,0-28.633,10.742,0c2.1875,0.000028,3.942,0.28974,5.2637,0.86914,1.3216,0.57945,2.3567,1.4714,3.1055,2.6758,0.74868,1.2045,1.123,2.4642,1.123,3.7793-0.000024,1.224-0.33206,2.3763-0.99609,3.457-0.66408,1.0807-1.6667,1.9531-3.0078,2.6172,1.7318,0.50783,3.0631,1.3737,3.9941,2.5977,0.93096,1.224,1.3965,2.6693,1.3965,4.3359-0.000024,1.3412-0.28323,2.5879-0.84961,3.7402-0.56643,1.1523-1.2663,2.041-2.0996,2.666-0.83336,0.625-1.8783,1.097-3.1348,1.416-1.2565,0.31901-2.7962,0.47852-4.6191,0.47852zm3.7891-16.602,6.1914,0c1.6797,0.000016,2.8841-0.11066,3.6133-0.33203,0.96352-0.28644,1.6894-0.7617,2.1777-1.4258,0.48826-0.66404,0.7324-1.4974,0.73242-2.5-0.00002-0.9505-0.22788-1.7871-0.68359-2.5098-0.45575-0.72263-1.1068-1.2174-1.9531-1.4844-0.84637-0.2669-2.2982-0.40036-4.3555-0.40039h-5.7227zm0,13.223,7.1289,0c1.2239,0.00000338,2.0833-0.04557,2.5781-0.13672,0.87238-0.15625,1.6015-0.41666,2.1875-0.78125,0.58592-0.36458,1.0677-0.89518,1.4453-1.5918,0.37758-0.69661,0.56638-1.5006,0.56641-2.4121-0.000021-1.0677-0.27346-1.9954-0.82031-2.7832-0.5469-0.78775-1.3054-1.3411-2.2754-1.6602-0.97007-0.319-2.3666-0.4785-4.1895-0.47852h-6.6211z"/>
    <path id="path8221" d="m-52.141-7.3349,3.7891,0.95703c-0.7943,3.112-2.2233,5.485-4.2871,7.1191s-4.5866,2.4512-7.5684,2.4512c-3.086-5E-7-5.5957-0.62826-7.5293-1.8848s-3.405-3.0762-4.4141-5.459-1.5137-4.9414-1.5137-7.6758c-0.000002-2.9818,0.56966-5.5827,1.709-7.8027s2.7604-3.9062,4.8633-5.0586c2.1029-1.1523,4.4173-1.7285,6.9434-1.7285,2.8646,0.000029,5.2734,0.7292,7.2266,2.1875,1.9531,1.4584,3.3138,3.5091,4.082,6.1523l-3.7305,0.87891c-0.66408-2.0833-1.6276-3.6002-2.8906-4.5508-1.263-0.9505-2.8516-1.4258-4.7656-1.4258-2.2005,0.000026-4.0397,0.52737-5.5176,1.582-1.4779,1.0547-2.5163,2.4707-3.1152,4.248-0.59896,1.7774-0.89844,3.61-0.89844,5.498-0.000006,2.4349,0.35481,4.5606,1.0645,6.377,0.70963,1.8164,1.8131,3.1738,3.3105,4.0723,1.4974,0.89844,3.1185,1.3477,4.8633,1.3477,2.1224,0.00000275,3.9193-0.61198,5.3906-1.8359,1.4713-1.224,2.4674-3.0404,2.9883-5.4492z"/>
   </g>
  </g>
 </g>
</svg>
