<?xml version="1.0" encoding="UTF-8" standalone="no"?>
<!-- Created with Inkscape (http://www.inkscape.org/) -->
<svg id="svg8311" xmlns:rdf="http://www.w3.org/1999/02/22-rdf-syntax-ns#" xmlns="http://www.w3.org/2000/svg" height="64px" width="64px" version="1.1" xmlns:cc="http://creativecommons.org/ns#" xmlns:dc="http://purl.org/dc/elements/1.1/">
 <metadata id="metadata8316">
  <rdf:RDF>
   <cc:Work rdf:about="">
    <dc:format>image/svg+xml</dc:format>
    <dc:type rdf:resource="http://purl.org/dc/dcmitype/StillImage"/>
    <dc:title/>
   </cc:Work>
  </rdf:RDF>
 </metadata>
 <g id="layer1">
  <g id="g8343">
   <g id="g7619" fill-rule="nonzero">
    <path id="path7599" d="m-37.636,27.727c0,17.02-14.042,30.818-31.364,30.818s-31.364-13.798-31.364-30.818,14.042-30.818,31.364-30.818,31.364,13.798,31.364,30.818z" transform="matrix(0.95652175,0,0,0.95652175,98.000001,5.4782612)" fill="#000"/>
    <path id="path7599-5" d="m-37.636,27.727c0,17.02-14.042,30.818-31.364,30.818s-31.364-13.798-31.364-30.818,14.042-30.818,31.364-30.818,31.364,13.798,31.364,30.818z" transform="matrix(0.84492755,0,0,0.84492755,90.300001,8.572464)" fill="#FFF"/>
   </g>
   <g id="flowRoot8330" style="letter-spacing:0px;word-spacing:0px;" font-weight="normal" transform="matrix(0.77137478,0,0,0.77137478,83.816197,43.488445)" font-size="40px" font-style="normal" font-family="Sans" line-height="125%" fill="#000">
    <path id="path8339" d="m-71.578-10.616,3.7891,0.95703c-0.7943,3.112-2.2233,5.485-4.2871,7.1191s-4.5866,2.4512-7.5684,2.4512c-3.086-4.9E-7-5.5957-0.62826-7.5293-1.8848s-3.405-3.0762-4.4141-5.459-1.5137-4.9414-1.5137-7.6758c-0.000002-2.9818,0.56966-5.5827,1.709-7.8027s2.7604-3.9062,4.8633-5.0586c2.1029-1.1523,4.4173-1.7285,6.9434-1.7285,2.8646,0.000029,5.2734,0.7292,7.2266,2.1875,1.9531,1.4584,3.3138,3.5091,4.082,6.1523l-3.7305,0.87891c-0.66408-2.0833-1.6276-3.6002-2.8906-4.5508-1.263-0.9505-2.8516-1.4258-4.7656-1.4258-2.2005,0.000026-4.0397,0.52737-5.5176,1.582-1.4779,1.0547-2.5163,2.4707-3.1152,4.248-0.59896,1.7774-0.89844,3.61-0.89844,5.498-0.000006,2.4349,0.35481,4.5606,1.0645,6.377,0.70963,1.8164,1.8131,3.1738,3.3105,4.0723,1.4974,0.89844,3.1185,1.3477,4.8633,1.3477,2.1224,0.0000028,3.9193-0.61198,5.3906-1.8359,1.4713-1.224,2.4674-3.0404,2.9883-5.4492z"/>
    <path id="path8341" d="m-63.102-0.57706,0-28.633,10.801,0c1.901,0.000028,3.3528,0.09117,4.3555,0.27344,1.4062,0.2344,2.5846,0.68037,3.5352,1.3379,0.9505,0.65758,1.7155,1.5788,2.2949,2.7637s0.86912,2.487,0.86914,3.9062c-0.000025,2.4349-0.77476,4.4955-2.3242,6.1816-1.5495,1.6862-4.349,2.5293-8.3984,2.5293h-7.3438v11.641zm3.7891-15.02,7.4023,0c2.4479,0.000015,4.1862-0.45571,5.2148-1.3672,1.0286-0.91144,1.5429-2.194,1.543-3.8477-0.000021-1.1979-0.30276-2.2233-0.9082-3.0762-0.60549-0.85284-1.403-1.416-2.3926-1.6895-0.63804-0.16925-1.8164-0.25388-3.5352-0.25391h-7.3242z"/>
   </g>
  </g>
 </g>
</svg>
