<?xml version="1.0" encoding="UTF-8" standalone="no"?>
<!-- Created with Inkscape (http://www.inkscape.org/) -->
<svg id="svg8271" xmlns:rdf="http://www.w3.org/1999/02/22-rdf-syntax-ns#" xmlns="http://www.w3.org/2000/svg" height="64px" width="64px" version="1.1" xmlns:cc="http://creativecommons.org/ns#" xmlns:dc="http://purl.org/dc/elements/1.1/">
 <metadata id="metadata8276">
  <rdf:RDF>
   <cc:Work rdf:about="">
    <dc:format>image/svg+xml</dc:format>
    <dc:type rdf:resource="http://purl.org/dc/dcmitype/StillImage"/>
    <dc:title/>
   </cc:Work>
  </rdf:RDF>
 </metadata>
 <g id="layer1">
  <g id="g8303">
   <g id="g7619" fill-rule="nonzero">
    <path id="path7599" d="m-37.636,27.727c0,17.02-14.042,30.818-31.364,30.818s-31.364-13.798-31.364-30.818,14.042-30.818,31.364-30.818,31.364,13.798,31.364,30.818z" transform="matrix(0.95652175,0,0,0.95652175,98.000001,5.4782612)" fill="#000"/>
    <path id="path7599-5" d="m-37.636,27.727c0,17.02-14.042,30.818-31.364,30.818s-31.364-13.798-31.364-30.818,14.042-30.818,31.364-30.818,31.364,13.798,31.364,30.818z" transform="matrix(0.84492755,0,0,0.84492755,90.300001,8.572464)" fill="#FFF"/>
   </g>
   <g id="flowRoot8290" style="letter-spacing:0px;word-spacing:0px;" font-weight="normal" transform="matrix(0.73775219,0,0,0.73775219,94.35735,37.61593)" font-size="40px" font-style="normal" font-family="Sans" line-height="125%" fill="#000">
    <path id="path8299" d="m-90.109-3.3349,3.7891,0.95703c-0.7943,3.112-2.2233,5.485-4.2871,7.1191s-4.5866,2.4512-7.5684,2.4512c-3.0859-5E-7-5.5957-0.62826-7.5293-1.8848s-3.405-3.0762-4.4141-5.459-1.5137-4.9414-1.5137-7.6758c0-2.9818,0.56966-5.5827,1.709-7.8027s2.7604-3.9062,4.8633-5.0586c2.1029-1.1523,4.4173-1.7285,6.9434-1.7285,2.8646,0.000029,5.2734,0.7292,7.2266,2.1875,1.9531,1.4584,3.3138,3.5091,4.082,6.1523l-3.7305,0.87891c-0.66408-2.0833-1.6276-3.6002-2.8906-4.5508-1.263-0.9505-2.8516-1.4258-4.7656-1.4258-2.2005,0.000026-4.0397,0.52737-5.5176,1.582-1.4779,1.0547-2.5163,2.4707-3.1152,4.248-0.59896,1.7774-0.89844,3.61-0.89843,5.498-0.00001,2.4349,0.35481,4.5606,1.0644,6.377,0.70963,1.8164,1.8131,3.1738,3.3106,4.0723,1.4974,0.89844,3.1185,1.3477,4.8633,1.3477,2.1224,0.0000028,3.9193-0.61198,5.3906-1.8359,1.4713-1.224,2.4674-3.0404,2.9883-5.4492z"/>
    <path id="path8301" d="m-61.203-3.3349,3.7891,0.95703c-0.7943,3.112-2.2233,5.485-4.2871,7.1191s-4.5866,2.4512-7.5684,2.4512c-3.086-5E-7-5.5957-0.62826-7.5293-1.8848s-3.405-3.0762-4.4141-5.459-1.5137-4.9414-1.5137-7.6758c-0.000002-2.9818,0.56966-5.5827,1.709-7.8027s2.7604-3.9062,4.8633-5.0586c2.1029-1.1523,4.4173-1.7285,6.9434-1.7285,2.8646,0.000029,5.2734,0.7292,7.2266,2.1875,1.9531,1.4584,3.3138,3.5091,4.082,6.1523l-3.7305,0.87891c-0.66408-2.0833-1.6276-3.6002-2.8906-4.5508-1.263-0.9505-2.8516-1.4258-4.7656-1.4258-2.2005,0.000026-4.0397,0.52737-5.5176,1.582-1.4779,1.0547-2.5163,2.4707-3.1152,4.248-0.59896,1.7774-0.89844,3.61-0.89844,5.498-0.000006,2.4349,0.35481,4.5606,1.0645,6.377,0.70963,1.8164,1.8131,3.1738,3.3105,4.0723,1.4974,0.89844,3.1185,1.3477,4.8633,1.3477,2.1224,0.0000028,3.9193-0.61198,5.3906-1.8359,1.4713-1.224,2.4674-3.0404,2.9883-5.4492z"/>
   </g>
  </g>
 </g>
</svg>
