<?xml version="1.0" encoding="UTF-8" standalone="no"?>
<!-- Created with Inkscape (http://www.inkscape.org/) -->
<svg id="svg3019" xmlns:rdf="http://www.w3.org/1999/02/22-rdf-syntax-ns#" xmlns="http://www.w3.org/2000/svg" height="64px" width="64px" version="1.1" xmlns:cc="http://creativecommons.org/ns#" xmlns:dc="http://purl.org/dc/elements/1.1/">
 <metadata id="metadata3024">
  <rdf:RDF>
   <cc:Work rdf:about="">
    <dc:format>image/svg+xml</dc:format>
    <dc:type rdf:resource="http://purl.org/dc/dcmitype/StillImage"/>
    <dc:title/>
   </cc:Work>
  </rdf:RDF>
 </metadata>
 <g id="layer1">
  <g id="g3015" transform="matrix(1.0899015,0,0,1.0899015,15.392857,0.25892851)">
   <g id="g5878">
    <path id="path2995-8" d="M5.8542,53.017c7.8258-13.562,7.6908-37.954-1.0912-48.958-1.1025-1.3814-1.7098-3.0685-1.9121-3.8903-0.0254-0.10297,8.4111,8.3085,10.326,13.965l1.8258,5.3933,2.247-6.4469c1.222-3.5084,3.828-7.7973,5.679-9.5705l3.365-3.224-3.514,7.5092c-2.997,6.4033-3.59,9.0763-4.027,18.151-0.42049,8.7323-0.09968,12.002,1.7873,18.214,1.2649,4.1644,3.376,8.9398,4.6914,10.612l2.3915,3.0403-2.3357-1.25c-2.798-1.497-7.556-9.321-9.159-15.063l-1.156-4.14-1.313,4.362c-1.875,6.229-4.2973,10.499-7.734,13.632l-2.9901,2.7263z" fill="#FFF"/>
    <path id="path2995-82" d="M6.6332,51.034c7.1768-12.437,7.0518-34.804-1.0006-44.894-1.0109-1.2667-1.5678-2.8137-1.7534-3.5674-0.0232-0.0944,7.7128,7.6189,9.4688,12.805l1.6742,4.9455,2.0605-5.9117c1.1213-3.2171,3.5105-7.1499,5.2077-8.7759l3.0857-2.9563-3.2223,6.8858c-2.7477,5.8717-3.2915,8.3231-3.6922,16.645-0.38558,8.0073-0.0914,11.005,1.639,16.702,1.1599,3.8187,3.0957,8.1976,4.3019,9.731l2.193,2.7879-2.1418-1.1462c-2.5672-1.3739-6.9301-8.5483-8.4-13.813l-1.06-3.7965-1.2042,4c-1.7193,5.7113-3.9408,9.6266-7.0922,12.5l-2.7419,2.5z" fill="#000"/>
   </g>
  </g>
 </g>
</svg>
