<?xml version="1.0" encoding="UTF-8" standalone="no"?>
<!-- Created with Inkscape (http://www.inkscape.org/) -->
<svg id="svg8351" xmlns:rdf="http://www.w3.org/1999/02/22-rdf-syntax-ns#" xmlns="http://www.w3.org/2000/svg" height="64px" width="64px" version="1.1" xmlns:cc="http://creativecommons.org/ns#" xmlns:dc="http://purl.org/dc/elements/1.1/">
 <metadata id="metadata8356">
  <rdf:RDF>
   <cc:Work rdf:about="">
    <dc:format>image/svg+xml</dc:format>
    <dc:type rdf:resource="http://purl.org/dc/dcmitype/StillImage"/>
    <dc:title/>
   </cc:Work>
  </rdf:RDF>
 </metadata>
 <g id="layer1">
  <g id="g8383">
   <g id="g7619" fill-rule="nonzero">
    <path id="path7599" d="m-37.636,27.727c0,17.02-14.042,30.818-31.364,30.818s-31.364-13.798-31.364-30.818,14.042-30.818,31.364-30.818,31.364,13.798,31.364,30.818z" transform="matrix(0.95652175,0,0,0.95652175,98.000001,5.4782612)" fill="#000"/>
    <path id="path7599-5" d="m-37.636,27.727c0,17.02-14.042,30.818-31.364,30.818s-31.364-13.798-31.364-30.818,14.042-30.818,31.364-30.818,31.364,13.798,31.364,30.818z" transform="matrix(0.84492755,0,0,0.84492755,90.300001,8.572464)" fill="#FFF"/>
   </g>
   <g id="flowRoot8370" style="letter-spacing:0px;word-spacing:0px;" font-weight="normal" transform="matrix(0.7529412,0,0,0.7529412,89.770589,45.002141)" font-size="40px" font-style="normal" font-family="Sans" line-height="125%" fill="#000">
    <path id="path8379" d="m-103.29-2.9521,0-28.633,9.8633,0c2.2265,0.000028,3.9258,0.13675,5.0977,0.41016,1.6406,0.37763,3.0403,1.0612,4.1992,2.0508,1.5104,1.2761,2.6399,2.9069,3.3887,4.8926,0.74867,1.9857,1.123,4.2546,1.123,6.8066-0.000027,2.1745-0.25393,4.1016-0.76172,5.7812-0.50784,1.6797-1.1589,3.0697-1.9531,4.1699-0.79429,1.1003-1.6634,1.9661-2.6074,2.5977-0.94403,0.63151-2.0834,1.11-3.418,1.4355-1.3347,0.32552-2.8679,0.48828-4.5996,0.48828zm3.7891-3.3789,6.1133,0c1.888,0.0000034,3.3691-0.17578,4.4434-0.52734,1.0742-0.35156,1.9303-0.84635,2.5684-1.4844,0.89842-0.89843,1.5983-2.1061,2.0996-3.623,0.50128-1.5169,0.75193-3.3561,0.75195-5.5176-0.000023-2.9948-0.49156-5.2962-1.4746-6.9043-0.98309-1.608-2.1778-2.6855-3.584-3.2324-1.0156-0.3906-2.6498-0.58591-4.9023-0.58594h-6.0156z"/>
    <path id="path8381" d="m-53.953-12.991,3.7891,0.95703c-0.7943,3.112-2.2233,5.485-4.2871,7.1191s-4.5866,2.4512-7.5684,2.4512c-3.086-5E-7-5.5957-0.62826-7.5293-1.8848s-3.405-3.0762-4.4141-5.459-1.5137-4.9414-1.5137-7.6758c-0.000002-2.9818,0.56966-5.5827,1.709-7.8027s2.7604-3.9062,4.8633-5.0586c2.1029-1.1523,4.4173-1.7285,6.9434-1.7285,2.8646,0.000029,5.2734,0.7292,7.2266,2.1875,1.9531,1.4584,3.3138,3.5091,4.082,6.1523l-3.7305,0.87891c-0.66408-2.0833-1.6276-3.6002-2.8906-4.5508-1.263-0.9505-2.8516-1.4258-4.7656-1.4258-2.2005,0.000026-4.0397,0.52737-5.5176,1.582-1.4779,1.0547-2.5163,2.4707-3.1152,4.248-0.59896,1.7774-0.89844,3.61-0.89844,5.498-0.000006,2.4349,0.35481,4.5606,1.0645,6.377,0.70963,1.8164,1.8131,3.1738,3.3105,4.0723,1.4974,0.89844,3.1185,1.3477,4.8633,1.3477,2.1224,0.0000028,3.9193-0.61198,5.3906-1.8359,1.4713-1.224,2.4674-3.0404,2.9883-5.4492z"/>
   </g>
  </g>
 </g>
</svg>
