<?xml version="1.0" encoding="UTF-8" standalone="no"?>
<!-- Created with Inkscape (http://www.inkscape.org/) -->
<svg id="svg8391" xmlns:rdf="http://www.w3.org/1999/02/22-rdf-syntax-ns#" xmlns="http://www.w3.org/2000/svg" height="64px" width="64px" version="1.1" xmlns:cc="http://creativecommons.org/ns#" xmlns:dc="http://purl.org/dc/elements/1.1/">
 <metadata id="metadata8396">
  <rdf:RDF>
   <cc:Work rdf:about="">
    <dc:format>image/svg+xml</dc:format>
    <dc:type rdf:resource="http://purl.org/dc/dcmitype/StillImage"/>
    <dc:title/>
   </cc:Work>
  </rdf:RDF>
 </metadata>
 <g id="layer1">
  <g id="g8545">
   <g id="g7619" fill-rule="nonzero">
    <path id="path7599" d="m-37.636,27.727c0,17.02-14.042,30.818-31.364,30.818s-31.364-13.798-31.364-30.818,14.042-30.818,31.364-30.818,31.364,13.798,31.364,30.818z" transform="matrix(0.95652175,0,0,0.95652175,98.000001,5.4782612)" fill="#000"/>
    <path id="path7599-5" d="m-37.636,27.727c0,17.02-14.042,30.818-31.364,30.818s-31.364-13.798-31.364-30.818,14.042-30.818,31.364-30.818,31.364,13.798,31.364,30.818z" transform="matrix(0.84492755,0,0,0.84492755,90.300001,8.572464)" fill="#FFF"/>
   </g>
   <g id="flowRoot8532" style="letter-spacing:0px;word-spacing:0px;" font-weight="normal" transform="matrix(0.81205397,0,0,0.81205397,96.459955,27.70096)" font-size="40px" font-style="normal" font-family="Sans" line-height="125%" fill="#000">
    <path id="path8541" d="m-104.01,19.61,0-28.633,9.8633,0c2.2265,0.0000286,3.9258,0.13675,5.0977,0.41016,1.6406,0.37763,3.0403,1.0612,4.1992,2.0508,1.5104,1.2761,2.6399,2.9069,3.3887,4.8926,0.74867,1.9857,1.123,4.2546,1.123,6.8066-0.000027,2.1745-0.25393,4.1016-0.76172,5.7813-0.50784,1.6797-1.1589,3.0697-1.9531,4.1699-0.79429,1.1003-1.6634,1.9661-2.6074,2.5977-0.94403,0.63151-2.0834,1.11-3.418,1.4355-1.3347,0.32552-2.8679,0.48828-4.5996,0.48828zm3.7891-3.3789,6.1133,0c1.888,0.000003,3.3691-0.17578,4.4434-0.52734,1.0742-0.35156,1.9303-0.84635,2.5684-1.4844,0.89842-0.89843,1.5983-2.1061,2.0996-3.623,0.50128-1.5169,0.75193-3.3561,0.75195-5.5176-0.000023-2.9948-0.49156-5.2962-1.4746-6.9043-0.98309-1.608-2.1778-2.6855-3.584-3.2324-1.0156-0.3906-2.6498-0.58591-4.9023-0.58594h-6.0156z"/>
    <path id="path8543" d="m-77.387,19.61,0-3.5156,14.668-18.34c1.0416-1.3021,2.0312-2.4349,2.9688-3.3984h-15.977v-3.3789h20.508v3.3789l-16.074,19.863-1.7383,2.0117h18.281v3.3789z"/>
   </g>
  </g>
 </g>
</svg>
