<?xml version="1.0" encoding="UTF-8" standalone="no"?>
<!-- Created with Inkscape (http://www.inkscape.org/) -->
<svg id="svg3533" xmlns:rdf="http://www.w3.org/1999/02/22-rdf-syntax-ns#" xmlns="http://www.w3.org/2000/svg" height="64px" width="64px" version="1.1" xmlns:cc="http://creativecommons.org/ns#" xmlns:dc="http://purl.org/dc/elements/1.1/">
 <metadata id="metadata3538">
  <rdf:RDF>
   <cc:Work rdf:about="">
    <dc:format>image/svg+xml</dc:format>
    <dc:type rdf:resource="http://purl.org/dc/dcmitype/StillImage"/>
    <dc:title/>
   </cc:Work>
  </rdf:RDF>
 </metadata>
 <g id="layer1">
  <g id="g3561">
   <g id="g3001">
    <g id="g8504" fill-rule="nonzero">
     <path id="rect8484" fill="#000" d="M2,2,62,2,62,62,2,62z"/>
     <path id="rect8484-5" fill="#FFF" d="M5,5,59,5,59,59,5,59z"/>
    </g>
    <g id="g2998">
     <path id="path2991" fill="#000" d="m16.187,47.015-4.1297-4.2292,5.4848-5.4848,5.4848-5.4848-5.3517-5.419-5.3517-5.419,4.5724-4.2859,4.5724-4.2859,5.5263,5.4357,5.5263,5.4357,5.5678-5.4986,5.5678-5.4986,4.1378,4.2375,4.1378,4.2375-5.4848,5.4848-5.4848,5.4848,5.4903,5.5594,5.4903,5.5594-4.4376,4.4376-4.4376,4.4376-5.573-5.5038-5.573-5.5038-5.1872,5.2664c-2.853,2.8965-5.4641,5.2664-5.8026,5.2664-0.33848,0-2.4738-1.9032-4.7452-4.2292z"/>
    </g>
   </g>
  </g>
 </g>
</svg>
