<?xml version="1.0" encoding="UTF-8" standalone="no"?>
<!-- Created with Inkscape (http://www.inkscape.org/) -->
<svg id="svg3031" xmlns:rdf="http://www.w3.org/1999/02/22-rdf-syntax-ns#" xmlns="http://www.w3.org/2000/svg" height="64px" width="64px" version="1.1" xmlns:cc="http://creativecommons.org/ns#" xmlns:dc="http://purl.org/dc/elements/1.1/">
 <defs id="defs3033"></defs>
 <metadata id="metadata3036">
  <rdf:RDF>
   <cc:Work rdf:about="">
    <dc:format>image/svg+xml</dc:format>
    <dc:type rdf:resource="http://purl.org/dc/dcmitype/StillImage"/>
    <dc:title/>
   </cc:Work>
  </rdf:RDF>
 </metadata>
 <g id="layer1">
  <g id="g7875">
   <path id="path7804" d="M-36.727,40.182-70.909,4.1818-34.909-30-0.72727,6z" fill-rule="nonzero" transform="matrix(0.82642484,0,0,0.82642484,61.601037,27.792746)" fill="#FFF"/>
   <path id="path3003" fill="#000" d="M29.296,61.425c-1.133-0.475-7.738-6.628-14.678-13.675-10.23-10.387-12.618-13.37-12.618-15.767,0-2.42,2.4836-5.44,13.69-16.646,9.918-9.9181,14.368-13.691,16.148-13.691,1.776,0,6.3013,3.8146,16.31,13.748,11.225,11.141,13.852,14.297,13.852,16.639,0,2.3419-2.6274,5.4978-13.852,16.638-7.6185,7.5615-14.513,13.719-15.322,13.683-0.80856-0.03591-2.3972-0.45378-3.5302-0.9286zm16.723-15.729c6.9481-6.9314,12.633-13.066,12.633-13.633,0-1.3474-24.892-26.296-26.236-26.296-1.3474,0-26.296,24.892-26.296,26.236,0,1.3474,24.892,26.296,26.236,26.296,0.56684,0,6.7154-5.6712,13.664-12.603z"/>
   <path id="path3001" fill="#000" d="M28.391,60.568c-1.697-1.05-8.301-7.266-14.674-13.815-9.073-9.321-11.588-12.521-11.588-14.74,0-2.2564,2.6796-5.5209,13.133-16,8.2035-8.2238,14.214-13.422,16.013-13.849,2.638-0.62634,4.044,0.4689,16.738,13.039,11.786,11.671,13.858,14.194,13.858,16.877,0,2.6733-2.0019,5.1382-13.133,16.17-7.2232,7.1586-14.062,13.289-15.197,13.622-1.1776,0.346-3.3887-0.21311-5.1502-1.3023zm17.757-14.792c6.9481-6.9314,12.633-13.066,12.633-13.633,0-1.6164-25.031-26.296-26.67-26.296-1.9972,0-25.862,23.698-25.862,25.681,0,1.7242,24.551,26.851,26.236,26.851,0.56684,0,6.7154-5.6712,13.664-12.603z"/>
   <path id="path2999" fill="#000" d="M30.455,61.413c-2.659-1.024-28.326-27.035-28.326-28.705,0-2.7385,2.7108-6.1996,13.245-16.912,11.547-11.741,15.303-14.488,18.363-13.43,1.028,0.3551,7.778,6.4868,15.001,13.626,11.076,10.947,13.133,13.469,13.133,16.1,0,2.6313-2.0567,5.1526-13.133,16.1-7.223,7.139-13.828,13.213-14.678,13.498-0.85,0.284-2.472,0.16-3.605-0.277zm15.693-15.658c6.9481-6.9314,12.633-13.066,12.633-13.633,0-1.6651-25.056-26.296-26.75-26.296-2.4312,0-25.782,23.824-25.782,26.305,0,2.4061,23.462,26.227,25.832,26.227,0.78911,0,7.1195-5.6712,14.068-12.603z"/>
   <path id="path2997" fill="#000" d="M15.728,47.751c-7.5656-7.64-13.599-14.576-13.599-15.633,0-1.0595,6.0806-8.0262,13.748-15.751,11.041-11.125,14.308-13.852,16.595-13.852,2.2731,0,5.5218,2.6691,16.123,13.247,11.177,11.152,13.276,13.74,13.276,16.367,0,2.625-2.0854,5.2006-13.147,16.238-11.057,11.032-13.644,13.118-16.272,13.118-2.6437,0-5.2193-2.1151-16.724-13.733zm30.421-1.9592c6.9481-6.9314,12.633-13.066,12.633-13.633,0-1.6651-25.056-26.296-26.75-26.296-2.3727,0-25.782,23.82-25.782,26.235,0,2.4187,23.355,26.298,25.72,26.298,0.85046,0,7.2311-5.6712,14.179-12.603z"/>
   <path id="path2995" fill="#000" d="M15.762,48.08c-10.479-10.502-13.247-13.862-13.247-16.08,0-2.2176,2.768-5.5775,13.247-16.08,11.219-11.244,13.73-13.276,16.403-13.276,2.6778,0,5.1378,2.003,16.238,13.222,10.65,10.763,13.082,13.772,13.082,16.179,0,2.4163-2.4126,5.3705-13.177,16.135-10.971,10.971-13.689,13.177-16.238,13.177-2.5515,0-5.2672-2.2109-16.308-13.276zm30-2.416c6.9481-6.9314,12.633-13.066,12.633-13.633,0-1.7065-25.078-26.296-26.818-26.296-1.6181,0-26.744,24.677-26.744,26.266,0,1.5708,25.116,26.266,26.713,26.266,0.87063,0,7.2678-5.6712,14.216-12.603z"/>
   <path id="path2993" fill="#000" d="M15.762,48.08c-10.479-10.502-13.247-13.862-13.247-16.08,0-2.2176,2.768-5.5775,13.247-16.08,11.219-11.244,13.73-13.276,16.403-13.276,2.6778,0,5.1378,2.003,16.238,13.222,10.65,10.763,13.082,13.772,13.082,16.179,0,2.4163-2.4126,5.3705-13.177,16.135-10.971,10.971-13.689,13.177-16.238,13.177-2.5515,0-5.2672-2.2109-16.308-13.276zm30-2.4163c6.9481-6.9314,12.633-13.262,12.633-14.068,0-2.4216-23.805-25.862-26.264-25.862-1.4075,0-6.574,4.457-14.733,12.71-6.9109,6.9904-12.565,13.091-12.565,13.556,0,1.5708,25.116,26.266,26.713,26.266,0.87063,0,7.2678-5.6712,14.216-12.603z"/>
   <path id="path2991" fill="#000" d="M15.865,48.274c-11.218-11.1-13.221-13.56-13.221-16.238,0-2.6711,2.0194-5.1708,13.147-16.274,10.88-10.856,13.67-13.118,16.18-13.118,2.5114,0,5.295,2.2629,16.209,13.177,10.855,10.855,13.176,13.705,13.176,16.179,0,2.4737-2.3214,5.324-13.177,16.179-10.764,10.765-13.718,13.177-16.134,13.177-2.4079,0-5.4164-2.4326-16.179-13.082zm30.282-2.0949c7.6638-7.6439,12.118-12.869,12.118-14.216,0-1.358-4.6026-6.6791-12.71-14.694-6.989-6.911-13.091-12.565-13.558-12.565-1.2528,0-27.293,25.98-27.293,27.23,0,2.042,25.151,26.332,27.265,26.332,1.2545,0,6.7987-4.7262,14.179-12.087z"/>
   <path id="path2989" fill="#000" d="M15.865,48.274c-11.283-11.164-13.221-13.55-13.221-16.274s1.9384-5.1099,13.222-16.274c10.68-10.568,13.782-13.082,16.14-13.082,2.3669,0,5.4184,2.4994,16.135,13.216,9.6938,9.6938,13.216,13.884,13.216,15.722,0,3.5426-26.251,29.774-29.797,29.774-1.7865,0-6.142-3.6306-15.694-13.082zm29.691-1.5432c8.246-8.152,12.71-13.326,12.71-14.731,0-1.4049-4.4645-6.5793-12.71-14.731-6.99-6.911-13.125-12.565-13.634-12.565-1.3159,0-27.219,26.011-27.219,27.332,0,1.27,26.021,27.26,27.293,27.26,0.46732,0,6.5691-5.6544,13.56-12.565z"/>
  </g>
 </g>
</svg>
