<?xml version="1.0" encoding="UTF-8" standalone="no"?>
<!-- Created with Inkscape (http://www.inkscape.org/) -->
<svg id="svg3486" xmlns:rdf="http://www.w3.org/1999/02/22-rdf-syntax-ns#" xmlns="http://www.w3.org/2000/svg" height="64px" width="64px" version="1.1" xmlns:cc="http://creativecommons.org/ns#" xmlns:dc="http://purl.org/dc/elements/1.1/">
 <metadata id="metadata3491">
  <rdf:RDF>
   <cc:Work rdf:about="">
    <dc:format>image/svg+xml</dc:format>
    <dc:type rdf:resource="http://purl.org/dc/dcmitype/StillImage"/>
    <dc:title/>
   </cc:Work>
  </rdf:RDF>
 </metadata>
 <g id="layer1">
  <g id="g3514">
   <g id="g8504" fill-rule="nonzero">
    <path id="rect8484" fill="#000" d="M2,2,62,2,62,62,2,62z"/>
    <path id="rect8484-5" fill="#FFF" d="M5,5,59,5,59,59,5,59z"/>
   </g>
   <path id="path2989" fill="#000" d="m15.303,52.774c-2.247-1.0837-2.3684-1.7461-2.3684-12.924,0-10.077,0.27853-12.033,1.925-13.523,3.5859-3.2452,5.1962-2.1916,6.5886,4.3105,0.71286,3.3289,1.6305,6.7089,2.0392,7.511,0.51338,1.0075,4.2369-2.8976,12.044-12.632,10.468-13.052,13.768-16.496,14.808-15.456,0.22329,0.22329,0.53288,2.2799,0.68799,4.5702,0.26524,3.9166-0.55493,5.2127-13.792,21.796-14.925,18.698-15.763,19.323-21.933,16.347z"/>
  </g>
 </g>
</svg>
