<?xml version="1.0" encoding="UTF-8" standalone="no"?>
<!-- Created with Inkscape (http://www.inkscape.org/) -->
<svg id="svg3131" xmlns:rdf="http://www.w3.org/1999/02/22-rdf-syntax-ns#" xmlns="http://www.w3.org/2000/svg" height="64px" width="64px" version="1.1" xmlns:cc="http://creativecommons.org/ns#" xmlns:dc="http://purl.org/dc/elements/1.1/">
 <metadata id="metadata3136">
  <rdf:RDF>
   <cc:Work rdf:about="">
    <dc:format>image/svg+xml</dc:format>
    <dc:type rdf:resource="http://purl.org/dc/dcmitype/StillImage"/>
    <dc:title/>
   </cc:Work>
  </rdf:RDF>
 </metadata>
 <g id="layer1">
  <g id="g7987">
   <path id="path7804" d="M-36.727,40.182-70.909,4.1818-34.909-30-0.72727,6z" fill-rule="nonzero" transform="matrix(0.82642484,0,0,0.82642484,61.601037,27.792746)" fill="#FFF"/>
   <path id="path3103" fill="#000" d="m30.985,61.098c-0.58974-0.95422,3.2199-5.1512,4.6758-5.1512,2.0414,0,1.9915,2.5577-0.08267,4.2373-2.5876,2.0953-3.7233,2.3213-4.5931,0.91392zm-7.1929-4.1648c-1.6576-1.8316-1.6982-2.2411-0.35497-3.5843s1.7838-1.2319,3.8565,0.97443c2.328,2.478,2.1771,4.6778-0.32082,4.6778-0.7201,0-2.1514-0.93055-3.1807-2.0679zm14.977-2.2897c-1.669-2.0111,3.2931-6.8242,5.1357-4.9816,0.95076,0.95076,0.6471,1.7971-1.3676,3.8118-2.1631,2.1631-2.7838,2.3558-3.7681,1.1697zm-22.103-4.836c-1.658-1.832-1.698-2.241-0.355-3.584,1.3432-1.3432,1.7838-1.2319,3.8565,0.97444,2.328,2.478,2.1771,4.6778-0.32082,4.6778-0.7201,0-2.1514-0.93056-3.1807-2.0679zm29.23-2.2897c-1.669-2.0111,3.2931-6.8242,5.1357-4.9816,0.95076,0.95076,0.6471,1.7971-1.3676,3.8118-2.1631,2.1631-2.7838,2.3558-3.7681,1.1697zm-36.357-4.837c-1.6576-1.831-1.6981-2.241-0.355-3.584,1.3432-1.3432,1.7838-1.2319,3.8565,0.97444,2.328,2.478,2.1771,4.6778-0.32082,4.6778-0.7201,0-2.1514-0.93056-3.1807-2.0679zm43.484-2.29c-1.669-2.0111,3.2931-6.8242,5.1357-4.9816,0.95076,0.95076,0.6471,1.7971-1.3676,3.8118-2.1631,2.1631-2.7838,2.3558-3.7681,1.1697zm-49.909-5.362c-1.5483-3.3982-1.4911-4.5336,0.22853-4.5336,1.7497,0,5.005,4.7891,4.1717,6.1374-1.1087,1.795-3.1993,1.033-4.4002-1.603zm53.847-4.945c-1.294-2.4178-0.81072-4.6785,1.0001-4.6785,0.84037,0,4.0385,5.2005,4.0385,6.5671,0,1.6691-3.9212,0.19931-5.0386-1.8886zm-52.53-1.7c-0.68944-1.1155,3.2536-6.0332,4.8375-6.0332,1.8299,0,1.9963,3.2157,0.26531,5.1284-2.0019,2.2121-4.0684,2.5785-5.1028,0.90481zm46.019-4.841c-3.5261-3.8963-0.85723-6.7551,2.9592-3.1698,1.8766,1.7629,2.1902,2.6301,1.3271,3.67-1.5019,1.8097-2.2778,1.7192-4.2863-0.50022zm-38.893-2.286c-0.68944-1.1155,3.2536-6.0332,4.8375-6.0332,1.8299,0,1.9963,3.2157,0.26531,5.1284-2.0019,2.2121-4.0684,2.5785-5.1028,0.90481zm31.642-4.977c-1.731-1.9127-1.5646-5.1284,0.26531-5.1284,1.5839,0,5.5269,4.9177,4.8375,6.0332-1.0344,1.6737-3.1008,1.3073-5.1028-0.90481zm-24.515-2.149c-0.37169-0.6014,0.37722-2.2143,1.6642-3.5843,2.0727-2.2063,2.5133-2.3176,3.8565-0.97443s1.3026,1.7527-0.35497,3.5843c-2.0589,2.2751-4.1215,2.6641-5.1658,0.97442zm17.389-4.9776c-1.731-1.9127-1.5646-5.1284,0.26531-5.1284,1.5839,0,5.5269,4.9177,4.8375,6.0332-1.0344,1.6737-3.1008,1.3073-5.1028-0.90481zm-10.302-2.2138c-0.7602-1.23,3.2732-4.8898,5.4314-4.9282,1.8855-0.033495,1.5426,3.1113-0.50905,4.6687-2.2115,1.6788-3.9873,1.7724-4.9223,0.25944z"/>
   <path id="path3099" fill="#000" d="m31.522,60.436c0-2.29,3.9575-4.7441,5.371-3.3306,1.3207,1.3207-0.49827,3.7524-3.3682,4.5029-1.3998,0.36606-2.0028,0.0131-2.0028-1.1722zm-7.1017-3.6864c-2.1462-2.2845-2.2021-2.5816-0.60174-3.1958,2.0879-0.80121,6.2778,2.8848,5.2217,4.5937-1.0361,1.6765-2.008,1.3824-4.62-1.3979zm14.674-2.6745c-0.38097-0.61644,0.27411-2.0876,1.4558-3.2692,1.6584-1.6584,2.4242-1.8727,3.3574-0.93947,0.93323,0.93324,0.78372,1.6789-0.65554,3.2692-2.1069,2.3281-3.1533,2.5646-4.1576,0.93947zm-21.801-4.453c-2.1462-2.2845-2.2021-2.5816-0.60174-3.1958,2.0879-0.80121,6.2778,2.8848,5.2217,4.5937-1.0361,1.6765-2.008,1.3824-4.62-1.3979zm28.927-2.6745c-0.38097-0.61644,0.27411-2.0876,1.4558-3.2692,1.6584-1.6584,2.4242-1.8727,3.3574-0.93947,0.93323,0.93324,0.78372,1.6789-0.65554,3.2692-2.1069,2.3281-3.1533,2.5646-4.1576,0.93947zm-36.053-4.452c-2.1465-2.285-2.2024-2.582-0.602-3.196,2.0879-0.80121,6.2778,2.8848,5.2217,4.5937-1.0361,1.6765-2.008,1.3824-4.62-1.3979zm43.181-2.6745c-0.38097-0.61644,0.27411-2.0876,1.4558-3.2692,1.6584-1.6584,2.4242-1.8727,3.3574-0.93947,0.93323,0.93324,0.78372,1.6789-0.65554,3.2692-2.1069,2.3281-3.1533,2.5646-4.1576,0.93947zm-49.032-3.207c-0.5416-0.69994-1.2705-2.0744-1.6199-3.0543-0.91758-2.574,2.5417-2.3291,4.181,0.29594,1.9744,3.1614-0.32945,5.6426-2.5612,2.7584zm52.82-5.974c-0.93202-1.4924-1.0207-2.4821-0.28804-3.2148,1.3206-1.3207,3.7524,0.49827,4.5028,3.3682,0.72582,2.7756-2.458,2.6597-4.2148-0.15338zm-51.592-1.942c-1.0388-1.6808,3.2348-5.8164,4.5998-4.4513,0.7118,0.7118,0.26465,1.774-1.4084,3.3458-1.7275,1.622-2.6699,1.949-3.1914,1.105zm44.791-5.0884c-1.4393-1.5904-1.5888-2.336-0.65554-3.2692,0.93323-0.93324,1.699-0.71896,3.3574,0.93947,1.1816,1.1816,1.8367,2.6528,1.4558,3.2692-1.0044,1.6251-2.0507,1.3886-4.1576-0.93947zm-37.664-2.039c-1.0388-1.6807,3.2348-5.8164,4.5998-4.4513,0.7118,0.7118,0.26464,1.774-1.4084,3.3458-1.7274,1.6228-2.6699,1.9493-3.1913,1.1055zm30.537-5.0884c-1.4393-1.5904-1.5888-2.336-0.65554-3.2692,0.93323-0.93324,1.699-0.71896,3.3574,0.93947,1.1816,1.1816,1.8367,2.6528,1.4558,3.2692-1.0044,1.6251-2.0507,1.3886-4.1576-0.93947zm-23.41-2.039c-1.0388-1.6808,3.2348-5.8164,4.5998-4.4513,0.7118,0.71179,0.26464,1.774-1.4084,3.3458-1.7274,1.6228-2.6699,1.9493-3.1913,1.1055zm16.284-5.0881c-1.44-1.5904-1.589-2.336-0.656-3.2693,0.93323-0.93324,1.699-0.71896,3.3574,0.93947,1.1816,1.1816,1.8367,2.6528,1.4558,3.2692-1.0044,1.6251-2.0507,1.3886-4.1576-0.93947zm-9.267-2.2154c-0.69139-1.1187,3.0252-4.8872,4.8199-4.8872,0.49792,0,0.90532,0.84275,0.90532,1.8728,0,2.2968-4.6542,4.7474-5.7252,3.0144z"/>
   <path id="path3097" fill="#000" d="m31.734,59.973c0-1.9714,4.0934-4.1945,5.371-2.9169,0.73265,0.73266,0.65732,1.542-0.2447,2.6288-1.5671,1.8883-5.1263,2.0883-5.1263,0.28805zm-7.0258-3.1918c-1.5776-1.6792-1.9261-2.6629-1.1202-3.161,1.3516-0.83533,6.3151,3.4249,5.5093,4.7287-0.87088,1.4091-1.9569,1.0212-4.3891-1.5677zm14.598-2.7554c-0.38097-0.61644,0.27411-2.0876,1.4558-3.2692,1.6584-1.6584,2.4242-1.8727,3.3574-0.93947,0.93323,0.93324,0.78372,1.6789-0.65554,3.2692-2.1069,2.3281-3.1533,2.5646-4.1576,0.93947zm-21.725-4.371c-1.5776-1.6792-1.9261-2.6629-1.1202-3.161,1.3516-0.83533,6.3151,3.4249,5.5093,4.7287-0.87088,1.4091-1.9569,1.0212-4.3891-1.5677zm28.852-2.7554c-0.38097-0.61644,0.27411-2.0876,1.4558-3.2692,1.6584-1.6584,2.4242-1.8727,3.3574-0.93946,0.93323,0.93323,0.78372,1.6789-0.65554,3.2692-2.1069,2.3281-3.1533,2.5646-4.1576,0.93947zm-35.979-4.372c-1.5772-1.679-1.9258-2.663-1.1198-3.161,1.3516-0.83532,6.3151,3.4249,5.5093,4.7287-0.87088,1.4091-1.9569,1.0212-4.3891-1.5677zm43.105-2.7553c-0.38097-0.61644,0.27411-2.0876,1.4558-3.2692,1.6584-1.6584,2.4242-1.8727,3.3574-0.93946,0.93323,0.93323,0.78372,1.6789-0.65554,3.2692-2.1069,2.3281-3.1533,2.5645-4.1576,0.93946zm-49.031-3.207c-0.5416-0.7-1.2706-2.074-1.6199-3.054-1.0087-2.8296,2.8487-2.2158,4.1599,0.662,1.5272,3.3519-0.39601,5.1632-2.5401,2.3923zm52.86-6.326c-0.75601-1.6593-0.79626-2.7233-0.11883-3.142,1.4566-0.90024,3.9894,1.4738,3.9894,3.7393,0,2.7458-2.5249,2.3562-3.8706-0.59735zm-51.632-1.59c-1.0388-1.6807,3.2348-5.8164,4.5998-4.4513,0.7118,0.7118,0.26464,1.774-1.4084,3.3458-1.7274,1.6229-2.6699,1.9493-3.1913,1.1055zm45.435-5.453c-1.6228-1.7274-1.9493-2.6699-1.1055-3.1913,1.6808-1.0388,5.8164,3.2348,4.4514,4.5998-0.7118,0.7118-1.774,0.26465-3.3458-1.4084zm-38.308-1.674c-1.0388-1.6807,3.2348-5.8164,4.5998-4.4513,0.7118,0.7118,0.26464,1.774-1.4084,3.3458-1.7274,1.6229-2.6699,1.9493-3.1913,1.1055zm31.182-5.4525c-1.6228-1.7274-1.9493-2.6699-1.1055-3.1913,1.6808-1.0388,5.8164,3.2348,4.4514,4.5998-0.7118,0.7118-1.774,0.26464-3.3458-1.4084zm-24.056-1.673c-1.0388-1.6807,3.2348-5.8164,4.5998-4.4513,0.7118,0.7118,0.26464,1.774-1.4084,3.3458-1.7274,1.6229-2.6699,1.9493-3.1913,1.1055zm16.929-5.453c-1.623-1.7274-1.95-2.6699-1.106-3.1913,1.681-1.0388,5.816,3.2347,4.451,4.5993-0.711,0.712-1.774,0.265-3.345-1.408zm-9.873-1.7887c-0.79761-1.2906,1.1984-3.5855,3.6837-4.2354,1.398-0.36559,2.0004-0.014559,1.9949,1.1626-0.0092,1.9679-4.7695,4.5438-5.6786,3.0728z"/>
   <path id="path3095" fill="none" d="m31.49,59.652c0-1.9131,4.7891-4.02,5.7187-2.5158,0.76141,1.232-2.2319,3.8796-4.3862,3.8796-0.73291,0-1.3326-0.61368-1.3326-1.3637zm-6.4599-2.5343c-1.7906-1.9786-2.2416-4.2468-0.84431-4.2468,1.3779,0,5.3441,4.6751,4.5985,5.4206-1.0903,1.0903-1.948,0.82209-3.7542-1.1738zm14.032-3.3314c-0.38097-0.61643,0.27411-2.0876,1.4558-3.2692,1.6584-1.6584,2.4242-1.8727,3.3574-0.93946,0.93323,0.93323,0.78372,1.6789-0.65554,3.2692-2.1069,2.3281-3.1533,2.5645-4.1576,0.93946zm-21.158-3.796c-1.7906-1.9786-2.2416-4.2468-0.84431-4.2468,1.3779,0,5.3441,4.6751,4.5985,5.4206-1.0903,1.0903-1.948,0.82209-3.7542-1.1738zm28.489-3.0026c-0.26923-0.43562,0.36621-1.9246,1.4121-3.3088,1.5027-1.9888,2.1644-2.2549,3.1542-1.2682,0.9911,0.98788,0.86335,1.6787-0.61188,3.3088-1.9774,2.185-3.1545,2.5625-3.9545,1.2682zm-35.715-4.2343c-2.7084-2.9927-0.88685-4.7919,2.0542-2.0289,1.3236,1.2434,2.1645,2.6523,1.8687,3.1309-0.84029,1.3596-1.9866,1.0376-3.9229-1.1019zm42.616-3.2582c-0.93904-1.5194,3.8309-5.1673,5.1019-3.9018,0.5781,0.5756,0.22148,1.7365-0.92137,2.9993-2.1193,2.3418-3.153,2.565-4.1805,0.90246zm-49.076-3.105c-1.6775-1.678-1.5631-4.9,0.174-4.9,1.1479,0,2.4946,2.6015,2.6352,5.0905,0.061901,1.0957-1.6381,0.98017-2.8092-0.19089zm53.075-6.434c-1.3554-2.9222-0.0394-4.392,2.2392-2.501,1.814,1.5055,1.9618,5.0565,0.20993,5.0456-0.69994-0.0041-1.8021-1.1494-2.4491-2.5446zm-51.781-1.546c-1.0388-1.681,3.2347-5.817,4.5996-4.452,0.7118,0.7118,0.26465,1.774-1.4084,3.3458-1.7274,1.6228-2.6699,1.9493-3.1913,1.1055zm45.436-5.453c-1.6228-1.7274-1.9493-2.6699-1.1055-3.1913,1.6808-1.0388,5.8164,3.2348,4.4514,4.5998-0.7118,0.7118-1.774,0.26464-3.3458-1.4084zm-38.309-1.674c-1.0388-1.6808,3.2348-5.8164,4.5998-4.4514,0.7118,0.7118,0.26464,1.774-1.4084,3.3458-1.7274,1.6228-2.6699,1.9493-3.1913,1.1055zm31.182-5.4525c-1.6228-1.7274-1.9493-2.6699-1.1055-3.1913,1.6808-1.0388,5.8164,3.2348,4.4514,4.5998-0.7118,0.7118-1.774,0.26464-3.3458-1.4084zm-24.055-1.675c-1.0388-1.6807,3.2348-5.8164,4.5998-4.4513,0.7118,0.7118,0.26464,1.774-1.4084,3.3458-1.7274,1.6228-2.6699,1.9493-3.1913,1.1055zm16.928-5.4524c-1.623-1.7275-1.949-2.6699-1.105-3.1914,1.68-1.0387,5.816,3.2348,4.451,4.5998-0.712,0.712-1.774,0.265-3.346-1.4084zm-9.82-1.704c-0.91408-1.479,1.4377-4.0165,3.7226-4.0165,2.6422,0,2.3907,1.4881-0.58062,3.4349-1.612,1.0562-2.7217,1.2616-3.142,0.58154z"/>
   <path id="path3093" fill="#000" d="m31.489,59.743c0.0112-1.7903,4.8805-3.9504,5.7465-2.5492,0.73329,1.1865-2.3158,3.8218-4.4218,3.8218-0.73291,0-1.329-0.57268-1.3246-1.2726zm-6.6256-2.7998c-1.2575-1.3895-1.5469-2.4237-0.86818-3.1024,0.67873-0.67873,1.6469-0.32333,2.9044,1.0662s1.5469,2.4237,0.86818,3.1024c-0.67873,0.67874-1.6469,0.32333-2.9044-1.0662zm14.345-2.9063c-0.29577-0.47856,0.54515-1.8875,1.8687-3.1309,2.941-2.7629,4.7625-0.96378,2.0542,2.0289-1.9363,2.1396-3.0826,2.4616-3.9229,1.1019zm-21.471-4.22c-1.2575-1.3895-1.5469-2.4237-0.86818-3.1024,0.67873-0.67873,1.6469-0.32333,2.9044,1.0662s1.5469,2.4237,0.86818,3.1024c-0.67873,0.67873-1.6469,0.32333-2.9044-1.0662zm28.598-2.9063c-0.29577-0.47856,0.54515-1.8875,1.8687-3.1309,2.941-2.7629,4.7625-0.96378,2.0542,2.0289-1.9363,2.1396-3.0826,2.4616-3.9229,1.1019zm-35.667-4.157c-2.7084-2.9927-0.88685-4.7919,2.0542-2.0289,1.3236,1.2434,2.1645,2.6523,1.8687,3.1309-0.84029,1.3596-1.9866,1.0376-3.9229-1.1019zm42.794-2.9705c-0.29577-0.47856,0.54515-1.8875,1.8687-3.1309,2.941-2.7629,4.7625-0.96379,2.0542,2.0289-1.9363,2.1396-3.0826,2.4616-3.9229,1.1019zm-49.4-4.092c-1.4762-2.7582-1.3658-4.2012,0.32138-4.2012,1.1479,0,2.4946,2.6015,2.6352,5.0905,0.084299,1.4932-2.0204,0.86009-2.9566-0.8893zm53.223-5.735c-1.3554-2.9222-0.0394-4.392,2.2392-2.501,1.814,1.5055,1.9618,5.0565,0.20993,5.0455-0.69994-0.0044-1.8021-1.1494-2.4491-2.5446zm-51.781-1.546c-1.0388-1.6808,3.2348-5.8164,4.5998-4.4513,0.7118,0.7118,0.26464,1.774-1.4084,3.3458-1.7274,1.6228-2.6699,1.9493-3.1913,1.1055zm45.435-5.453c-1.6228-1.7274-1.9493-2.6699-1.1055-3.1913,1.6808-1.0388,5.8164,3.2348,4.4514,4.5998-0.7118,0.7118-1.774,0.26464-3.3458-1.4084zm-38.309-1.674c-1.0388-1.6808,3.2348-5.8164,4.5998-4.4513,0.7118,0.7118,0.26464,1.774-1.4084,3.3458-1.7274,1.6228-2.6699,1.9493-3.1913,1.1055zm31.182-5.4525c-1.6228-1.7274-1.9493-2.6699-1.1055-3.1913,1.6808-1.0388,5.8164,3.2348,4.4514,4.5998-0.7118,0.7118-1.774,0.26464-3.3458-1.4084zm-24.055-1.675c-1.0388-1.6807,3.2348-5.8164,4.5998-4.4513,0.7118,0.7118,0.26464,1.774-1.4084,3.3458-1.7274,1.6228-2.6699,1.9493-3.1913,1.1055zm16.929-5.4524c-1.623-1.7275-1.95-2.6699-1.106-3.1914,1.6808-1.0388,5.8164,3.2348,4.4514,4.5998-0.7118,0.7118-1.774,0.26464-3.3458-1.4084zm-9.821-1.704c-0.914-1.479,1.438-4.0165,3.723-4.0165,2.6422,0,2.3907,1.4881-0.58062,3.4349-1.612,1.0562-2.7217,1.2616-3.142,0.58154z"/>
   <path id="path3091" fill="#000" d="m31.476,59.743c0.0112-1.7903,4.8805-3.9504,5.7465-2.5492,0.73329,1.1865-2.3158,3.8218-4.4218,3.8218-0.73291,0-1.329-0.57268-1.3246-1.2726zm-6.6256-2.7998c-1.2575-1.3895-1.5469-2.4237-0.86818-3.1024,0.67873-0.67873,1.6469-0.32333,2.9044,1.0662s1.5469,2.4237,0.86818,3.1024c-0.67873,0.67874-1.6469,0.32333-2.9044-1.0662zm14.345-2.9063c-0.29577-0.47856,0.54515-1.8875,1.8687-3.1309,2.941-2.7629,4.7625-0.96378,2.0542,2.0289-1.9363,2.1396-3.0826,2.4616-3.9229,1.1019zm-21.471-4.22c-1.2575-1.3895-1.5469-2.4237-0.86818-3.1024,0.67873-0.67873,1.6469-0.32333,2.9044,1.0662s1.5469,2.4237,0.86818,3.1024c-0.67873,0.67873-1.6469,0.32333-2.9044-1.0662zm28.598-2.907c-0.29577-0.47856,0.54515-1.8875,1.8687-3.1309,2.941-2.7629,4.7625-0.96378,2.0542,2.0289-1.9363,2.1396-3.0826,2.4616-3.9229,1.1019zm-35.725-4.22c-1.257-1.389-1.5464-2.424-0.8677-3.102,0.67873-0.67874,1.6469-0.32333,2.9044,1.0662s1.5469,2.4237,0.86818,3.1024c-0.67873,0.67873-1.6469,0.32333-2.9044-1.0662zm42.852-2.9063c-0.29577-0.47856,0.54515-1.8875,1.8687-3.1309,2.941-2.7629,4.7625-0.96379,2.0542,2.0289-1.9363,2.1396-3.0826,2.4616-3.9229,1.1019zm-49.375-4.044c-1.3745-2.569-1.426-4.249-0.1301-4.249,1.6424,0,3.4126,4.1572,2.2607,5.3091-0.67874,0.67873-1.3889,0.32524-2.1305-1.0605zm53.485-5.723c-1.1737-1.7913-1.3063-2.694-0.47169-3.2098,1.2534-0.77462,3.9066,2.193,3.9066,4.3694,0,2.1133-1.6569,1.554-3.435-1.1596zm-52.068-1.606c-1.0388-1.6808,3.2348-5.8164,4.5998-4.4513,0.7118,0.7118,0.26464,1.774-1.4084,3.3458-1.7274,1.6228-2.6699,1.9493-3.1913,1.1055zm45.435-5.453c-1.6228-1.7274-1.9493-2.6699-1.1055-3.1913,1.6808-1.0388,5.8164,3.2348,4.4514,4.5998-0.7118,0.7118-1.774,0.26464-3.3458-1.4084zm-38.308-1.674c-1.0388-1.6808,3.2348-5.8164,4.5998-4.4513,0.7118,0.7118,0.26464,1.774-1.4084,3.3458-1.7274,1.6228-2.6699,1.9493-3.1913,1.1055zm31.182-5.4525c-1.6228-1.7274-1.9493-2.6699-1.1055-3.1913,1.6808-1.0388,5.8164,3.2348,4.4514,4.5998-0.7118,0.7118-1.774,0.26464-3.3458-1.4084zm-24.056-1.675c-1.039-1.681,3.235-5.8163,4.6-4.4512,0.7118,0.7118,0.26465,1.774-1.4084,3.3458-1.7274,1.6228-2.6699,1.9493-3.1913,1.1055zm16.929-5.4524c-1.623-1.7275-1.95-2.6699-1.106-3.1914,1.681-1.0387,5.816,3.2348,4.451,4.5998-0.711,0.712-1.774,0.265-3.345-1.4084zm-9.888-1.8138c-0.77461-1.2534,2.193-3.9066,4.3694-3.9066,2.1133,0,1.554,1.6569-1.1596,3.4349-1.7913,1.1737-2.694,1.3063-3.2098,0.47169z"/>
  </g>
 </g>
</svg>
