<?xml version="1.0" encoding="UTF-8" standalone="no"?>
<!-- Created with Inkscape (http://www.inkscape.org/) -->
<svg id="svg3580" xmlns:rdf="http://www.w3.org/1999/02/22-rdf-syntax-ns#" xmlns="http://www.w3.org/2000/svg" height="64px" width="64px" version="1.1" xmlns:cc="http://creativecommons.org/ns#" xmlns:dc="http://purl.org/dc/elements/1.1/">
 <metadata id="metadata3585">
  <rdf:RDF>
   <cc:Work rdf:about="">
    <dc:format>image/svg+xml</dc:format>
    <dc:type rdf:resource="http://purl.org/dc/dcmitype/StillImage"/>
    <dc:title/>
   </cc:Work>
  </rdf:RDF>
 </metadata>
 <g id="layer1">
  <g id="g3511" transform="translate(-80.363637,-38.545455)">
   <g id="g3489" transform="matrix(1.0064503,0,0,1.0064503,-0.20640935,-0.2064096)">
    <g id="g3615" transform="translate(-22.762267,35.407972)">
     <g id="g3659">
      <g id="g8504" fill-rule="nonzero" transform="matrix(0.99359104,0,0,0.99359104,102.81594,3.0955334)">
       <rect id="rect8484" height="60" width="60" y="2" x="2" fill="#000"/>
       <rect id="rect8484-5" height="54" width="54" y="5" x="5" fill="#FFF"/>
      </g>
      <path id="path3487" stroke-linejoin="miter" d="m134.64,12.315-22.017,22.692,44.355,0z" stroke="#000" stroke-linecap="butt" stroke-width="1px" fill="#FF0"/>
      <path id="path2999-1" d="m121.7,47.738c-6.5237-6.5237-10.578-11.383-10.578-12.678,0-1.923,18.172-21.031,22.082-23.219,2.2405-1.2538,4.1424,0.16491,15.275,11.394,8.5551,8.6294,10.052,10.619,9.5356,12.674-0.93024,3.7064-20.406,22.406-23.336,22.406-1.6761,0-5.592-3.1917-12.978-10.578zm24.202-2.1257c8.8024-8.8391,9.4845-9.8084,8.369-11.893-1.1345-2.1199-1.3006-2.1513-2.5246-0.47738-2.194,3.0005-4.6874,1.0946-4.6874-3.5829,0-2.2433-0.46205-4.3643-1.0268-4.7133-0.63283-0.39111-1.0268,1.3584-1.0268,4.5599,0,4.5099-0.27062,5.1944-2.0535,5.1944-1.868,0-2.0535-0.68451-2.0535-7.575,0-5.4808-0.42581-7.9284-1.5402-8.8532-1.3488-1.1194-1.5402-0.1781-1.5402,7.575,0,8.1687-0.15878,8.8532-2.0535,8.8532-1.9113,0-2.0535-0.68451-2.0535-9.88,0-8.6658-0.18927-9.7229-1.5402-8.6018-1.1447,0.95005-1.5402,3.4866-1.5402,9.88,0,7.9173-0.16342,8.6018-2.0535,8.6018-1.8327,0-2.0535-0.68451-2.0535-6.366,0-7.5687-1.7691-7.0105-2.2486,0.7095-0.24287,3.9104-0.74404,5.2054-2.1151,5.4658-1.4076,0.26731-1.7968-0.36956-1.7968-2.9401,0-2.8003-0.22578-3.0939-1.5402-2.0031-0.84709,0.70302-1.5402,2.1457-1.5402,3.206s-0.69306,1.9278-1.5402,1.9278c-0.84709,0-1.5402,0.33786-1.5402,0.75078,0,1.4872,18.992,19.785,20.535,19.785,0.86939,0,5.8933-4.3306,11.164-9.6235z" fill="#000"/>
     </g>
    </g>
   </g>
  </g>
 </g>
</svg>
