<?xml version="1.0" encoding="UTF-8" standalone="no"?>
<!-- Created with Inkscape (http://www.inkscape.org/) -->
<svg id="svg3104" xmlns:rdf="http://www.w3.org/1999/02/22-rdf-syntax-ns#" xmlns="http://www.w3.org/2000/svg" height="64px" width="64px" version="1.1" xmlns:cc="http://creativecommons.org/ns#" xmlns:dc="http://purl.org/dc/elements/1.1/">
 <metadata id="metadata3109">
  <rdf:RDF>
   <cc:Work rdf:about="">
    <dc:format>image/svg+xml</dc:format>
    <dc:type rdf:resource="http://purl.org/dc/dcmitype/StillImage"/>
    <dc:title/>
   </cc:Work>
  </rdf:RDF>
 </metadata>
 <g id="layer1">
  <g id="g3153">
   <g id="g7619" fill-rule="nonzero">
    <path id="path7599" d="m-37.636,27.727c0,17.02-14.042,30.818-31.364,30.818s-31.364-13.798-31.364-30.818,14.042-30.818,31.364-30.818,31.364,13.798,31.364,30.818z" transform="matrix(0.95652175,0,0,0.95652175,98.000001,5.4782612)" fill="#000"/>
    <path id="path7599-5" d="m-37.636,27.727c0,17.02-14.042,30.818-31.364,30.818s-31.364-13.798-31.364-30.818,14.042-30.818,31.364-30.818,31.364,13.798,31.364,30.818z" transform="matrix(0.84492755,0,0,0.84492755,90.300001,8.572464)" fill="#FFF"/>
   </g>
   <g id="flowRoot3136" style="letter-spacing:0px;word-spacing:0px;" font-weight="normal" transform="matrix(0.48657636,0,0,0.48657636,67.234022,51.274368)" font-size="40px" font-style="normal" font-family="Sans" line-height="125%" fill="#000">
    <path id="path3145" d="m-113.52-25.296,0-28.633,3.7891,0,0,11.758,14.883,0,0-11.758,3.7891,0,0,28.633-3.7891,0,0-13.496-14.883,0,0,13.496z"/>
    <path id="path3147" d="m-84.648-25.296,0-28.633,20.703,0,0,3.3789-16.914,0,0,8.7695,15.84,0,0,3.3594-15.84,0,0,9.7461,17.578,0,0,3.3789z"/>
    <path id="path3149" d="m-58.164-25.296,0-28.633,3.7891,0,0,25.254,14.102,0,0,3.3789z"/>
    <path id="path3151" d="m-35.098-25.296,0-28.633,3.7891,0,0,28.633z"/>
   </g>
  </g>
 </g>
</svg>
