<?xml version="1.0" encoding="utf-8"?>
<!-- Generator: Adobe Illustrator 22.0.1, SVG Export Plug-In . SVG Version: 6.00 Build 0)  -->
<svg version="1.0" xmlns="http://www.w3.org/2000/svg" xmlns:xlink="http://www.w3.org/1999/xlink" x="0px" y="0px" width="63px"
	 height="63px" viewBox="0 0 63 63" enable-background="new 0 0 63 63" xml:space="preserve">
<g id="Apiary_Site">
</g>
<g id="Hoarder_x2F_High_Level_Fuel_Load_1_">
	<rect x="0" y="0" fill="#FFFFFF" width="63" height="63"/>
	<rect x="0" y="61.3" fill="#231F20" width="63" height="1.7"/>
	<rect x="0" fill="#231F20" width="63" height="1.7"/>
	
		<rect x="30.7" y="30.6" transform="matrix(4.492590e-11 -1 1 4.492590e-11 30.6506 93.6101)" fill="#231F20" width="63" height="1.7"/>
	
		<rect x="-30.6" y="30.6" transform="matrix(4.489748e-11 -1 1 4.489748e-11 -30.6101 32.3494)" fill="#231F20" width="63" height="1.7"/>
	<polygon fill="#FFFFFF" points="12.6,25 12.6,21.2 26.4,10.8 36,10.8 50.3,21.8 50.3,25 	"/>
	<rect x="13" y="25" fill="#FFFFFF" width="36.6" height="27.3"/>
	<g>
		<path fill="#E51E26" d="M17.2,50V28h7.2v8.2h14.1V28h7.2v22h-7.2v-9.3H24.4V50H17.2z"/>
	</g>
	<rect x="12.7" y="52.3" fill="#E51E26" width="37.7" height="1.3"/>
	<rect x="12.6" y="24.4" fill="#E51E26" width="37.7" height="1.3"/>
	
		<rect x="35.1" y="38.3" transform="matrix(5.792884e-11 -1 1 5.792884e-11 10.6939 88.6493)" fill="#E51E26" width="29.2" height="1.3"/>
	
		<rect x="-0.8" y="38.8" transform="matrix(5.975671e-11 -1 1 5.975671e-11 -26.2056 52.7657)" fill="#E51E26" width="28.2" height="1.3"/>
	<g>
		<path fill="#E51E26" d="M36.9,9.7c-0.4-0.3-1.2-0.6-1.8-0.6h-7.1c-0.5,0-1.4,0.3-1.8,0.6L9.9,22.3c-0.4,0.3-0.5,1-0.2,1.4l0.7,0.8
			c0.3,0.4,1,0.5,1.4,0.1l15.3-12.5c0,0,0,0,0,0l8.6,0c0,0,0,0,0,0c0,0,0.3,0.3,0.8,0.6l14.6,11.9c0.4,0.3,1.1,0.3,1.4-0.1l0.7-0.8
			c0.3-0.4,0.3-1.1-0.2-1.4L36.9,9.7z"/>
	</g>
</g>
<g id="Fire_Station_-_Scale_Dependent">
</g>
<g id="Fire_Station_-_Secondary">
</g>
<g id="Fire_Station_-_Main">
</g>
<g id="Police_Facility_-_Scale_Dependent">
</g>
<g id="Police_Facility_-_Secondary">
</g>
<g id="Police_Facility_-_Main">
</g>
<g id="Life_Saving_Facility_-_Scale_Dependent_1_">
</g>
<g id="Life_Saving_Facility_-_Secondary">
</g>
<g id="Life_Saving_Facility_-_Main">
</g>
<g id="SES_Facility_-_Scale_Dependent">
</g>
<g id="SES_Facility_-_Secondary">
</g>
<g id="SES_Facility_-_Main">
</g>
<g id="Ambulance_Facility_-_Scale_Dependent_1_">
</g>
<g id="Ambulance_Facility_-_Secondary">
</g>
<g id="Ambulance_Facility_-_Main">
</g>
<g id="General_Observation">
</g>
</svg>
