<?xml version="1.0" encoding="UTF-8" standalone="no"?>
<!-- Created with Inkscape (http://www.inkscape.org/) -->
<svg id="svg3024" xmlns:rdf="http://www.w3.org/1999/02/22-rdf-syntax-ns#" xmlns="http://www.w3.org/2000/svg" height="64px" width="64px" version="1.1" xmlns:cc="http://creativecommons.org/ns#" xmlns:dc="http://purl.org/dc/elements/1.1/">
 <metadata id="metadata3029">
  <rdf:RDF>
   <cc:Work rdf:about="">
    <dc:format>image/svg+xml</dc:format>
    <dc:type rdf:resource="http://purl.org/dc/dcmitype/StillImage"/>
    <dc:title/>
   </cc:Work>
  </rdf:RDF>
 </metadata>
 <g id="layer1">
  <g id="g8613">
   <path id="path7804" d="M-36.727,40.182-70.909,4.1818-34.909-30-0.72727,6z" fill-rule="nonzero" transform="matrix(0.82642484,0,0,0.82642484,61.601037,27.792746)" fill="#FFF"/>
   <path id="path2999" fill="#000" d="M15.34,48.566c-10.553-10.576-13.34-13.959-13.34-16.192,0-2.234,2.7891-5.619,13.351-16.204,7.343-7.3592,14.146-13.633,15.118-13.941,3.02-0.9586,7.184,2.114,18.613,13.735,11.793,11.992,13.707,14.653,12.677,17.631-0.36,1.04-6.536,7.842-13.725,15.115-11.024,11.154-13.563,13.225-16.213,13.225-2.645,0-5.2508-2.1138-16.481-13.369zm30.21-2.4332c6.9967-6.9799,12.721-13.391,12.721-14.247,0-2.3182-23.982-25.962-26.334-25.962-2.2597,0-25.154,22.079-26.151,25.22-0.50064,1.5774,2.1321,4.7909,12.164,14.847,7.0414,7.0584,13.27,12.833,13.84,12.833,0.57081,0,6.7624-5.7108,13.759-12.691zm-30.844-5.533c0-0.32484,4.2646-6.8204,9.477-14.435,6.2226-9.09,9.9626-13.658,10.891-13.301,1.8376,0.70514,1.7912,1.8283-0.14171,3.4325-3.2984,2.7375-1.1616,13.272,3.1614,15.585,1.5425,0.82551,2.5435,2.2794,2.5435,3.6943,0,1.2832,0.28332,3.0713,0.6296,3.9737,0.55438,1.4447-0.99471,1.6407-12.966,1.6407-7.4774,0-13.595-0.26578-13.595-0.59062zm30.055-2.0332c-1.5842-1.9088,0.15465-6.7114,2.4299-6.7114,1.78,0,3.9619,4.6444,3.1617,6.7298-0.7775,2.0261-3.9033,2.0158-5.5916-0.01843zm-3.6049-7.7487c0.35258-0.57049,1.0803-1.0373,1.6171-1.0373,0.53682,0,0.97604,0.46676,0.97604,1.0373,0,0.57049-0.72769,1.0373-1.6171,1.0373-0.8894,0-1.3286-0.46676-0.97604-1.0373zm-0.86078-4.5818c-0.31026-0.80852,0.14474-1.742,1.0111-2.0745,2.6734-1.0259,3.4801-0.68517,3.4801,1.47,0,2.4253-3.6062,2.9106-4.4912,0.60447zm-3.8068-1.6417c0-0.57049,0.46676-1.0373,1.0373-1.0373,0.57049,0,1.0373,0.46676,1.0373,1.0373,0,0.57049-0.46676,1.0373-1.0373,1.0373-0.57049,0-1.0373-0.46676-1.0373-1.0373zm0.6915-3.8033c-1.163-1.163-0.7716-2.4203,0.7534-2.4203,0.7947,0,1.7136,0.70014,2.0419,1.5559,0.59846,1.5596-1.4628,2.1969-2.7954,0.86438z"/>
  </g>
 </g>
</svg>
