<?xml version="1.0" encoding="UTF-8" standalone="no"?>
<!-- Created with Inkscape (http://www.inkscape.org/) -->
<svg id="svg3944" xmlns:rdf="http://www.w3.org/1999/02/22-rdf-syntax-ns#" xmlns="http://www.w3.org/2000/svg" height="64px" width="64px" version="1.1" xmlns:cc="http://creativecommons.org/ns#" xmlns:dc="http://purl.org/dc/elements/1.1/">
 <metadata id="metadata3949">
  <rdf:RDF>
   <cc:Work rdf:about="">
    <dc:format>image/svg+xml</dc:format>
    <dc:type rdf:resource="http://purl.org/dc/dcmitype/StillImage"/>
    <dc:title/>
   </cc:Work>
  </rdf:RDF>
 </metadata>
 <g id="layer1">
  <g id="g3978">
   <g id="g7619" fill-rule="nonzero">
    <path id="path7599" d="m-37.636,27.727c0,17.02-14.042,30.818-31.364,30.818s-31.364-13.798-31.364-30.818,14.042-30.818,31.364-30.818,31.364,13.798,31.364,30.818z" transform="matrix(0.95652175,0,0,0.95652175,98.000001,5.4782612)" fill="#000"/>
    <path id="path7599-5" d="m-37.636,27.727c0,17.02-14.042,30.818-31.364,30.818s-31.364-13.798-31.364-30.818,14.042-30.818,31.364-30.818,31.364,13.798,31.364,30.818z" transform="matrix(0.84492755,0,0,0.84492755,90.300001,8.572464)" fill="#FFF"/>
   </g>
   <g id="flowRoot3963" style="letter-spacing:0px;word-spacing:0px;" font-weight="normal" transform="matrix(0.52947261,0,0,0.52947261,67.350569,52.796749)" font-size="40px" font-style="normal" font-family="Sans" line-height="125%" fill="#000">
    <path id="path3972" d="m-104.54-24.952,0-28.633,10.801,0c1.901,0.000028,3.3528,0.09117,4.3555,0.27344,1.4062,0.2344,2.5846,0.68037,3.5352,1.3379,0.9505,0.65758,1.7155,1.5788,2.2949,2.7637s0.86912,2.487,0.86914,3.9062c-0.000025,2.4349-0.77476,4.4955-2.3242,6.1816-1.5495,1.6862-4.349,2.5293-8.3984,2.5293h-7.3438v11.641zm3.7891-15.02,7.4023,0c2.4479,0.000015,4.1862-0.45571,5.2148-1.3672,1.0286-0.91144,1.5429-2.194,1.543-3.8477-0.000021-1.1979-0.30276-2.2233-0.9082-3.0762-0.60549-0.85284-1.403-1.416-2.3926-1.6895-0.63804-0.16925-1.8164-0.25388-3.5352-0.25391h-7.3242z"/>
    <path id="path3974" d="m-78.973-38.897c-0.000002-4.7526,1.276-8.4733,3.8281-11.162,2.5521-2.6888,5.8463-4.0332,9.8828-4.0332,2.6432,0.000029,5.026,0.63154,7.1484,1.8945s3.7402,3.0241,4.8535,5.2832,1.6699,4.821,1.6699,7.6855c-0.000029,2.9037-0.58597,5.5013-1.7578,7.793-1.1719,2.2917-2.8321,4.0267-4.9805,5.2051-2.1485,1.1784-4.4662,1.7676-6.9531,1.7676-2.6953,0-5.1042-0.65104-7.2266-1.9531s-3.7305-3.0794-4.8242-5.332c-1.0938-2.2526-1.6406-4.6354-1.6406-7.1484zm3.9062,0.05859c-0.000006,3.4505,0.92773,6.1686,2.7832,8.1543s4.1829,2.9785,6.9824,2.9785c2.8515,0.000003,5.1985-1.0026,7.041-3.0078,1.8424-2.0052,2.7636-4.8502,2.7637-8.5352-0.000025-2.3307-0.3939-4.3652-1.1816-6.1035-0.78778-1.7383-1.9401-3.0859-3.457-4.043-1.5169-0.95701-3.2194-1.4355-5.1074-1.4355-2.6823,0.000026-4.9902,0.92125-6.9238,2.7637-1.9336,1.8425-2.9004,4.9186-2.9004,9.2285z"/>
    <path id="path3976" d="m-46.883-24.952,0-28.633,3.7891,0,0,25.254,14.102,0,0,3.3789z"/>
   </g>
  </g>
 </g>
</svg>
