<?xml version="1.0" encoding="UTF-8" standalone="no"?>
<!-- Created with Inkscape (http://www.inkscape.org/) -->
<svg id="svg3334" xmlns:rdf="http://www.w3.org/1999/02/22-rdf-syntax-ns#" xmlns="http://www.w3.org/2000/svg" height="64px" width="64px" version="1.1" xmlns:cc="http://creativecommons.org/ns#" xmlns:dc="http://purl.org/dc/elements/1.1/">
 <metadata id="metadata3339">
  <rdf:RDF>
   <cc:Work rdf:about="">
    <dc:format>image/svg+xml</dc:format>
    <dc:type rdf:resource="http://purl.org/dc/dcmitype/StillImage"/>
    <dc:title/>
   </cc:Work>
  </rdf:RDF>
 </metadata>
 <g id="layer1">
  <g id="g3368">
   <g id="g7619" fill-rule="nonzero">
    <path id="path7599" d="m-37.636,27.727c0,17.02-14.042,30.818-31.364,30.818s-31.364-13.798-31.364-30.818,14.042-30.818,31.364-30.818,31.364,13.798,31.364,30.818z" transform="matrix(0.95652175,0,0,0.95652175,98.000001,5.4782612)" fill="#000"/>
    <path id="path7599-5" d="m-37.636,27.727c0,17.02-14.042,30.818-31.364,30.818s-31.364-13.798-31.364-30.818,14.042-30.818,31.364-30.818,31.364,13.798,31.364,30.818z" transform="matrix(0.84492755,0,0,0.84492755,90.300001,8.572464)" fill="#FFF"/>
   </g>
   <g id="flowRoot3353" style="letter-spacing:0px;word-spacing:0px;" font-weight="normal" transform="matrix(0.47232472,0,0,0.47232472,65.105166,44.879571)" font-size="40px" font-style="normal" font-family="Sans" line-height="125%" fill="#000">
    <path id="path3362" style="" d="m-112.43-12.952,10.996-28.633,4.082,0,11.719,28.633-4.3164,0-3.3398-8.6719-11.973,0-3.1445,8.6719zm8.2617-11.758,9.707,0-2.9883-7.9297c-0.91147-2.4088-1.5886-4.388-2.0312-5.9375-0.3646,1.836-0.87892,3.6589-1.543,5.4688z"/>
    <path id="path3364" style="" d="m-82.688-12.952,0-28.633,5.7031,0,6.7773,20.273c0.62498,1.888,1.0807,3.3008,1.3672,4.2383,0.3255-1.0417,0.83332-2.5716,1.5234-4.5898l6.8555-19.922h5.0977v28.633h-3.6523v-23.965l-8.3203,23.965h-3.418l-8.2812-24.375v24.375z"/>
    <path id="path3366" style="" d="m-49.367-12.952,0-28.633,10.742,0c2.1875,0.000028,3.942,0.28974,5.2637,0.86914,1.3216,0.57945,2.3567,1.4714,3.1055,2.6758,0.74868,1.2045,1.123,2.4642,1.123,3.7793-0.000024,1.224-0.33206,2.3763-0.99609,3.457-0.66408,1.0807-1.6667,1.9531-3.0078,2.6172,1.7318,0.50783,3.0631,1.3737,3.9941,2.5977,0.93096,1.224,1.3965,2.6693,1.3965,4.3359-0.000024,1.3412-0.28323,2.5879-0.84961,3.7402-0.56643,1.1523-1.2663,2.041-2.0996,2.666-0.83336,0.625-1.8783,1.097-3.1348,1.416-1.2565,0.31901-2.7962,0.47852-4.6191,0.47852zm3.7891-16.602,6.1914,0c1.6797,0.000016,2.8841-0.11066,3.6133-0.33203,0.96352-0.28644,1.6894-0.7617,2.1777-1.4258,0.48826-0.66404,0.7324-1.4974,0.73242-2.5-0.00002-0.9505-0.22788-1.7871-0.68359-2.5098-0.45575-0.72263-1.1068-1.2174-1.9531-1.4844-0.84637-0.2669-2.2982-0.40036-4.3555-0.40039h-5.7227zm0,13.223,7.1289,0c1.2239,0.000003,2.0833-0.04557,2.5781-0.13672,0.87238-0.15625,1.6015-0.41666,2.1875-0.78125,0.58592-0.36458,1.0677-0.89518,1.4453-1.5918,0.37758-0.69661,0.56638-1.5006,0.56641-2.4121-0.000021-1.0677-0.27346-1.9954-0.82031-2.7832-0.5469-0.78775-1.3054-1.3411-2.2754-1.6602-0.97007-0.319-2.3666-0.4785-4.1895-0.47852h-6.6211z"/>
   </g>
  </g>
 </g>
</svg>
