<?xml version="1.0" encoding="UTF-8" standalone="no"?>
<!-- Created with Inkscape (http://www.inkscape.org/) -->
<svg id="svg3025" xmlns:rdf="http://www.w3.org/1999/02/22-rdf-syntax-ns#" xmlns="http://www.w3.org/2000/svg" height="64px" width="64px" version="1.1" xmlns:cc="http://creativecommons.org/ns#" xmlns:dc="http://purl.org/dc/elements/1.1/">
 <metadata id="metadata3030">
  <rdf:RDF>
   <cc:Work rdf:about="">
    <dc:format>image/svg+xml</dc:format>
    <dc:type rdf:resource="http://purl.org/dc/dcmitype/StillImage"/>
    <dc:title/>
   </cc:Work>
  </rdf:RDF>
 </metadata>
 <g id="layer1">
  <g id="g8677">
   <path id="path7804" d="M-36.727,40.182-70.909,4.1818-34.909-30-0.72727,6z" fill-rule="nonzero" transform="matrix(0.82642484,0,0,0.82642484,61.601037,27.792746)" fill="#FFF"/>
   <path id="path3003" fill="#000" d="M29.414,61.778c-1.138-0.471-7.772-6.647-14.742-13.724-10.452-10.612-12.672-13.402-12.672-15.927,0-2.5551,2.2776-5.3159,13.793-16.718,9.776-9.6801,14.496-13.657,16.207-13.657,1.7115,0,6.4313,3.9773,16.207,13.658,11.724,11.609,13.793,14.133,13.793,16.825,0,2.6848-2.0106,5.1603-13.19,16.24-7.2543,7.1895-14.121,13.317-15.259,13.617-1.1379,0.29973-3,0.15914-4.1379-0.31243zm16.197-15.23c7.68-7.5854,12.251-12.887,12.251-14.209,0-2.4654-23.423-26.45-25.83-26.45-2.0283,0-25.894,23.808-25.894,25.831,0,1.6536,24.655,26.928,26.268,26.928,0.52477,0,6.4671-5.4451,13.205-12.1zm-32.557-10.681l-2.9119-4.1158h4.205c3.5154,0,4.205-0.33933,4.205-2.069,0-1.3569,0.68966-2.069,2.0039-2.069,1.7266,0,1.9195-0.52036,1.3938-3.7595-0.47499-2.927-0.29222-3.6536,0.82542-3.281,0.78954,0.26318,1.859,1.955,2.3765,3.7595,0.63214,2.2041,1.5863,3.281,2.9072,3.281,1.7001,0,1.8709-0.50806,1.262-3.7536-0.55247-2.9449-0.39542-3.6546,0.72899-3.2941,0.78824,0.25272,1.8786,1.9418,2.423,3.7536,0.66513,2.2136,1.6407,3.2941,2.9741,3.2941,1.6473,0,1.8803-0.52027,1.3717-3.0633-0.66501-3.3251,1.0379-5.3619,2.5228-3.0175,0.49664,0.7841,0.91012,2.473,0.91883,3.7532,0.01221,1.7889,0.6144,2.3276,2.602,2.3276,1.8966,0,2.5862,0.55172,2.5862,2.069,0,1.7312,0.68966,2.069,4.2249,2.069h4.2249l-3.2773,4.1379-3.2773,4.1379-15.689-0.02209-15.689-0.02209-2.9119-4.1158z"/>
   <path id="path2999" fill="#000" d="M15.204,48.723c-10.715-10.795-13.204-13.858-13.204-16.251,0-2.404,2.539-5.487,13.749-16.697,9.928-9.9279,14.433-13.75,16.208-13.75,1.7672,0,6.3348,3.8387,16.251,13.658,11.611,11.496,13.792,14.148,13.792,16.765,0,2.604-2.15,5.259-13.234,16.343-17.586,17.587-16.034,17.59-33.562-0.069zm31.073-2.566c6.9407-7.0206,12.619-13.182,12.619-13.692,0-1.64-25.255-26.302-26.934-26.302-0.89114,0-7.3356,5.7811-14.321,12.847-10.733,10.857-12.541,13.141-11.669,14.742,1.7508,3.2172,24.586,25.17,26.181,25.17,0.82772,0,7.1837-5.7441,14.124-12.765zm-32.328-9.315c-1.451-1.903-2.639-3.765-2.639-4.138,0-0.37302,1.6293-0.67822,3.6207-0.67822,2.931,0,3.6207-0.39409,3.6207-2.069,0-1.4057,0.68966-2.069,2.1512-2.069,1.852,0,2.0564-0.4316,1.4695-3.1034-0.51356-2.3382-0.31062-3.1034,0.82298-3.1034,0.8442,0,1.777,1.3622,2.1253,3.1034,0.4587,2.2935,1.2012,3.1034,2.8448,3.1034,1.9195,0,2.1391-0.42502,1.6034-3.1034-0.8486-4.2429,2.0164-4.2429,2.9483,0,0.48488,2.2077,1.289,3.1034,2.7858,3.1034,1.7495,0,2.0274-0.52305,1.6487-3.1034-0.61604-4.1973,2.1226-4.1973,2.962,0,0.48058,2.4029,1.1753,3.1034,3.0776,3.1034,1.7672,0,2.4569,0.58076,2.4569,2.069,0,1.6749,0.68965,2.069,3.6207,2.069,1.9914,0,3.6207,0.3052,3.6207,0.67822s-1.1875,2.2351-2.6389,4.1379l-2.6389,3.4597h-15.412-15.412l-2.6389-3.4597z"/>
  </g>
 </g>
</svg>
