<?xml version="1.0" encoding="UTF-8" standalone="no"?>
<!-- Created with Inkscape (http://www.inkscape.org/) -->
<svg id="svg4051" xmlns:rdf="http://www.w3.org/1999/02/22-rdf-syntax-ns#" xmlns="http://www.w3.org/2000/svg" height="64px" width="64px" version="1.1" xmlns:cc="http://creativecommons.org/ns#" xmlns:dc="http://purl.org/dc/elements/1.1/">
 <metadata id="metadata4056">
  <rdf:RDF>
   <cc:Work rdf:about="">
    <dc:format>image/svg+xml</dc:format>
    <dc:type rdf:resource="http://purl.org/dc/dcmitype/StillImage"/>
    <dc:title/>
   </cc:Work>
  </rdf:RDF>
 </metadata>
 <g id="layer1">
  <path id="path2993-4" fill="#008000" d="M20.52,57.315c-17.429-7.558-21.65-32.827-7.615-45.581,10.818-9.8303,28.6-9.6198,39.128,0.464,8.6435,8.279,10.029,25.545,2.8664,35.714-7.2925,10.353-22.559,14.529-34.379,9.4031zm18.202-10.936,0-7.8049,7.8049,0,7.8049,0,0-6.5041,0-6.5041-7.8049,0-7.8049,0,0-7.8049,0-7.8049-6.5041,0-6.5041,0,0,7.8049,0,7.8049-7.8049,0-7.8049,0,0,6.5041,0,6.5041,7.8049,0,7.8049,0,0,7.8049,0,7.8049,6.5041,0,6.5041,0z"/>
 </g>
</svg>
