<?xml version="1.0" encoding="UTF-8" standalone="no"?>
<!-- Created with Inkscape (http://www.inkscape.org/) -->
<svg id="svg4121" xmlns:rdf="http://www.w3.org/1999/02/22-rdf-syntax-ns#" xmlns="http://www.w3.org/2000/svg" height="64px" width="64px" version="1.1" xmlns:cc="http://creativecommons.org/ns#" xmlns:dc="http://purl.org/dc/elements/1.1/">
 <metadata id="metadata4126">
  <rdf:RDF>
   <cc:Work rdf:about="">
    <dc:format>image/svg+xml</dc:format>
    <dc:type rdf:resource="http://purl.org/dc/dcmitype/StillImage"/>
    <dc:title/>
   </cc:Work>
  </rdf:RDF>
 </metadata>
 <g id="layer1">
  <g id="g3615" transform="translate(-89.454542,-46)">
   <g id="g4184">
    <g id="g7619" fill-rule="nonzero" transform="translate(89.454542,46)">
     <path id="path7599" d="m-37.636,27.727c0,17.02-14.042,30.818-31.364,30.818s-31.364-13.798-31.364-30.818,14.042-30.818,31.364-30.818,31.364,13.798,31.364,30.818z" transform="matrix(0.95652175,0,0,0.95652175,98.000001,5.4782612)" fill="#000"/>
     <path id="path7599-5" d="m-37.636,27.727c0,17.02-14.042,30.818-31.364,30.818s-31.364-13.798-31.364-30.818,14.042-30.818,31.364-30.818,31.364,13.798,31.364,30.818z" transform="matrix(0.84492755,0,0,0.84492755,90.300001,8.572464)" fill="#FFF"/>
    </g>
    <g id="g2999" transform="matrix(0.85420326,0,0,0.85420326,93.736474,51.727007)">
     <g id="g2996">
      <path id="path2997-4" d="m20.913,44.868,0-5.737,4.6939,0,4.6939,0,0-13.961,0-13.961,6.9274,3.6784,6.9274,3.6785-6.4058,3.598-6.4058,3.598,0,6.685,0,6.685,4.6939,0,4.6939,0,0,5.737,0,5.737-9.9094,0-9.9094,0z" fill="#000"/>
     </g>
     <path id="path2995-8" fill="#000" d="m20.742,44.807,0-5.737,4.6939,0,4.6939,0,0-13.961,0-13.961,6.9274,3.6784,6.9274,3.6785-6.4058,3.598-6.4058,3.598,0,6.685,0,6.685,4.6939,0,4.6939,0,0,5.737,0,5.737-9.9094,0-9.9094,0z"/>
     <path id="path2993-8" fill="#000" d="m20.955,44.838,0-5.737,4.6939,0,4.6939,0,0-13.961,0-13.961,6.8847,3.6558,6.8847,3.6558-6.3631,3.5859-6.3632,3.5859,0,6.7197,0,6.7197,4.6939,0,4.6939,0,0,5.737,0,5.737-9.9094,0-9.9094,0z"/>
     <path id="path2991-2" fill="#000" d="m21.015,44.927,0-5.737,4.6939,0,4.6939,0,0-13.949,0-13.949,6.2501,3.2573c3.4376,1.7915,6.2539,3.5645,6.2586,3.94,0.0042,0.37551-2.5732,2.1398-5.7286,3.9205l-5.737,3.2378v6.7712,6.7712h4.6939,4.6939v5.737,5.737h-9.9094-9.9094z"/>
     <g id="g2993">
      <path id="path2989-4" d="m20.858,44.697,0-5.737,4.6939,0,4.6939,0,0-14.055,0-14.055,5.4763,3.1989c3.0119,1.7594,5.8271,3.5297,6.2559,3.934,0.42879,0.40429-1.6835,2.1389-4.6939,3.8546l-5.4735,3.1196-0.30843,7.0012-0.30843,7.0012h4.7416,4.7416v5.737,5.737h-9.9094-9.9094z" fill="#000"/>
     </g>
    </g>
   </g>
  </g>
 </g>
</svg>
