<?xml version="1.0" encoding="UTF-8" standalone="no"?>
<!-- Created with Inkscape (http://www.inkscape.org/) -->
<svg id="svg3028" xmlns:rdf="http://www.w3.org/1999/02/22-rdf-syntax-ns#" xmlns="http://www.w3.org/2000/svg" height="64px" width="64px" version="1.1" xmlns:cc="http://creativecommons.org/ns#" xmlns:dc="http://purl.org/dc/elements/1.1/">
 <metadata id="metadata3033">
  <rdf:RDF>
   <cc:Work rdf:about="">
    <dc:format>image/svg+xml</dc:format>
    <dc:type rdf:resource="http://purl.org/dc/dcmitype/StillImage"/>
    <dc:title/>
   </cc:Work>
  </rdf:RDF>
 </metadata>
 <g id="layer1">
  <g id="g8745">
   <path id="path7804" d="M-36.727,40.182-70.909,4.1818-34.909-30-0.72727,6z" fill-rule="nonzero" transform="matrix(0.82642484,0,0,0.82642484,61.601037,27.792746)" fill="#FFF"/>
   <g id="g8720" fill="#000">
    <path id="path2997" d="M15.139,48.375c-10.594-10.707-13.139-13.845-13.139-16.201,0-2.3475,2.4926-5.4531,12.672-15.789,6.9698-7.0766,13.603-13.227,14.741-13.667,3.6005-1.3932,6.9456,0.81653,18.435,12.177,10.552,10.434,14.152,14.991,14.152,17.914,0,0.69228-6.1459,7.4654-13.658,15.051-11.676,11.792-14.122,13.793-16.861,13.793-2.7334,0-5.1332-1.9499-16.342-13.279zm31.138-2.59c6.941-7.021,12.62-13.147,12.62-13.615,0-1.5775-25.224-26.379-26.829-26.379-1.7302,0-26.964,24.658-26.964,26.349,0,1.7138,25.186,26.41,26.934,26.41,0.89114,0,7.299-5.7441,14.24-12.765zm-18.924-6.513c-1.426-1.426-2.075-1.486-4.142-0.38-3.0312,1.6222-5.6937,0.7227-5.6937-1.9237,0-2.7232,2.9988-3.6619,5.2345-1.6386,1.6808,1.5211,2.0428,1.5196,4.389-0.01769,2.3511-1.5405,2.6914-1.5413,4.2234-0.0093,1.2632,1.2632,1.4077,2.1492,0.59736,3.6633-1.3059,2.4401-2.4016,2.5128-4.6086,0.30578zm8.7849-0.37762c0-0.56896,0.46552-1.0345,1.0345-1.0345,0.56896,0,1.0345,0.46552,1.0345,1.0345,0,0.56897-0.46552,1.0345-1.0345,1.0345-0.56897,0-1.0345-0.46552-1.0345-1.0345zm4.6552,0c0.35164-0.56896,1.0774-1.0345,1.6128-1.0345,0.53539,0,0.97343,0.46552,0.97343,1.0345,0,0.56897-0.72575,1.0345-1.6128,1.0345-0.88703,0-1.3251-0.46552-0.97343-1.0345zm4.6552-0.51724c0-1.1541-1.2177-1.5517-4.752-1.5517-3.882,0-4.8511-0.37879-5.2931-2.069-0.48677-1.8614-1.4111-2.069-9.2135-2.069-7.5644,0-8.6743-0.23129-8.6866-1.8103-0.0083-0.99569-0.29483-2.8578-0.6379-4.1379-0.57185-2.1339-0.2744-2.3276,3.5738-2.3276,2.3086,0,4.4566,0.41919,4.7732,0.93153,0.31664,0.51234,4.785,0.86394,9.9298,0.78133,10.144-0.16288,11.89,0.69557,10.804,5.3108-0.30927,1.3139,0.14678,3.374,1.0242,4.6267,1.9916,2.8434,1.9995,3.8668,0.02999,3.8668-0.85345,0-1.5517-0.69828-1.5517-1.5517z"/>
    <path id="path2995" d="M15.234,48.249c-10.811-10.81-13.234-13.777-13.234-16.204,0-2.418,2.4431-5.44,13.139-16.249,11.209-11.329,13.609-13.279,16.342-13.279,2.7391,0,5.1852,2.0009,16.861,13.793,7.543,7.618,13.658,14.642,13.658,15.69s-6.115,8.072-13.658,15.69c-11.497,11.611-14.149,13.793-16.766,13.793-2.6039,0-5.2587-2.1498-16.342-13.234zm31.044-2.6345c6.9407-7.0206,12.619-13.147,12.619-13.615,0-1.5775-25.224-26.379-26.829-26.379-1.7302,0-26.964,24.658-26.964,26.349,0,1.7138,25.186,26.41,26.934,26.41,0.89114,0,7.299-5.7441,14.24-12.765zm-18.829-6.417c-1.7564-1.7564-4.759-2.0096-4.759-0.40134,0,2.1397-4.647,0.50229-4.9685-1.7506-0.40641-2.8483,2.6309-4.0575,4.9409-1.9669,1.9833,1.7948,4.1655,2.0789,4.1655,0.54218,0-0.56897,1.1638-1.0345,2.5862-1.0345,2.0381,0,2.5862,0.52462,2.5862,2.4755,0,3.0188-2.4967,4.1903-4.5513,2.1357zm8.6893-0.47329c0-0.56897,0.46552-1.0345,1.0345-1.0345,0.56896,0,1.0345,0.46552,1.0345,1.0345,0,0.56896-0.46552,1.0345-1.0345,1.0345-0.56897,0-1.0345-0.46552-1.0345-1.0345zm4.1379,0.57829c0-1.0919,1.9853-1.5506,2.5758-0.59517,0.35737,0.57826-0.07593,1.0514-0.963,1.0514-0.88703,0-1.6128-0.20529-1.6128-0.4562zm4.8727-1.6128c-0.44199-1.6902-1.4111-2.069-5.2931-2.069-3.5344,0-4.752-0.39761-4.752-1.5517,0-1.25-1.6092-1.5517-8.2759-1.5517-8.1379,0-8.2759-0.04314-8.2759-2.5862,0-1.4224-0.46552-2.5862-1.0345-2.5862-0.56896,0-1.0345-0.69828-1.0345-1.5517,0-1.1168,1.1426-1.5517,4.0769-1.5517,2.2423,0,4.3356,0.41853,4.6517,0.93007,0.31616,0.51154,4.7972,0.88359,9.9578,0.82679,10.245-0.11277,11.776,0.67032,10.765,5.5046-0.31408,1.5014,0.1113,3.4749,1.0034,4.6552,1.9515,2.5819,2.0034,3.6006,0.18336,3.6006-0.78709,0-1.6745-0.93104-1.9721-2.069z"/>
    <path id="path2993" d="M15.622,48.249c-10.903-10.902-13.234-13.765-13.234-16.249,0-2.4844,2.3314-5.347,13.234-16.249,11.018-11.018,13.748-13.234,16.308-13.234,2.5625,0,5.2899,2.2204,16.379,13.334,10.524,10.548,13.304,13.922,13.304,16.149,0,2.2272-2.7799,5.6016-13.304,16.149-11.089,11.113-13.816,13.334-16.378,13.334-2.5597,0-5.29-2.2155-16.308-13.234zm30.976-2.5268c6.978-6.9613,12.687-13.123,12.687-13.692,0-1.6726-25.165-26.41-26.866-26.41-1.7047,0-26.927,24.681-26.927,26.349,0,1.6726,25.165,26.41,26.866,26.41,0.85377,0,7.2616-5.6956,14.24-12.657zm-28.324-7.528c-0.33028-0.86069-0.03-2.2523,0.66727-3.0925,1.113-1.341,1.6312-1.3129,4.2435,0.23022,2.3279,1.3751,3.2482,1.4853,4.2273,0.50628,2.2365-2.2365,4.9757-1.5018,4.9757,1.3347,0,2.069-0.51724,2.5862-2.5862,2.5862-1.4224,0-2.5862-0.46552-2.5862-1.0345,0-0.56897-0.93104-1.0345-2.069-1.0345-1.1379,0-2.069,0.46552-2.069,1.0345,0,1.6518-4.1415,1.1945-4.8034-0.53042zm18.252,0.53042c0-0.56897,0.46552-1.0345,1.0345-1.0345,0.56896,0,1.0345,0.46552,1.0345,1.0345,0,0.56896-0.46553,1.0345-1.0345,1.0345s-1.0345-0.46552-1.0345-1.0345zm5.1724,0c0-0.56897,0.20528-1.0345,0.45618-1.0345s0.7439,0.46552,1.0955,1.0345c0.35164,0.56896,0.14636,1.0345-0.45619,1.0345-0.60254,0-1.0955-0.46552-1.0955-1.0345zm3.8382-1.0345c-0.442-1.691-1.411-2.069-5.293-2.069-3.5344,0-4.752-0.39761-4.752-1.5517,0-1.25-1.6092-1.5517-8.2759-1.5517-8.1379,0-8.2759-0.04311-8.2759-2.5862,0-1.4224-0.46552-2.5862-1.0345-2.5862-0.56896,0-1.0345-0.69828-1.0345-1.5517,0-1.1125,1.1354-1.5517,4.0113-1.5517,2.3035,0,4.5595,0.66062,5.2991,1.5517,1.4376,1.7322,6.2069,2.1296,6.2069,0.51724,0-1.492,2.8437-1.2756,3.3993,0.25862,0.3693,1.0197,0.96355,0.99959,2.8111-0.09535,1.4548-0.86222,2.5843-1.0056,2.98-0.37829,0.35047,0.55559,1.5683,1.1986,2.7062,1.429,1.5537,0.31452,2.0158,1.1517,1.8553,3.3614-0.11753,1.6184,0.47632,4.2769,1.3197,5.9077,1.3005,2.5148,1.312,2.9652,0.07572,2.9652-0.8017,0-1.7011-0.93103-1.9987-2.069z"/>
    <path id="path2991" d="M16.08,47.762c-9.8797-9.901-13.692-14.406-13.692-16.18,0-1.7664,3.7209-6.2081,13.204-15.762,11.075-11.158,13.704-13.303,16.308-13.303,2.6003,0,5.2627,2.1636,16.408,13.334,10.524,10.547,13.304,13.922,13.304,16.149,0,3.949-25.309,29.483-29.224,29.483-1.978,0-5.953-3.3444-16.308-13.721zm30.517-2.0396c6.978-6.9613,12.687-13.152,12.687-13.758,0-0.60561-6.0129-7.0506-13.362-14.322-11.308-11.189-13.653-13.062-15.258-12.189-3.694,2.0104-25.173,24.706-25.173,26.599,0,2.5907,23.813,26.327,26.412,26.327,1.1851,0,7.2007-5.1817,14.694-12.657zm-28.299-7.466c-0.31704-0.8262-0.27496-1.99,0.09352-2.5862,0.85412-1.382,4.6858-1.4225,4.6858-0.04954,0,0.56896,0.90356,1.0345,2.0079,1.0345,1.1044,0,2.2956-0.46552,2.6473-1.0345,0.35164-0.56897,1.5429-1.0345,2.6473-1.0345,1.4521,0,2.0079,0.71587,2.0079,2.5862s-0.5558,2.5862-2.0079,2.5862c-1.1044,0-2.2956-0.46552-2.6473-1.0345-0.35164-0.56897-1.5429-1.0345-2.6473-1.0345s-2.0079,0.46552-2.0079,1.0345c0,1.6171-4.1346,1.2125-4.7793-0.4677zm18.228,0.4677c0-0.56897,0.46552-1.0345,1.0345-1.0345,0.56896,0,1.0345,0.46552,1.0345,1.0345,0,0.56896-0.46552,1.0345-1.0345,1.0345-0.56897,0-1.0345-0.46552-1.0345-1.0345zm9.3103-1.0345c0-1.7931-0.68965-2.069-5.1724-2.069-3.908,0-5.1724-0.37931-5.1724-1.5517,0-1.25-1.6092-1.5517-8.2759-1.5517-8.1379,0-8.2759-0.04311-8.2759-2.5862,0-1.4224-0.46552-2.5862-1.0345-2.5862-0.56896,0-1.0345-0.69828-1.0345-1.5517,0-1.1125,1.1354-1.5517,4.0113-1.5517,2.3035,0,4.5595,0.66062,5.2991,1.5517,1.511,1.8207,5.8599,2.0754,6.4263,0.3763,0.28118-0.84355,1.012-0.7881,2.5884,0.19638,1.833,1.1447,2.4804,1.1363,3.9112-0.05117,1.17-0.97097,1.936-1.0714,2.4116-0.31605,0.38336,0.6088,1.628,1.2954,2.766,1.5257,1.5537,0.31452,2.0158,1.1517,1.8553,3.3614-0.11753,1.6184,0.47632,4.2769,1.3197,5.9077,1.3643,2.6383,1.3593,2.9652-0.0449,2.9652-0.88863,0-1.5783-0.90406-1.5783-2.069z"/>
    <path id="path2989" d="M16.175,47.69c-7.5432-7.618-13.658-14.642-13.658-15.69,0-1.0479,6.1146-8.0725,13.658-15.69,10.454-10.558,14.279-13.793,16.308-13.793,2.0178,0,5.7956,3.1521,15.825,13.204,11.083,11.108,13.175,13.703,13.175,16.344,0,2.6518-2.0653,5.1837-13.279,16.279-9.7775,9.6744-13.95,13.139-15.825,13.139-1.8956,0-6.0379-3.5258-16.204-13.793zm30.551-1.968c6.978-6.9613,12.687-13.123,12.687-13.693,0-1.3044-26.009-27.444-27.307-27.444-2.0176,0-26.486,25.262-26.486,27.345,0,2.8231,23.536,26.448,26.348,26.448,1.2665,0,6.9958-4.9137,14.758-12.657zm-28.298-7.466c-0.31704-0.8262-0.27496-1.99,0.09352-2.5862,0.85412-1.382,4.6858-1.4225,4.6858-0.04954,0,0.56897,0.90356,1.0345,2.0079,1.0345,1.1044,0,2.2956-0.46552,2.6473-1.0345,0.98074-1.5869,3.6111-1.2286,4.3078,0.58678,1.0612,2.7654-1.3069,4.1227-4.3507,2.4937-2.1133-1.131-3.0867-1.1698-4.662-0.18599-2.6347,1.6454-4.0281,1.5692-4.7295-0.25873zm18.228,1.046c0-0.2509,0.46552-0.74389,1.0345-1.0955,0.56897-0.35164,1.0345-0.14635,1.0345,0.45619s-0.46552,1.0955-1.0345,1.0955c-0.56896,0-1.0345-0.20528-1.0345-0.45619zm9.3103-1.6128c0-1.7931-0.68966-2.069-5.1724-2.069-3.908,0-5.1724-0.37931-5.1724-1.5517,0-1.25-1.6092-1.5517-8.2759-1.5517-8.1379,0-8.2759-0.04311-8.2759-2.5862,0-1.4224-0.46552-2.5862-1.0345-2.5862-0.57,0.001-1.036-0.697-1.036-1.551,0-1.1136,1.1371-1.5517,4.0273-1.5517,2.6255,0,4.2345,0.54011,4.6227,1.5517,0.68984,1.7977,6.3909,2.125,7.4402,0.4271,0.5005-0.80984,1.0098-0.80984,1.8197,0,1.5214,1.5214,4.5552,1.4232,5.201-0.16848,0.38437-0.9473,0.75323-0.9793,1.3793-0.11967,0.47004,0.64539,1.7857,1.3619,2.9236,1.5923,1.5537,0.31452,2.0157,1.1517,1.8553,3.3614-0.11753,1.6184,0.47633,4.2769,1.3197,5.9077,1.3643,2.6383,1.3594,2.9652-0.0449,2.9652-0.88863,0-1.5783-0.90406-1.5783-2.069z"/>
   </g>
  </g>
 </g>
</svg>
