<?xml version="1.0" encoding="UTF-8" standalone="no"?>
<!-- Created with Inkscape (http://www.inkscape.org/) -->
<svg id="svg4607" xmlns:rdf="http://www.w3.org/1999/02/22-rdf-syntax-ns#" xmlns="http://www.w3.org/2000/svg" height="64px" width="64px" version="1.1" xmlns:cc="http://creativecommons.org/ns#" xmlns:dc="http://purl.org/dc/elements/1.1/">
 <metadata id="metadata4612">
  <rdf:RDF>
   <cc:Work rdf:about="">
    <dc:format>image/svg+xml</dc:format>
    <dc:type rdf:resource="http://purl.org/dc/dcmitype/StillImage"/>
    <dc:title/>
   </cc:Work>
  </rdf:RDF>
 </metadata>
 <g id="layer1">
  <g id="g4639">
   <g id="g7619" fill-rule="nonzero">
    <path id="path7599" d="m-37.636,27.727c0,17.02-14.042,30.818-31.364,30.818s-31.364-13.798-31.364-30.818,14.042-30.818,31.364-30.818,31.364,13.798,31.364,30.818z" transform="matrix(0.95652175,0,0,0.95652175,98.000001,5.4782612)" fill="#000"/>
    <path id="path7599-5" d="m-37.636,27.727c0,17.02-14.042,30.818-31.364,30.818s-31.364-13.798-31.364-30.818,14.042-30.818,31.364-30.818,31.364,13.798,31.364,30.818z" transform="matrix(0.84492755,0,0,0.84492755,90.300001,8.572464)" fill="#FFF"/>
   </g>
   <g id="flowRoot4626" style="letter-spacing:0px;word-spacing:0px;" font-weight="normal" transform="matrix(0.76589371,0,0,0.76589371,92.933428,62.338748)" font-size="40px" font-style="normal" font-family="Sans" line-height="125%" fill="#000">
    <path id="path4635" d="m-105.67-34.495,3.5742-0.3125c0.16927,1.4323,0.56315,2.6074,1.1816,3.5254,0.61849,0.91797,1.5788,1.6602,2.8809,2.2266,1.3021,0.56641,2.7669,0.84961,4.3945,0.84961,1.4453,0.000003,2.7213-0.21484,3.8281-0.64453,1.1068-0.42968,1.9303-1.0189,2.4707-1.7676,0.54034-0.74869,0.81053-1.5657,0.81055-2.4512-0.000021-0.89843-0.26044-1.6829-0.78125-2.3535-0.52085-0.67056-1.3802-1.2337-2.5781-1.6895-0.76825-0.29947-2.4675-0.76496-5.0977-1.3965-2.6302-0.6315-4.4727-1.2272-5.5273-1.7871-1.3672-0.71613-2.3861-1.6048-3.0566-2.666-0.67057-1.0612-1.0059-2.2493-1.0059-3.5645,0-1.4453,0.41016-2.7962,1.2305-4.0527,0.82031-1.2565,2.0182-2.2103,3.5938-2.8613,1.5755-0.65101,3.3268-0.97653,5.2539-0.97656,2.1224,0.000029,3.9941,0.34183,5.6152,1.0254,1.6211,0.68362,2.8678,1.6895,3.7402,3.0176,0.87237,1.3281,1.3411,2.8321,1.4062,4.5117l-3.6328,0.27344c-0.19533-1.8099-0.85614-3.1771-1.9824-4.1016-1.1263-0.92445-2.7897-1.3867-4.9902-1.3867-2.2917,0.000026-3.9616,0.41995-5.0098,1.2598-1.0482,0.83987-1.5723,1.8522-1.5723,3.0371-0.00001,1.0287,0.37109,1.875,1.1133,2.5391,0.72916,0.66408,2.6335,1.3444,5.7129,2.041,3.0794,0.69663,5.192,1.3054,6.3379,1.8262,1.6666,0.76824,2.8971,1.7416,3.6914,2.9199,0.79425,1.1784,1.1914,2.5358,1.1914,4.0723-0.000025,1.5234-0.43622,2.959-1.3086,4.3066-0.87242,1.3477-2.1257,2.3958-3.7598,3.1445s-3.4733,1.123-5.5176,1.123c-2.5912,0-4.7624-0.3776-6.5137-1.1328-1.7513-0.75521-3.125-1.8913-4.1211-3.4082s-1.5202-3.2324-1.5723-5.1465z"/>
    <path id="path4637" d="m-57.234-35.335,3.7891,0.95703c-0.7943,3.112-2.2233,5.485-4.2871,7.1191s-4.5866,2.4512-7.5684,2.4512c-3.086,0-5.5957-0.62826-7.5293-1.8848s-3.405-3.0762-4.4141-5.459-1.5137-4.9414-1.5137-7.6758c-0.000002-2.9818,0.56966-5.5827,1.709-7.8027s2.7604-3.9062,4.8633-5.0586c2.1029-1.1523,4.4173-1.7285,6.9434-1.7285,2.8646,0.000029,5.2734,0.7292,7.2266,2.1875,1.9531,1.4584,3.3138,3.5091,4.082,6.1523l-3.7305,0.87891c-0.66408-2.0833-1.6276-3.6002-2.8906-4.5508-1.263-0.9505-2.8516-1.4258-4.7656-1.4258-2.2005,0.000026-4.0397,0.52737-5.5176,1.582-1.4779,1.0547-2.5163,2.4707-3.1152,4.248-0.59896,1.7774-0.89844,3.61-0.89844,5.498-0.000006,2.4349,0.35481,4.5606,1.0645,6.377,0.70963,1.8164,1.8131,3.1738,3.3105,4.0723,1.4974,0.89844,3.1185,1.3477,4.8633,1.3477,2.1224,0.000003,3.9193-0.61198,5.3906-1.8359,1.4713-1.224,2.4674-3.0404,2.9883-5.4492z"/>
   </g>
  </g>
 </g>
</svg>
