<?xml version="1.0" encoding="UTF-8" standalone="no"?>
<!-- Created with Inkscape (http://www.inkscape.org/) -->
<svg id="svg3024" xmlns:rdf="http://www.w3.org/1999/02/22-rdf-syntax-ns#" xmlns="http://www.w3.org/2000/svg" height="64px" width="64px" version="1.1" xmlns:cc="http://creativecommons.org/ns#" xmlns:dc="http://purl.org/dc/elements/1.1/">
 <metadata id="metadata3029">
  <rdf:RDF>
   <cc:Work rdf:about="">
    <dc:format>image/svg+xml</dc:format>
    <dc:type rdf:resource="http://purl.org/dc/dcmitype/StillImage"/>
    <dc:title/>
   </cc:Work>
  </rdf:RDF>
 </metadata>
 <g id="layer1">
  <g id="g8852">
   <path id="path7804" d="M-36.727,40.182-70.909,4.1818-34.909-30-0.72727,6z" fill-rule="nonzero" transform="matrix(0.82642484,0,0,0.82642484,61.601037,27.792746)" fill="#FFF"/>
   <g id="g8842">
    <path id="path2989" d="M15.505,48.495c-11.047-11.048-13.505-14.057-13.505-16.535,0-2.477,2.453-5.482,13.466-16.494,11.093-11.094,14.006-13.466,16.534-13.466s5.441,2.3723,16.534,13.466c11.094,11.093,13.466,14.006,13.466,16.534s-2.372,5.441-13.466,16.534c-11.012,11.013-14.017,13.466-16.494,13.466-2.4775,0-5.487-2.4582-16.534-13.505zm3.5169-13.5c2.1861-1.9783,2.5495-6.6861,0.66183-8.5737-0.69474-0.69474-3.2579-1.2632-5.6959-1.2632-3.6563,0-4.9094,0.56653-7.1541,3.2342-2.1083,2.5056-2.4882,3.6699-1.6863,5.1682,0.65569,1.2252,1.7803,1.7392,3.0683,1.4023,1.1183-0.29244,2.9008-0.02727,3.9611,0.58925,2.7441,1.5955,4.6366,1.4415,6.845-0.55712zm20.639-3.055c1.298-0.909,2.339-2.748,2.339-4.134,0-3.482-4.903-7.15-8.794-6.579l-3.0359,0.44557,2.494-1.918c1.3717-1.0549,3.3683-1.9285,4.4369-1.9414,2.9754-0.03584,7.3663,2.9539,10.015,6.8188,2.4819,3.6221,7.1741,6.2349,10.092,5.6194,1.151-0.244-2.464-4.496-11.359-13.362-11.223-11.187-13.325-12.853-15.028-11.916-1.088,0.5992-5.505,4.6604-9.814,9.0253l-7.8355,7.9353,3.8559-0.62572c3.6191-0.5873,4.2618-0.23098,10.467,5.8027,7.0389,6.8442,8.4758,7.4146,12.166,4.8295z" fill="#000"/>
   </g>
  </g>
 </g>
</svg>
