<?xml version="1.0" encoding="UTF-8" standalone="no"?>
<!-- Created with Inkscape (http://www.inkscape.org/) -->
<svg id="svg3891" xmlns:rdf="http://www.w3.org/1999/02/22-rdf-syntax-ns#" xmlns="http://www.w3.org/2000/svg" height="64px" width="64px" version="1.1" xmlns:cc="http://creativecommons.org/ns#" xmlns:dc="http://purl.org/dc/elements/1.1/">
 <metadata id="metadata3896">
  <rdf:RDF>
   <cc:Work rdf:about="">
    <dc:format>image/svg+xml</dc:format>
    <dc:type rdf:resource="http://purl.org/dc/dcmitype/StillImage"/>
    <dc:title/>
   </cc:Work>
  </rdf:RDF>
 </metadata>
 <g id="layer1">
  <g id="g3923">
   <g id="g8504" fill-rule="nonzero">
    <rect id="rect8484" height="60" width="60" y="2" x="2" fill="#000"/>
    <rect id="rect8484-5" height="54" width="54" y="5" x="5" fill="#FFF"/>
   </g>
   <g id="flowRoot3910" style="letter-spacing:0px;word-spacing:0px;" font-weight="normal" transform="matrix(0.79595803,0,0,0.79595803,82.019433,63.529662)" font-size="40px" font-style="normal" font-family="Sans" line-height="125%" fill="#000">
    <path id="path3919" d="m-78.535-25.296,0-25.254-9.4336,0,0-3.3789,22.695,0,0,3.3789-9.4727,0,0,25.254z"/>
    <path id="path3921" d="m-64.512-25.296,10.996-28.633,4.082,0,11.719,28.633-4.3164,0-3.3398-8.6719-11.973,0-3.1445,8.6719zm8.2617-11.758,9.707,0-2.9883-7.9297c-0.91147-2.4088-1.5886-4.388-2.0312-5.9375-0.3646,1.836-0.87892,3.6589-1.543,5.4688z"/>
   </g>
  </g>
 </g>
</svg>
