<?xml version="1.0" encoding="UTF-8" standalone="no"?>
<!-- Created with Inkscape (http://www.inkscape.org/) -->
<svg id="svg3031" xmlns:rdf="http://www.w3.org/1999/02/22-rdf-syntax-ns#" xmlns="http://www.w3.org/2000/svg" height="64px" width="64px" version="1.1" xmlns:cc="http://creativecommons.org/ns#" xmlns:dc="http://purl.org/dc/elements/1.1/">
 <metadata id="metadata3036">
  <rdf:RDF>
   <cc:Work rdf:about="">
    <dc:format>image/svg+xml</dc:format>
    <dc:type rdf:resource="http://purl.org/dc/dcmitype/StillImage"/>
    <dc:title/>
   </cc:Work>
  </rdf:RDF>
 </metadata>
 <g id="layer1">
  <g id="g8962">
   <path id="path7804" d="M-36.727,40.182-70.909,4.1818-34.909-30-0.72727,6z" fill-rule="nonzero" transform="matrix(0.82642484,0,0,0.82642484,61.601037,27.792746)" fill="#FFF"/>
   <g id="g8945" fill="#000">
    <path id="path3003" d="M29.212,61.159c-1.668-0.715-8.473-6.877-15.122-13.693-9.5903-9.831-12.09-12.988-12.09-15.267,0-4.2202,26.009-30.224,30.23-30.224,2.296,0,5.4569,2.5265,15.587,12.459,12.765,12.516,15.285,16.159,13.805,19.957-0.9523,2.4429-25.479,26.745-27.78,27.527-0.87847,0.29816-2.962-0.04296-4.63-0.75801zm15.73-14.17c6.467-6.366,12.232-12.446,12.811-13.51,0.903-1.659-0.751-3.742-11.644-14.661-6.983-7-13.354-12.727-14.156-12.727-1.8612,0-24.58,22.354-25.425,25.017-0.49661,1.5647,2.115,4.7523,12.066,14.727,6.9847,7.0015,13.125,12.73,13.645,12.73,0.51981,0,6.2365-5.2088,12.704-11.575zm-19.277-10.032,0-12.347-4.63,0c-3.4296,0-4.63-0.40013-4.63-1.5433,0-1.3043,2.426-1.5433,15.661-1.5433h15.661l-6.6106,6.6699-6.6106,6.6699,2.9394,3.0681c1.6167,1.6874,3.2592,2.8704,3.6501,2.6288,0.39088-0.24157,1.2027,1.1639,1.804,3.1233,1.1771,3.8354,1.1102,3.8874-3.7464,2.9161-2.3514-0.47027-2.9541-0.98094-2.2125-1.8745,0.72149-0.86935-0.17778-2.397-3.0783-5.2293l-4.0975-4.0011,5.3746-5.4422,5.3746-5.4422h-5.881-5.881v12.347c0,10.289-0.25722,12.347-1.5433,12.347s-1.5433-2.0578-1.5433-12.347z"/>
    <path id="path3001" d="M15.746,48.12c-9.766-9.863-13.584-14.406-13.584-16.163,0-3.4661,26.329-29.795,29.795-29.795,1.7577,0,6.3005,3.8179,16.163,13.584,11.661,11.547,13.718,14.056,13.718,16.734,0,2.6659-2.0203,5.1665-13.133,16.254-11.045,11.02-13.629,13.104-16.254,13.104-2.6407,0-5.2135-2.1127-16.705-13.718zm30.387-1.957c6.9403-6.9237,12.619-13.052,12.619-13.618,0-1.6632-25.028-26.267-26.72-26.267-2.0169,0-25.753,23.679-25.753,25.691,0,1.6959,24.547,26.782,26.207,26.782,0.56622,0,6.708-5.6648,13.648-12.589zm-20.306-8.9591,0-12.288-4.2928-0.31638c-2.3611-0.17401-4.4832-0.89514-4.7158-1.6025-0.32598-0.99129,3.1868-1.2861,15.324-1.2861h15.747l-6.5471,6.6058-6.5471,6.6058,2.4612,3.1138c1.3537,1.7126,3.009,2.9334,3.6785,2.713,1.0826-0.3565,3.1177,5.2719,2.2246,6.1523-0.966,0.95209-6.0797-0.89983-5.6411-2.0429,0.2708-0.70567-1.3265-3.0591-3.5495-5.2298l-4.0419-3.9468,5.3746-5.4422,5.3746-5.4422h-5.881-5.881v12.347c0,10.289-0.25722,12.347-1.5433,12.347-1.2857,0-1.5433-2.0512-1.5433-12.288z"/>
    <path id="path2999" d="M15.469,47.842c-12.577-12.702-13.65-14.081-13.013-16.72,0.9345-3.871,24.796-27.731,28.666-28.666,2.639-0.6373,4.018,0.436,16.72,13.013,11.773,11.658,13.843,14.178,13.843,16.858,0,2.6659-2.0203,5.1665-13.133,16.254-11.045,11.02-13.629,13.104-16.254,13.104-2.6421,0-5.2263-2.1257-16.829-13.843zm30.51-1.833c6.9403-6.9237,12.619-13.052,12.619-13.618,0-1.6632-25.028-26.267-26.72-26.267-2.0169,0-25.753,23.679-25.753,25.691,0,1.6959,24.547,26.782,26.207,26.782,0.56622,0,6.708-5.6648,13.648-12.589zm-20.531-9.79-0.289-12.089-4.373-0.317c-2.405-0.17401-4.3728-0.75276-4.3728-1.2861,0-0.56458,6.5432-0.96974,15.661-0.96974h15.661l-6.6132,6.6725-6.6132,6.6725,2.1239,2.8448c1.1682,1.5646,2.7685,2.8448,3.5562,2.8448,1.525,0,2.7845,2.0427,2.9033,4.7091,0.05504,1.2341-0.68114,1.5118-3.0762,1.1603-1.9782-0.29034-2.9647-0.94102-2.654-1.7506,0.27195-0.7087-1.3244-3.0646-3.5474-5.2353l-4.0419-3.9468,5.1525-5.2174c2.8339-2.8695,5.1526-5.55,5.1526-5.9567,0-0.40662-2.5465-0.73932-5.6589-0.73932h-5.6589v12.347c0,10.17-0.26629,12.347-1.5107,12.347-1.2262,0-1.5653-2.277-1.8006-12.09z"/>
    <path id="path2997" d="M16.224,48.494c-7.1311-7.215-13.258-13.962-13.614-14.994-1.0216-2.953,0.8767-5.593,12.574-17.489,11.534-11.727,15.286-14.472,18.343-13.415,1.0262,0.35472,7.769,6.4795,14.984,13.611,10.954,10.827,13.118,13.47,13.118,16.024,0,2.5459-2.2035,5.2614-13.162,16.22-10.959,10.959-13.674,13.162-16.22,13.162-2.5534,0-5.1969-2.1643-16.024-13.118zm29.841-2.699c9.951-9.974,12.563-13.162,12.066-14.726-0.989-3.116-23.699-25.017-25.94-25.017-1.152,0-7.061,5.0991-14.186,12.243-10.368,10.395-12.119,12.61-11.6,14.678,0.71826,2.8618,23.363,25.552,25.501,25.552,0.80274,0,7.1743-5.7285,14.159-12.73zm-20.447-9.9056,0-12.347-4.63,0c-2.5465,0-4.63-0.463-4.63-1.0289,0-0.64087,5.9062-1.0289,15.661-1.0289h15.661l-6.4009,6.4583c-3.5205,3.5521-6.4009,6.9439-6.4009,7.5374,0,1.3808,4.4122,5.5534,5.8724,5.5534,1.1535,0,2.3588,2.3178,2.3588,4.536,0,0.84366-1.0749,1.1232-3.1485,0.8189-1.9848-0.29131-2.9651-0.94006-2.6522-1.7553,0.27294-0.71126-1.0883-2.829-3.0249-4.706-1.9366-1.8771-3.5211-3.8862-3.5211-4.4648,0-0.57856,2.4149-3.4973,5.3665-6.486l5.3665-5.434h-6.3954-6.3954v12.347c0,10.289-0.25722,12.347-1.5433,12.347s-1.5433-2.0578-1.5433-12.347z"/>
    <path id="path2995" d="M15.78,48.19c-10.49-10.513-13.232-13.843-13.232-16.071,0-4.1021,25.469-29.571,29.571-29.571,2.2276,0,5.5585,2.7424,16.072,13.232,11.053,11.029,13.262,13.741,13.262,16.29,0,2.5459-2.2035,5.2614-13.162,16.22-10.959,10.959-13.674,13.162-16.22,13.162-2.5486,0-5.2614-2.2084-16.29-13.262zm29.967-2.4136c6.9403-6.9237,12.619-13.247,12.619-14.052,0-2.3619-23.774-25.833-26.167-25.833-2.8683,0-26.307,23.411-26.307,26.275,0,2.4034,23.436,26.198,25.803,26.198,0.78822,0,7.1116-5.6648,14.052-12.589zm-20.306-10.047,0-12.347-4.63,0c-2.5465,0-4.63-0.463-4.63-1.0289,0-0.64087,5.9069-1.0289,15.663-1.0289h15.663l-6.9372,6.9908-6.9372,6.9908,2.9055,2.7837c1.5981,1.531,3.459,2.7837,4.1354,2.7837s1.2298,0.42514,1.2298,0.94474c0,0.51961,0.28104,1.6771,0.62453,2.5722,0.48965,1.276-0.08962,1.6275-2.6823,1.6275-2.388,0-3.1555-0.39431-2.7623-1.419,0.30058-0.78331-1.0329-2.948-2.9766-4.8319-1.9366-1.8771-3.5211-3.8862-3.5211-4.4648,0-0.57856,2.4149-3.4973,5.3666-6.486l5.3665-5.434h-6.3954-6.3954v12.347c0,10.289-0.25722,12.347-1.5433,12.347s-1.5433-2.0578-1.5433-12.347z"/>
    <path id="path2993" d="M15.883,48.256c-11.206-11.088-13.206-13.545-13.206-16.22,0-2.6682,2.0172-5.1651,13.133-16.256,11.047-11.023,13.628-13.104,16.255-13.104,2.6374,0,5.1557,2.0541,16.191,13.207,10.638,10.751,13.068,13.756,13.068,16.161,0,2.4136-2.4099,5.3645-13.162,16.117s-13.703,13.162-16.117,13.162c-2.4052,0-5.4103-2.4299-16.161-13.068zm29.735-2.6076c6.9403-6.9237,12.619-13.314,12.619-14.2,0-1.614-24.648-26.714-26.233-26.714-1.1245,0-25.097,23.663-26.405,26.063-0.86743,1.5926,0.92876,3.8617,11.606,14.662,6.9477,7.0277,13.344,12.778,14.213,12.778,0.86965,0,7.2597-5.6648,14.2-12.589zm-20.306-10.047,0-12.347-4.63,0c-2.5465,0-4.63-0.463-4.63-1.0289,0-0.63862,5.6589-1.0289,14.919-1.0289,8.2054,0,14.919,0.36175,14.919,0.80388s-2.7727,3.5476-6.1615,6.9011l-6.1615,6.0972,2.7529,2.8734c1.5141,1.5804,3.3608,2.8734,4.1037,2.8734,0.74297,0,1.3508,0.42513,1.3508,0.94474s0.28104,1.6771,0.62453,2.5722c0.48845,1.2729-0.0853,1.6275-2.633,1.6275-2.0894,0-3.0089-0.40223-2.5642-1.1218,0.38131-0.61697-1.0628-2.9202-3.2092-5.1182-4.4103-4.5165-4.6496-3.6792,3.5841-12.537l3.5864-3.8584h-6.3822-6.3822v12.347c0,10.289-0.25722,12.347-1.5433,12.347s-1.5433-2.0578-1.5433-12.347z"/>
    <path id="path2991" d="M15.883,48.256c-11.206-11.088-13.206-13.545-13.206-16.22,0-2.6682,2.0172-5.1651,13.133-16.256,11.047-11.023,13.628-13.104,16.255-13.104,2.6374,0,5.1557,2.0541,16.191,13.207,9.5231,9.6246,13.068,13.884,13.068,15.705,0,3.5331-26.227,29.735-29.763,29.735-1.7845,0-6.1352-3.6265-15.677-13.068zm29.691-1.578c6.444-6.357,11.99-12.654,12.327-13.993,0.517-2.062-1.181-4.24-11.102-14.232-6.442-6.489-12.583-12.279-13.647-12.866-1.667-0.9207-3.769,0.7611-15.177,12.143-7.282,7.266-13.241,13.64-13.241,14.163,0,1.9365,25.121,26.343,27.114,26.343,1.1812,0,6.8463-4.7704,13.726-11.558zm-20.262-11.077v-12.347h-4.6908c-2.8652,0-4.4433-0.40043-4.0549-1.0289,0.71719-1.1604,24.658-1.3052,27.537-0.16654,1.5221,0.60204,0.8192,1.7027-4.361,6.8288l-6.1755,6.1111,2.7529,2.8734c1.5141,1.5804,3.3608,2.8734,4.1037,2.8734,0.74297,0,1.3508,0.42513,1.3508,0.94474s0.28104,1.6771,0.62453,2.5722c0.47107,1.2276-0.03457,1.6275-2.0578,1.6275-1.4753,0-2.6823-0.50083-2.6823-1.113,0-0.61213-1.612-3.0802-3.5822-5.4846l-3.5822-4.3716,3.1618-3.0038c1.739-1.6521,4.077-4.2771,5.1956-5.8333l2.0338-2.8295h-6.2434-6.2434v12.347c0,10.289-0.25722,12.347-1.5433,12.347s-1.5433-2.0578-1.5433-12.347z"/>
    <path id="path2989" d="M15.839,48.161c-10.959-10.958-13.162-13.674-13.162-16.22,0-2.5471,2.1936-5.2466,13.133-16.161,10.867-10.844,13.654-13.104,16.161-13.104,2.5086,0,5.2891,2.2604,16.191,13.162,9.7626,9.7626,13.162,13.819,13.162,15.705,0,3.6116-26.193,29.78-29.808,29.78-1.8501,0-5.9935-3.4788-15.677-13.162zm30.293-1.998c7.3994-7.3801,12.105-12.874,12.105-14.132,0-2.0929-24.198-27.297-26.207-27.297-1.3458,0-27.295,25.893-27.295,27.236,0,2.0148,25.146,26.267,27.235,26.267,1.2531,0,6.7911-4.721,14.163-12.073zm-20.82-10.503v-12.288l-4.3728-0.39385c-2.405-0.21662,2.0652-0.47474,9.934-0.57361l14.307-0.17976-1.9248,2.315c-1.0586,1.2733-3.7,4.2081-5.8697,6.5218l-3.9449,4.2068,3.9968,3.6108c5.2547,4.7473,6.146,7.0102,2.7613,7.0102-1.762,0-2.54-0.56849-2.54-1.856,0-1.0208-1.6257-3.4317-3.6128-5.3576l-3.6127-3.5016,5.1561-5.2209c2.8359-2.8715,5.1561-5.5536,5.1561-5.9603,0-0.40662-3.0095-0.73932-6.6878-0.73932h-6.6878v12.347c0,7.5452-0.40013,12.347-1.0289,12.347-0.62849,0-1.0289-4.7818-1.0289-12.288z"/>
   </g>
  </g>
 </g>
</svg>
