<?xml version="1.0" encoding="UTF-8" standalone="no"?>
<!-- Created with Inkscape (http://www.inkscape.org/) -->
<svg id="svg3033" xmlns:rdf="http://www.w3.org/1999/02/22-rdf-syntax-ns#" xmlns="http://www.w3.org/2000/svg" height="64px" width="64px" version="1.1" xmlns:cc="http://creativecommons.org/ns#" xmlns:dc="http://purl.org/dc/elements/1.1/">
 <metadata id="metadata3038">
  <rdf:RDF>
   <cc:Work rdf:about="">
    <dc:format>image/svg+xml</dc:format>
    <dc:type rdf:resource="http://purl.org/dc/dcmitype/StillImage"/>
    <dc:title/>
   </cc:Work>
  </rdf:RDF>
 </metadata>
 <g id="layer1">
  <g id="g9103">
   <path id="path7804" d="M-36.727,40.182-70.909,4.1818-34.909-30-0.72727,6z" fill-rule="nonzero" transform="matrix(0.82642484,0,0,0.82642484,61.601037,27.792746)" fill="#FFF"/>
   <g id="g9086" fill="#000">
    <path id="path3003" d="M15.561,48.123c-9.9976-10.018-13.561-14.248-13.561-16.095,0-1.8492,3.5677-6.0733,13.617-16.123,11.139-11.138,14.151-13.616,16.553-13.616,2.3727,0,5.2837,2.3121,15.156,12.038,12.754,12.565,15.536,16.297,14.463,19.401-0.35322,1.0218-6.452,7.736-13.553,14.921-10.888,11.016-13.397,13.063-16.013,13.063-2.6162,0-5.2284-2.1302-16.663-13.589zm29.198-1.011c6.44-6.34,12.181-12.393,12.757-13.453,0.899-1.652-0.748-3.726-11.595-14.599-6.953-6.97-13.334-12.673-14.179-12.673-2.0496,0-25.644,23.6-25.644,25.65,0,1.6051,24.542,26.601,26.118,26.601,0.4589,0,6.1033-5.1867,12.543-11.526zm-15.479,4.0311c-4.1888-3.9506-6.2734-8.281-7.3005-15.166-1.1762-7.8846,2.7222-13.198,9.6837-13.198,2.9285,0,3.1109-0.20676,2.4849-2.8174-0.37155-1.5496-1.3142-4.0853-2.0949-5.6349-0.78063-1.5496-1.0369-2.8174-0.56946-2.8174,1.631,0,7.3075,6.689,8.8838,10.468,1.8094,4.3383,2.104,13.292,0.53382,16.226-1.2611,2.3564-6.1862,5.0659-9.2085,5.0659-2.3774,0-2.2071,1.7413,0.73576,7.523,2.1463,4.2167,1.0771,4.3355-3.1487,0.35008zm7.0809-16.133c1.3019-2.1065-0.54554-6.0428-3.1419-6.6945-3.3479-0.84026-5.606,1.1204-5.606,4.8676,0,4.6317,6.2125,5.9291,8.7479,1.8268z"/>
    <path id="path3001" d="M15.824,48.051c-9.7243-9.82-13.526-14.344-13.526-16.094,0-1.7578,3.7849-6.2193,13.617-16.051,11.102-11.103,14.156-13.617,16.537-13.617,2.3696,0,5.403,2.4647,16.094,13.077,17.527,17.398,17.523,15.911,0.09754,33.298-10.998,10.973-13.571,13.048-16.185,13.048-2.6295,0-5.1913-2.1037-16.634-13.66zm30.181-1.9116c6.953-6.8739,12.642-12.976,12.642-13.56,0-1.6816-24.899-26.193-26.607-26.193-2.0084,0-25.644,23.579-25.644,25.582,0,1.6399,24.419,26.668,26.019,26.668,0.5217,0,6.6373-5.6241,13.59-12.498zm-17.137,4.077c-3.846-3.846-5.609-7.657-6.593-14.257-1.115-7.472,2.948-13.112,9.478-13.157,3.8794-0.02655,4.0456-0.90783,1.3082-6.9383-1.0871-2.3948-1.6284-4.3542-1.203-4.3542,1.5671,0,7.2668,6.7747,8.8074,10.468,1.8094,4.3383,2.104,13.292,0.53382,16.226-1.2611,2.3564-6.1862,5.0659-9.2085,5.0659-2.367,0-2.206,1.742,0.68653,7.4278,1.9199,3.774,0.23264,3.5608-3.8095-0.4813zm5.9867-13.664c2.4772-1.7351,3.0037-5.4648,1.0476-7.4209-1.9237-1.9237-5.6751-1.4449-7.3436,0.93724-1.6662,2.3789-1.2249,4.8214,1.2281,6.7979,2.0229,1.6299,2.3185,1.6115,5.0679-0.31422z"/>
    <path id="path2999" d="M15.542,47.927c-12.502-12.626-13.592-14.024-12.969-16.648,1.0044-4.231,26.087-28.99,29.369-28.99,1.8409,0,6.0668,3.5758,16.059,13.589,11.25,11.273,13.561,14.103,13.561,16.605,0,2.4986-2.2498,5.2661-13.106,16.123-10.977,10.977-13.606,13.106-16.185,13.106-2.5934,0-5.2316-2.1739-16.728-13.784zm30.38-1.8246c6.9109-6.8943,12.565-13.191,12.565-13.992,0-2.3519-23.673-25.723-26.055-25.723-2.4421,0-26.195,23.197-26.195,25.582,0,1.6887,24.443,26.668,26.095,26.668,0.56381,0,6.6795-5.6408,13.59-12.535zm-16.83,4.0827c-4.6115-4.8594-6.5617-9.3959-6.781-15.774-0.17856-5.1935,0.07428-5.8866,3.1517-8.6394,2.1145-1.8915,4.471-2.9929,6.4033-2.9929,3.588,0,3.7336-0.97239,1.0359-6.9155-2.4656-5.4318-1.3388-5.5417,3.3708-0.32865,4.0385,4.4702,5.8195,9.5312,5.7938,16.465-0.02377,6.4226-4.3891,11.27-10.149,11.27-2.6448,0-2.6529,1.0791-0.04651,6.188,2.5125,4.9249,1.4648,5.1992-2.7787,0.72758zm6.271-13.648c1.9108-1.9108,2.1046-5.6818,0.38054-7.4058-1.9561-1.9561-5.6858-1.4296-7.4209,1.0476-2.0525,2.9303-2.0124,3.4526,0.45417,5.9192,2.4668,2.4668,4.4278,2.5975,6.5862,0.43908z"/>
    <path id="path2997" d="M15.747,48.31c-17.281-17.319-17.256-15.677-0.498-32.367,7.814-7.7822,13.826-12.936,15.586-13.361,2.628-0.6345,4.001,0.4342,16.648,12.957,11.61,11.496,13.784,14.135,13.784,16.728,0,2.5788-2.1291,5.208-13.106,16.185-10.912,10.912-13.616,13.106-16.151,13.106-2.5383,0-5.2439-2.2039-16.264-13.248zm29.882-2.3606c6.9109-6.8943,12.565-13.191,12.565-13.992,0-2.3519-23.673-25.723-26.055-25.723-2.4421,0-26.195,23.197-26.195,25.582,0,1.6887,24.443,26.668,26.095,26.668,0.56381,0,6.6795-5.6408,13.59-12.535zm-16.893,4.0827c-4.2053-4.345-6.493-9.9972-6.6389-16.402-0.10443-4.5842,0.2493-5.4919,3.1504-8.084,2.0458-1.8279,4.4115-2.92,6.3254-2.92,3.6963,0,3.8948-1.5137,0.95442-7.2774-2.0923-4.1013-2.0925-4.1166-0.0416-3.019,5.0527,2.7041,9.3163,11.464,9.3163,19.142,0,5.7689-4.1542,10.837-9.0283,11.014-3.8563,0.14037-4.127,1.5826-1.3274,7.0738,2.3881,4.6841,1.5134,4.8367-2.7102,0.47276zm6.2986-13.369c2.2104-1.6163,1.8996-6.6906-0.50189-8.1932-2.3472-1.4686-6.8229-0.05269-7.6031,2.4053-0.83554,2.6326,1.972,7.1191,4.4548,7.1191,1.0063,0,2.6488-0.59903,3.6501-1.3312z"/>
    <path id="path2995" d="M16.535,49.161c-7.0083-6.903-13.099-13.473-13.535-14.6-1.3798-3.566,0.8086-6.878,12.06-18.257,10.333-10.45,14.846-14.015,17.741-14.015,0.68561,0,7.3935,6.0867,14.906,13.526,11.499,11.387,13.66,14.013,13.66,16.605,0,2.5788-2.1291,5.208-13.106,16.185-10.7,10.7-13.646,13.106-16.045,13.106-2.3819,0-5.3533-2.3782-15.681-12.55zm29.194-3.0582c6.9109-6.8943,12.565-13.257,12.565-14.14,0-1.6094-24.545-26.601-26.125-26.601-1.922,0-26.126,25.088-26.143,27.097-0.01127,1.3634,4.3969,6.3271,12.55,14.132,6.9123,6.6167,13.022,12.034,13.578,12.038,0.55535,0.0043,6.6641-5.633,13.575-12.527zm-16.908,4.0674c-4.3214-4.465-6.3852-9.801-6.3852-16.509,0-4.9695,0.34322-5.8655,3.1522-8.2291,1.818-1.5297,4.4198-2.6524,6.1471-2.6524,3.6811,0,3.894-1.9388,0.83884-7.639l-2.1561-4.0228,2.4122,1.5817c5.1907,3.4035,9.0543,11.731,9.0659,19.541,0.0082,5.1758-4.3002,10.092-8.9589,10.223-3.7952,0.1071-4.073,1.1425-1.7795,6.6318,0.85263,2.0406,1.3974,3.8631,1.2106,4.0498-0.18678,0.18678-1.7831-1.1519-3.5474-2.9747zm6.3135-13.354c2.2104-1.6163,1.8996-6.6906-0.50189-8.1932-4.8302-3.0222-10.329,3.3127-6.5245,7.5166,2.1093,2.3308,4.4552,2.5567,7.0264,0.67659z"/>
    <path id="path2993" d="M15.952,48.315c-11.159-11.041-13.151-13.488-13.151-16.151,0-2.6584,2.0216-5.1561,13.205-16.315,10.446-10.423,13.788-13.176,15.994-13.176,3.911,0,29.199,25.066,29.199,28.942,0,3.6144-26.032,29.712-29.637,29.712-1.777,0-6.1091-3.6111-15.61-13.012zm29.608-2.5966c6.9109-6.8943,12.565-13.257,12.565-14.14,0-1.6992-24.589-26.601-26.267-26.601-0.54108,0-6.876,5.955-14.078,13.233-11.081,11.201-12.936,13.524-12.071,15.113,1.6917,3.1086,24.33,24.93,25.863,24.93,0.78275,0,7.0775-5.6408,13.988-12.535zm-18.008,2.8301c-3.4896-3.9744-5.2704-9.2079-5.2789-15.514-0.0082-5.6807,3.0021-9.4165,8.2646-10.258,4.4683-0.71451,4.8048-1.652,2.5394-7.0739-1.7063-4.0837-0.83315-4.5765,2.2106-1.2477,3.5064,3.8348,5.6174,8.9875,6.1676,15.054,0.46823,5.1637,0.23598,6.0974-2.2523,9.0546-2.126,2.5266-3.5912,3.2972-6.2692,3.2972-2.84,0-3.4948,0.39345-3.4948,2.0999,0,1.155,0.7034,3.4601,1.5631,5.1226,2.1132,4.0865,0.3704,3.8162-3.4501-0.53514zm8.74-13.849c1.8333-3.6962-0.35286-6.669-4.9043-6.669-2.8161,0-3.613,0.50285-4.4161,2.7864-2.1092,5.9974,6.4939,9.5811,9.3204,3.8826z"/>
    <path id="path2991" d="M15.907,48.093c-10.912-10.912-13.106-13.616-13.106-16.151,0-2.5363,2.1843-5.2243,13.077-16.093,11.001-10.977,13.571-13.048,16.187-13.048,2.6262,0,5.1338,2.0454,16.122,13.151,9.5813,9.6834,13.012,13.816,13.012,15.673,0,3.5166-26.215,29.574-29.753,29.574-1.751,0-6.1062-3.6733-15.539-13.106zm29.653-2.5024c6.9109-6.8943,12.565-13.227,12.565-14.072,0-1.6886-24.443-26.668-26.096-26.668-1.2919,0-27.18,25.758-27.18,27.044,0,1.635,24.914,26.232,26.57,26.232,0.86596,0,7.2288-5.6408,14.14-12.535zm-17.951,2.744c-8.491-10.301-6.611-25.253,3.203-25.472,4.283-0.09561,4.7033-1.4524,2.2606-7.2985-1.427-3.4153-1.4071-3.5196,0.48011-2.5096,1.0829,0.57957,3.21,3.1713,4.7267,5.7595,2.1802,3.7202,2.777,6.0942,2.8496,11.335,0.08381,6.0475-0.16045,6.8468-2.7827,9.1065-1.634,1.4081-4.1764,2.4772-5.891,2.4772-3.5287,0-3.9936,2.3102-1.4533,7.2226,2.1444,4.1467,0.25165,3.8004-3.3927-0.62078zm8.5382-13.192c1.834-2.799,0.84432-5.9037-2.4427-7.6628-2.716-1.4536-6.7578,0.90131-7.1389,4.1594-0.65411,5.5913,6.4997,8.2071,9.5817,3.5035z"/>
    <path id="path2989" d="M27.902,59.274c-1.691-1.055-8.03-6.978-14.087-13.162-8.9101-9.095-11.014-11.813-11.014-14.228,0-2.46,2.3012-5.2814,13.077-16.033,11.001-10.977,13.571-13.048,16.187-13.048,2.6262,0,5.1338,2.0454,16.122,13.151,9.3168,9.416,13.012,13.841,13.012,15.582,0,1.7538-3.7946,6.2259-13.617,16.048-7.4893,7.4893-14.29,13.615-15.112,13.613-0.82218-0.0022-2.878-0.86742-4.5684-1.9229zm18.09-13.13c7.609-7.515,12.133-12.763,12.133-14.073,0-2.3932-24.195-27.219-26.527-27.219-1.8535,0-25.496,23.283-26.339,25.938-0.4932,1.5539,2.1174,4.7394,12.015,14.661,7.4189,7.4368,13.46,12.676,14.615,12.676,1.1392,0,7.0846-5.0522,14.103-11.984zm-16.435,4.1649c-5.3322-3.7348-9.1006-17.62-6.2351-22.974,1.3844-2.5867,6.8668-5.3766,9.31-4.7377,2.4625,0.64396,2.6365-3.1605,0.3471-7.5878-1.5097-2.9195-1.4948-3.0052,0.32509-1.8686,4.978,3.1088,9.2073,14.356,7.9424,21.122-0.74529,3.9863-4.8844,7.4722-8.8724,7.4722-3.443,0-3.8902,2.3535-1.3723,7.2226,1.8149,3.5096,1.7387,3.5808-1.4448,1.351zm6.6024-15.183c2.0932-3.1946,1.1018-6.5128-2.3364-7.82-5.4546-2.0738-9.9456,4.6236-5.848,8.7212,2.4204,2.4204,6.287,1.9946,8.1844-0.90118z"/>
   </g>
  </g>
 </g>
</svg>
