<?xml version="1.0" encoding="UTF-8" standalone="no"?>
<!-- Created with Inkscape (http://www.inkscape.org/) -->
<svg id="svg3024" xmlns:rdf="http://www.w3.org/1999/02/22-rdf-syntax-ns#" xmlns="http://www.w3.org/2000/svg" height="64px" width="64px" version="1.1" xmlns:cc="http://creativecommons.org/ns#" xmlns:dc="http://purl.org/dc/elements/1.1/">
 <metadata id="metadata3029">
  <rdf:RDF>
   <cc:Work rdf:about="">
    <dc:format>image/svg+xml</dc:format>
    <dc:type rdf:resource="http://purl.org/dc/dcmitype/StillImage"/>
    <dc:title/>
   </cc:Work>
  </rdf:RDF>
 </metadata>
 <g id="layer1">
  <g id="g9209">
   <path id="path7804" d="M-36.727,40.182-70.909,4.1818-34.909-30-0.72727,6z" fill-rule="nonzero" transform="matrix(0.82642484,0,0,0.82642484,61.601037,27.792746)" fill="#FFF"/>
   <g id="g9188">
    <path id="path2991" d="M16.381,49.048c-7.1764-7.07-13.474-13.944-13.994-15.275-1.4496-3.709,0.7457-6.824,14.012-19.879,16.139-15.883,15.085-15.918,31.949,1.049,7.8994,7.947,13.053,13.989,13.499,15.825,0.66611,2.7445-0.34937,4.0406-13.361,17.053-10.154,10.154-14.776,14.082-16.569,14.082-1.7709,0-6.244-3.7014-15.535-12.855zm29.437-5.3539c4.4854-1.5619,13.332-9.6793,13.332-12.233,0-2.0248-25.302-27.274-27.331-27.274-2.1089,0-27.237,25.487-27.237,27.626,0,1.0027,0.7094,2.0953,1.5764,2.428,2.7819,1.0675,6.1828-0.46881,11.967-5.406,10.442-8.9136,17.312-10.881,23.921-6.8505,1.8478,1.1266,4.1316,3.5413,5.0751,5.3659l1.7155,3.3175-2.4228-1.697c-1.3325-0.93334-4.1429-1.697-6.2453-1.697-9.4564,0-14.184,11.998-6.3946,16.228,3.5244,1.9137,6.9455,1.9686,12.044,0.19316z" fill="#000"/>
   </g>
  </g>
 </g>
</svg>
