<?xml version="1.0" encoding="UTF-8" standalone="no"?>
<!-- Created with Inkscape (http://www.inkscape.org/) -->
<svg id="svg3031" xmlns:rdf="http://www.w3.org/1999/02/22-rdf-syntax-ns#" xmlns="http://www.w3.org/2000/svg" height="64px" width="64px" version="1.1" xmlns:cc="http://creativecommons.org/ns#" xmlns:dc="http://purl.org/dc/elements/1.1/">
 <metadata id="metadata3036">
  <rdf:RDF>
   <cc:Work rdf:about="">
    <dc:format>image/svg+xml</dc:format>
    <dc:type rdf:resource="http://purl.org/dc/dcmitype/StillImage"/>
    <dc:title/>
   </cc:Work>
  </rdf:RDF>
 </metadata>
 <g id="layer1">
  <g id="g9289">
   <path id="path7804" d="M-36.727,40.182-70.909,4.1818-34.909-30-0.72727,6z" fill-rule="nonzero" transform="matrix(0.82642484,0,0,0.82642484,61.601037,27.792746)" fill="#FFF"/>
   <g id="g9261" fill="#000">
    <path id="path3003" d="M29.931,61.832c-0.853-0.304-7.487-6.428-14.741-13.611-11.066-10.955-13.19-13.559-13.19-16.163,0-2.6022,2.2153-5.3243,13.693-16.825,10.193-10.215,14.346-13.721,16.25-13.721,1.9034,0,6.0779,3.5196,16.307,13.749,11.247,11.247,13.749,14.289,13.749,16.714,0,2.3957-2.3346,5.3351-12.155,15.304-10.162,10.316-16.452,15.607-18.051,15.186-0.171-0.045-1.009-0.33-1.862-0.633zm15.244-16.08c6.978-6.9613,12.687-13.355,12.687-14.209,0-2.0695-23.829-25.893-25.899-25.893-0.8915,0-7.3363,5.7811-14.322,12.847-10.733,10.856-12.541,13.14-11.669,14.741,1.3625,2.504,24.412,25.17,25.596,25.17,0.50587,0,6.6291-5.6956,13.607-12.657zm-23.889-7.516c-0.85345-0.85345-2.9815-1.5517-4.7291-1.5517-2.6708,0-3.1773-0.39877-3.1773-2.5016,0-4.4999,1.0567-5.7743,4.788-5.7743,2.7638,0,3.7885-0.56261,4.7105-2.5862,1.072-2.3528,1.7557-2.5862,7.5761-2.5862,5.0885,0,6.7817,0.42431,8.2741,2.0733,1.032,1.1403,3.7809,2.5824,6.1086,3.2046,5.3778,1.4375,6.8185,2.6441,6.8185,5.7108,0,1.9001-0.55946,2.4595-2.4595,2.4595-1.3528,0-3.0391,0.69828-3.7474,1.5517-0.7083,0.85345-1.8721,1.5517-2.5862,1.5517-0.71411,0-1.8779-0.69828-2.5862-1.5517-0.85639-1.0319-3.1761-1.5517-6.9247-1.5517-3.6313,0-6.189,0.55211-7.1886,1.5517-0.85345,0.85345-1.9507,1.5517-2.4384,1.5517-0.48769,0-1.585-0.69828-2.4384-1.5517zm4.5074-2.5862c0-1.3793-0.68966-2.069-2.069-2.069s-2.069,0.68966-2.069,2.069,0.68966,2.069,2.069,2.069,2.069-0.68966,2.069-2.069zm19.397,0.25916c0.56561-1.6988-2.6757-2.9114-4.0659-1.5211-0.59494,0.59494-0.75301,1.6136-0.35126,2.2636,0.91402,1.4789,3.8414,0.98687,4.4172-0.74246zm-16.293-9.052c0-0.86207-0.91954-1.5517-2.069-1.5517-1.1494,0-2.069,0.68966-2.069,1.5517,0,0.86207,0.91954,1.5517,2.069,1.5517,1.1494,0,2.069-0.68966,2.069-1.5517zm8.0224,0.25862c-0.6552-1.9895-4.919-2.276-4.919-0.33057,0,1.0562,0.93396,1.6237,2.6724,1.6237,1.6754,0,2.5135-0.48243,2.2466-1.2931z"/>
    <path id="path3001" d="M15.175,48.805c-11.08-11.104-13.175-13.703-13.175-16.342,0-2.655,2.1242-5.242,13.793-16.796,9.916-9.8191,14.483-13.658,16.25-13.658,1.7749,0,6.2798,3.8216,16.207,13.749,11.211,11.211,13.75,14.294,13.75,16.698,0,2.393-2.489,5.455-13.204,16.251-17.567,17.698-16.065,17.693-33.621,0.098zm30-2.5563c6.978-6.9613,12.687-13.355,12.687-14.209,0-2.0279-23.808-25.893-25.831-25.893-1.6559,0-26.928,24.656-26.928,26.272,0,1.3304,24.99,26.487,26.311,26.487,0.58989,0,6.7819-5.6956,13.76-12.657zm-23.805-7.432c-0.80728-0.80728-2.819-1.6219-4.4704-1.8103-5.7072-0.65111-4.1804-8.1012,1.6602-8.1012,1.9068,0,3.4217-0.86063,4.5523-2.5862,1.4773-2.2546,2.4456-2.5862,7.5523-2.5862,4.5895,0,6.3758,0.48671,8.2506,2.248,1.3161,1.2364,4.6047,2.9821,7.3081,3.8793,4.104,1.3621,4.9692,2.1008,5.2425,4.4762,0.2729,2.3717-0.07117,2.8503-2.069,2.8777-1.318,0.0181-3.2965,0.71387-4.3967,1.5461-1.7578,1.3297-2.2867,1.3257-4.3601-0.0329-3.1618-2.0717-13.125-2.0679-14.846,0.0052-1.6047,1.9335-2.5558,1.9515-4.4234,0.0839zm4.4234-2.6701c0-1.3583-0.68966-2.069-2.0079-2.069-2.2734,0-3.6024,1.558-2.6473,3.1034,1.1923,1.9292,4.6552,1.1597,4.6552-1.0345zm19.655,0c0-1.5172-0.68966-2.069-2.5862-2.069s-2.5862,0.55172-2.5862,2.069c0,1.5172,0.68966,2.069,2.5862,2.069s2.5862-0.55173,2.5862-2.069zm-15.77-8.534c-0.6552-1.9895-4.919-2.276-4.919-0.33057,0,1.0562,0.93396,1.6237,2.6724,1.6237,1.6754,0,2.5135-0.48242,2.2466-1.2931zm7.8689-0.25862c-0.33734-0.87909-1.8787-1.5517-3.5558-1.5517-2.2064,0-2.8087,0.39519-2.3649,1.5517,0.33734,0.87909,1.8787,1.5517,3.5558,1.5517,2.2064,0,2.8087-0.39519,2.3649-1.5517z"/>
    <path id="path2999" d="M15.234,48.615c-11.084-11.084-13.234-13.738-13.234-16.342,0-2.619,2.195-5.283,13.918-16.891,12.749-12.624,14.161-13.724,16.81-13.095,4.272,1.0142,29.272,26.341,29.272,29.654,0,1.859-3.611,6.126-13.721,16.215-11.383,11.36-14.239,13.693-16.766,13.693-2.5229,0-5.3173-2.2716-16.279-13.234zm30.377-1.97c7.6801-7.5854,12.251-12.887,12.251-14.209,0-2.4658-23.423-26.45-25.831-26.45-1.7051,0-26.928,24.68-26.928,26.349,0,1.6233,25.139,26.41,26.785,26.41,0.80926,0,6.9844-5.4451,13.722-12.1zm-4.886-8.045c-2.292-1.733-13.42-2.154-14.415-0.544-0.35164,0.56897-1.1938,0.99773-1.8714,0.95281-0.88836-0.05888-0.87134-0.22722,0.06103-0.60345,1.5946-0.64345,1.7037-4.1114,0.15935-5.0659-0.62356-0.38538-1.8637,0.0293-2.756,0.92151-1.3364,1.3364-1.3877,1.9048-0.2913,3.2259,0.90038,1.0849,0.95529,1.6036,0.16976,1.6036-0.63864,0-1.1612-0.46552-1.1612-1.0345,0-0.56896-1.4246-1.0345-3.1659-1.0345-3.0258,0-3.1517-0.17168-2.8448-3.8793,0.30121-3.6395,0.55216-3.8986,4.0589-4.1919,2.7933-0.23363,4.0294-0.95253,4.8916-2.8448,1.0326-2.2663,1.7888-2.5322,7.2025-2.5322,5.0504,0,6.4344,0.41054,8.3856,2.4875,1.2853,1.3681,3.9118,2.783,5.8367,3.1441,4.0963,0.76847,6.6698,3.0147,6.6698,5.8216,0,1.3169-0.71564,1.9951-2.1054,1.9951-1.1579,0-3.1672,0.69577-4.4651,1.5461-2.0734,1.3586-2.6024,1.3626-4.3601,0.0329zm4.7237-2.638c0-1.0296-0.5819-2.0751-1.2931-2.3231-2.0947-0.73067-3.8793,0.36058-3.8793,2.3721,0,1.0296,0.5819,2.0751,1.2931,2.3231,2.0947,0.73067,3.8793-0.36058,3.8793-2.3721zm-15.518-8.768c0-0.96552-0.97701-1.5517-2.5862-1.5517s-2.5862,0.58621-2.5862,1.5517c0,0.96552,0.97701,1.5517,2.5862,1.5517s2.5862-0.58621,2.5862-1.5517zm7.6155,0c-0.33942-0.88451-1.8823-1.5517-3.5882-1.5517-1.9706,0-2.9928,0.52999-2.9928,1.5517,0,1.0811,1.0883,1.5517,3.5882,1.5517,2.7645,0,3.4515-0.35621,2.9928-1.5517z"/>
    <path id="path2997" d="M15.388,48.318c-11.018-11.018-13.234-13.748-13.234-16.308,0-2.563,2.2254-5.2949,13.377-16.422,17.487-17.448,15.828-17.423,32.681-0.502,7.858,7.89,13.062,13.961,13.491,15.738,0.641,2.653-0.438,4.04-13.083,16.81-11.608,11.723-14.272,13.918-16.891,13.918-2.6039,0-5.2587-2.1498-16.342-13.234zm30.377-1.97c7.6801-7.5854,12.251-12.887,12.251-14.209,0-2.4658-23.423-26.45-25.831-26.45-1.7051,0-26.928,24.68-26.928,26.349,0,1.6233,25.139,26.41,26.785,26.41,0.80926,0,6.9844-5.4451,13.722-12.1zm-24.473-8.5895c-0.35164-0.56896-2.0365-1.0345-3.7442-1.0345-2.9552,0-3.0894-0.18692-2.7838-3.8793,0.30121-3.6395,0.55216-3.8986,4.0589-4.1919,2.8533-0.23865,4.026-0.94496,4.9554-2.9847,1.1615-2.5492,1.5055-2.646,7.4797-2.1043,4.2319,0.38373,6.9855,1.2376,8.4929,2.6336,1.2269,1.1362,4.1811,2.5833,6.5649,3.2158,5.8333,1.5478,7.7172,7.3108,2.39,7.3108-1.0708,0-2.2346,0.46552-2.5862,1.0345-0.35164,0.56897-1.1938,0.99773-1.8714,0.95281-0.88836-0.05888-0.87133-0.22722,0.06103-0.60345,3.1556-1.2733,0.64818-5.8942-2.5862-4.7659-1.6767,0.58488-1.6767,4.0894,0,4.7659,0.93239,0.37623,0.94942,0.54456,0.06103,0.60345-0.67763,0.04492-1.5198-0.38385-1.8714-0.95281-0.9201-1.4888-12.243-1.2791-13.967,0.25862-1.2392,1.105-1.2446,1.0223-0.03714-0.56916,1.2113-1.5964,1.1672-2.108-0.30851-3.5837-1.6057-1.6057-1.8373-1.6057-3.443,0-1.4221,1.4221-1.49,2.0004-0.39058,3.3251,0.732,0.882,1.0686,1.6036,0.74804,1.6036-0.32057,0-0.87056-0.46552-1.2222-1.0345zm8.7931-10.862c0-0.94702-0.96472-1.5517-2.4755-1.5517-1.3615,0-2.7435,0.69828-3.071,1.5517-0.44688,1.1646,0.17078,1.5517,2.4755,1.5517,2.0401,0,3.071-0.52089,3.071-1.5517zm7.6155,0c-0.32751-0.85345-1.4767-1.5517-2.5537-1.5517-1.0771,0-2.3011-0.11638-2.72-0.25862-0.41893-0.14224-0.91859,0.55604-1.1103,1.5517-0.27905,1.449,0.38268,1.8103,3.3154,1.8103,2.8319,0,3.5288-0.3524,3.0686-1.5517z"/>
    <path id="path2995" d="M15.234,48.42c-10.804-10.804-13.234-13.779-13.234-16.201,0-2.405,2.4013-5.406,12.672-15.834,6.97-7.0767,13.604-13.227,14.742-13.667,3.6-1.3932,6.945,0.8165,18.434,12.177,10.552,10.434,14.152,14.991,14.152,17.914,0,0.69228-6.1459,7.4654-13.658,15.051-11.497,11.611-14.149,13.793-16.766,13.793-2.6039,0-5.2587-2.1498-16.342-13.234zm31.044-2.6345c6.94-7.022,12.619-13.148,12.619-13.616,0-1.5775-25.224-26.379-26.829-26.379-1.7302,0-26.964,24.658-26.964,26.349,0,1.7138,25.186,26.41,26.934,26.41,0.89114,0,7.299-5.7441,14.24-12.765zm-25.14-7.926c-0.35164-0.56896-2.0365-1.0345-3.7442-1.0345-2.9552,0-3.0894-0.18692-2.7838-3.8793,0.30121-3.6395,0.55216-3.8986,4.0589-4.1919,2.8375-0.23733,4.0269-0.94704,4.9378-2.9463,0.79917-1.754,1.7385-2.427,2.8123-2.015,0.88676,0.34028,2.4617,0.61869,3.4998,0.61869,1.3782,0,1.7415,0.55827,1.3465,2.069-0.4681,1.79-0.03176,2.069,3.2367,2.069,3.4572,0,3.6838-0.17556,2.6705-2.069-1.4031-2.6218,0.15316-2.6885,2.4896-0.10677,0.97667,1.0792,3.8419,2.4825,6.3672,3.1183,4.1489,1.0447,4.5915,1.4539,4.5915,4.2447,0,2.5645-0.41834,3.0886-2.4656,3.0886-1.5955,0-2.6565-0.73006-3.0066-2.069-0.70044-2.6785-3.8725-2.6785-4.5729,0-0.46746,1.7876-1.4111,2.069-6.9376,2.069-3.6542,0-7.0183,0.55438-7.8467,1.2931-1.2392,1.105-1.2446,1.0223-0.03714-0.56916,1.2113-1.5964,1.1672-2.108-0.30851-3.5837-1.6057-1.6057-1.8373-1.6057-3.443,0-1.4221,1.4221-1.49,2.0004-0.39058,3.3251,0.732,0.882,1.0686,1.6036,0.74804,1.6036s-0.87056-0.46552-1.2222-1.0345zm8.7931-10.862c0-0.94702-0.96472-1.5517-2.4755-1.5517-1.3615,0-2.7435,0.69828-3.071,1.5517-0.44688,1.1646,0.17078,1.5517,2.4755,1.5517,2.0401,0,3.071-0.52089,3.071-1.5517z"/>
    <path id="path2993" d="M16.08,47.762c-9.9539-9.975-13.692-14.399-13.692-16.204,0-1.7942,3.6462-6.1685,13.139-15.762,11.148-11.267,13.618-13.279,16.308-13.279,2.6843,0,5.2062,2.0413,16.474,13.334,10.523,10.547,13.303,13.922,13.303,16.149,0,3.949-25.309,29.483-29.224,29.483-1.978,0-5.953-3.3444-16.308-13.721zm30.585-2.1473c6.9407-7.0206,12.619-13.212,12.619-13.758,0-0.54634-6.0129-6.9428-13.362-14.214-11.308-11.19-13.653-13.063-15.258-12.19-3.139,1.7081-25.173,24.566-25.173,26.115,0,1.9901,24.935,26.812,26.934,26.812,0.89114,0,7.299-5.7441,14.24-12.765zm-20.523-8.2355c1.202-1.5842,1.1833-2.0919-0.12485-3.4001-1.7497-1.7497-5.0086-0.94612-5.0086,1.2351,0,0.91151-1.1404,1.441-3.1034,1.441-2.8385,0-3.1034-0.29965-3.1034-3.51,0-3.6728,1.288-4.7659,5.6162-4.7659,1.3793,0,2.8453-0.95766,3.5631-2.3276l1.2196-2.3276-0.44742,2.3276c-0.38428,1.9992-0.0062,2.3276,2.6798,2.3276,2.6179,0,3.0391-0.33695,2.5862-2.069-0.29757-1.1379-0.11911-2.069,0.39659-2.069s0.93763,0.93103,0.93763,2.069c0,1.6788,0.68966,2.069,3.6571,2.069,3.3365,0,3.56-0.18136,2.5498-2.069-0.71221-1.3308-0.73819-2.069-0.07283-2.069,0.56897,0,1.4808,0.8339,2.0262,1.8531,0.55322,1.0337,3.3139,2.4483,6.2433,3.199,4.7997,1.2301,5.2515,1.6047,5.2515,4.3538,0,2.4795-0.43312,3.0078-2.4656,3.0078-1.5955,0-2.6565-0.73006-3.0066-2.069-0.29757-1.1379-1.3265-2.069-2.2865-2.069-0.95998,0-1.9889,0.93103-2.2865,2.069-0.46746,1.7876-1.4111,2.069-6.9376,2.069-3.6542,0-7.0183,0.55438-7.8467,1.2931-1.2392,1.105-1.2446,1.0223-0.03714-0.56916z"/>
    <path id="path2991" d="M16.175,47.69c-9.8141-9.911-13.658-14.484-13.658-16.249,0-1.768,3.709-6.1655,13.234-15.69,11.018-11.018,13.748-13.234,16.308-13.234,2.5609,0,5.2751,2.2055,16.249,13.204,11.083,11.108,13.175,13.703,13.175,16.344,0,2.6518-2.0653,5.1837-13.279,16.279-9.7775,9.6744-13.95,13.139-15.825,13.139-1.8956,0-6.0379-3.5258-16.204-13.793zm30.551-1.968c6.978-6.9613,12.687-13.123,12.687-13.693,0-1.3044-26.009-27.444-27.307-27.444-1.6509,0-26.486,25.156-26.486,26.829,0,2.0537,24.82,26.964,26.866,26.964,0.85378,0,7.2616-5.6956,14.24-12.657zm-31.795-12.688c0-3.4234,0.19044-3.6207,3.4945-3.6207,2.4588,0,3.9701-0.68985,5.0992-2.3276l1.605-2.326-0.565,2.327c-0.49415,2.0367-0.16181,2.3276,2.6594,2.3276,2.8025,0,3.2376-0.37196,3.3272-2.8448l0.10314-2.8448,0.7134,2.5862c0.54239,1.9663,1.5095,2.6639,4.0348,2.9104,3.5711,0.34854,4.3936-1.2657,2.0283-3.9811-0.71121-0.81648-0.12931-0.47725,1.2931,0.75384s4.7974,2.7923,7.5,3.4694c4.4403,1.1124,4.9138,1.5183,4.9138,4.2117,0,2.4508-0.43828,2.9806-2.4656,2.9806-1.5955,0-2.6565-0.73006-3.0066-2.069-0.29757-1.1379-1.3265-2.069-2.2865-2.069-0.95998,0-1.9889,0.93103-2.2865,2.069-0.46698,1.7857-1.4111,2.069-6.8957,2.069-5.2343,0-6.5824-0.36477-7.6467-2.069-0.71065-1.1379-2.03-2.069-2.9319-2.069-0.90189,0-1.8833,0.93103-2.1809,2.069-0.38323,1.4655-1.4111,2.069-3.5238,2.069-2.7193,0-2.9828-0.3199-2.9828-3.6207z"/>
    <path id="path2989" d="M16.688,48.35c-7.3006-7.223-13.533-13.95-13.85-14.949-0.9876-3.111,2.0575-7.214,14.284-19.246,9.62-9.4666,12.389-11.638,14.844-11.638,2.4893,0,5.3285,2.315,16.193,13.204,11.083,11.108,13.175,13.703,13.175,16.344,0,2.6518-2.0653,5.1837-13.279,16.279-9.3625,9.2638-13.989,13.139-15.687,13.139-1.6981,0-6.3231-3.8734-15.681-13.133zm29.89-2.628c6.978-6.961,12.687-13.319,12.687-14.128,0-1.871-23.509-25.744-26.19-26.595-1.569-0.498-4.785,2.138-14.803,12.133-7.51,7.491-12.8,13.59-12.8,14.757,0,2.757,23.571,26.491,26.309,26.491,1.3162,0,6.8787-4.7582,14.796-12.657zm-28.95-9.911c-2.383-0.275-2.845-0.821-2.845-3.362,0-2.7436,0.32752-3.0347,3.4138-3.0347,1.8776,0,3.9724-0.55862,4.6552-1.2414,0.96551-0.96552,1.2414-0.96552,1.2414,0,0,0.68966,1.3793,1.2414,3.1034,1.2414,2.6584,0,3.1257-0.40801,3.2584-2.8448l0.155-2.8448,0.43096,2.8448c0.37696,2.4883,0.89122,2.8448,4.1036,2.8448,3.1973,0,3.6006-0.27541,3.1161-2.1281-0.47893-1.8314-0.33309-1.9396,1.0461-0.77586,0.88143,0.74372,3.7543,2.0505,6.3841,2.904,3.5825,1.1626,4.8644,2.1354,5.1121,3.8793,0.24571,1.73-0.18654,2.3276-1.6837,2.3276-1.1078,0-2.5938-0.69828-3.3021-1.5517-0.7083-0.85345-1.8721-1.5517-2.5862-1.5517-0.71411,0-1.8779,0.69828-2.5862,1.5517-0.87247,1.0513-3.2131,1.5517-7.2574,1.5517-4.352,0-6.1309-0.42048-6.565-1.5517-0.81918-2.1347-4.6993-1.9558-5.6075,0.25862-0.5086,1.24-1.6388,1.7072-3.5874,1.483z"/>
   </g>
  </g>
 </g>
</svg>
