<?xml version="1.0" encoding="UTF-8" standalone="no"?>
<!-- Created with Inkscape (http://www.inkscape.org/) -->
<svg id="svg3041" xmlns:rdf="http://www.w3.org/1999/02/22-rdf-syntax-ns#" xmlns="http://www.w3.org/2000/svg" height="64px" width="64px" version="1.1" xmlns:cc="http://creativecommons.org/ns#" xmlns:dc="http://purl.org/dc/elements/1.1/">
 <metadata id="metadata3046">
  <rdf:RDF>
   <cc:Work rdf:about="">
    <dc:format>image/svg+xml</dc:format>
    <dc:type rdf:resource="http://purl.org/dc/dcmitype/StillImage"/>
    <dc:title/>
   </cc:Work>
  </rdf:RDF>
 </metadata>
 <g id="layer1">
  <path id="path2459-1" d="m24.7,46.4c-1.09-1.67-1.11-2.06-0.172-3.75,1.98-3.55,7.76-2.29,7.76,1.69,0,3.84-5.46,5.32-7.59,2.06zm9.72-8.12c-2.64-2.65-1-7.13,2.61-7.13,3.51,0,5.11,5.41,2.21,7.45-2.09,1.47-3.11,1.4-4.82-0.316zm-11.6-3.5c-1.56-1.73-1.49-3.9,0.183-5.42,3.44-3.12,8.67,1.11,6.15,4.97-1.39,2.12-4.61,2.35-6.33,0.441zm21-4.88c-1.75-0.732-2.41-3.84-1.2-5.69,1.62-2.48,5.76-2.38,6.92,0.163,1.6,3.51-2.06,7.05-5.72,5.53zm-11.7-3.6c-1.6-1.78-1.53-4.63,0.156-6.17,1.87-1.7,4.41-1.16,5.73,1.2,0.98,1.76,0.98,2.16,0.0013,3.92-1.34,2.42-4.19,2.93-5.88,1.05zm-10.5-2.1c-2.85-0.891-3.74-4.84-1.54-6.84,2.74-2.48,6.52-0.703,6.52,3.06,0,2.66-2.49,4.55-4.98,3.77z" fill="#F00"/>
  <path id="path2581" d="m-14.1,6.41a12.3,13.2,0,1,1,-24.6,0,12.3,13.2,0,1,1,24.6,0z" transform="matrix(2.009877,0,0,1.8627543,85.038859,20.051136)" stroke="#000" stroke-dasharray="none" stroke-miterlimit="4" stroke-width="3.57986808" fill="none"/>
 </g>
</svg>
