<?xml version="1.0" encoding="UTF-8" standalone="no"?>
<!-- Created with Inkscape (http://www.inkscape.org/) -->
<svg id="svg2995" xmlns:rdf="http://www.w3.org/1999/02/22-rdf-syntax-ns#" xmlns="http://www.w3.org/2000/svg" height="64px" width="64px" version="1.1" xmlns:cc="http://creativecommons.org/ns#" xmlns:dc="http://purl.org/dc/elements/1.1/">
 <metadata id="metadata3000">
  <rdf:RDF>
   <cc:Work rdf:about="">
    <dc:format>image/svg+xml</dc:format>
    <dc:type rdf:resource="http://purl.org/dc/dcmitype/StillImage"/>
    <dc:title/>
   </cc:Work>
  </rdf:RDF>
 </metadata>
 <g id="layer1">
  <path id="path2459-7" fill="#000" d="M16.9,59.1c-6.2-3.5-11.7-10.5-13.6-17.5-0.893-3.25-0.122-4.38,2.99-4.38,1.6,0,2.3,0.49,2.92,2.06,2.2,5.6,3.05,7.11,5.6,9.94,1.53,1.7,4.41,3.92,6.37,4.9,3.85,1.96,3.99,2.18,2.87,5.11-0.942,2.48-2.49,2.42-7.21-0.29zm28.8-4.55-1.61-2.27,2.42-2.76c3.75-4.31,6.2-10.3,6.37-15.8,0.0833-2.6,0.271-4.83,0.417-4.94,0.146-0.123,1.19-0.448,2.33-0.721,1.73-0.417,2.2-0.186,2.94,1.45,1.13,2.49-0.2,12.4-2.3,17.2-1.41,3.19-7.14,10.2-8.37,10.2-0.331,0-1.32-1.02-2.21-2.27zm-6.6-41.4c-5.92-2.38-9.38-2.54-15.1-0.704-4.94,1.6-5.22,1.61-6.62,0.32-2.49-2.26-1.83-3.75,2.44-5.64,2.74-1.2,5.85-1.82,10.4-2.05,5.81-0.3,6.86-0.132,11,1.73,4.83,2.18,5.32,3.03,3.38,5.99-1.39,2.12-1.12,2.11-5.53,0.342z"/>
  <path id="path2459" fill="#F00" d="m24.3,48.2c-1.09-1.67-1.11-2.06-0.172-3.74,1.98-3.54,7.77-2.29,7.77,1.69,0,3.84-5.47,5.3-7.61,2.06zm9.74-8.01c-2.67-2.74-1.03-7.24,2.6-7.24,3.5,0,5.1,5.4,2.21,7.44-2.09,1.47-3.11,1.4-4.84-0.316zm-11.6-3.54c-1.56-1.73-1.49-3.9,0.182-5.4,3.44-3.12,8.67,1.11,6.14,4.97-1.39,2.12-4.6,2.35-6.34,0.44zm21-4.87c-1.67-0.734-2.34-3.87-1.33-5.7,1.67-2.47,6-2.37,7.01,0.167,1.67,3.5-2,7.04-5.67,5.54zm-11.7-3.7c-1.6-1.78-1.53-4.64,0.156-6.17,1.87-1.69,4.4-1.16,5.74,1.19,0.981,1.76,0.981,2.16,0.0013,3.94-1.37,2.4-4.2,2.9-5.9,1.03zm-10.4-2.1c-2.85-0.891-3.74-4.84-1.54-6.84,2.74-2.48,6.54-0.704,6.54,3.07,0,2.66-2.5,4.54-4.97,3.77z"/>
 </g>
</svg>
